<svg xmlns="http://www.w3.org/2000/svg" width="42.658" height="44.188" viewBox="0 0 42.658 44.188">
  <g id="Grupo_25644" data-name="Grupo 25644" transform="translate(-368.38 -326.932)">
    <circle id="Elipse_1362" data-name="Elipse 1362" cx="21.329" cy="21.329" r="21.329" transform="translate(368.38 328.461)" fill="#f2f2f2"/>
    <g id="Grupo_25643" data-name="Grupo 25643">
      <path id="Trazado_53570" data-name="Trazado 53570" d="M374.428,350.892a15.3,15.3,0,0,0,15.281,15.28l.771-19.62-.771-19.62C384.758,332.024,374.428,343.756,374.428,350.892Z" fill="#e33e4e"/>
      <path id="Trazado_53571" data-name="Trazado 53571" d="M404.989,350.892c0-7.125-10.3-18.835-15.28-23.96v39.24a15.3,15.3,0,0,0,15.28-15.28Z" fill="#bf2e43"/>
      <path id="Trazado_53572" data-name="Trazado 53572" d="M384.5,344.179a4.057,4.057,0,0,0-4.052,4.052v7.524h2.315v-3.473h3.473v3.473h2.315v-7.524a4.056,4.056,0,0,0-4.051-4.052Zm-1.737,5.788v-1.736a1.736,1.736,0,1,1,3.473,0v1.736Z" fill="#fff5f5"/>
      <path id="Trazado_53573" data-name="Trazado 53573" d="M395.5,344.179h-4.63v11.576h4.63a3.477,3.477,0,0,0,2.586-5.788,3.472,3.472,0,0,0-2.586-5.788Zm-1.157,9.261h-1.158v-2.316H395.5a1.159,1.159,0,0,1,.818,1.976C395.794,353.621,395.2,353.376,394.339,353.44Zm-1.158-4.631v-2.315H395.5a1.159,1.159,0,0,1,.818,1.976C395.753,349.031,395.1,348.724,393.181,348.809Z" fill="#ece6f2"/>
    </g>
  </g>
</svg>
