<svg xmlns="http://www.w3.org/2000/svg" width="76.084" height="78.581" viewBox="0 0 76.084 78.581">
  <g id="Grupo_25722" data-name="Grupo 25722" transform="translate(-594.39 -275.054)">
    <circle id="Elipse_1362" data-name="Elipse 1362" cx="38.042" cy="38.042" r="38.042" transform="translate(594.39 277.551)" fill="#f2f2f2"/>
    <g id="Grupo_25721" data-name="Grupo 25721">
      <g id="Grupo_25719" data-name="Grupo 25719">
        <path id="Trazado_53689" data-name="Trazado 53689" d="M631.927,275.054h0a2.3,2.3,0,0,1,2.3,2.3v6.9a2.3,2.3,0,0,1-2.3,2.3h0a2.3,2.3,0,0,1-2.3-2.3v-6.9A2.3,2.3,0,0,1,631.927,275.054Z" fill="#e33e4e"/>
        <path id="Trazado_53690" data-name="Trazado 53690" d="M598.58,308.4h0a2.3,2.3,0,0,1,2.3-2.3h5.75a2.3,2.3,0,0,1,2.3,2.3h0a2.3,2.3,0,0,1-2.3,2.3h-5.75A2.3,2.3,0,0,1,598.58,308.4Z" fill="#e33e4e"/>
        <path id="Trazado_53691" data-name="Trazado 53691" d="M654.925,308.4h0a2.3,2.3,0,0,1,2.3-2.3h5.75a2.3,2.3,0,0,1,2.3,2.3h0a2.3,2.3,0,0,1-2.3,2.3h-5.75A2.3,2.3,0,0,1,654.925,308.4Z" fill="#e33e4e"/>
        <path id="Trazado_53692" data-name="Trazado 53692" d="M602.7,279.178h0a2.3,2.3,0,0,1,3.252,0l5.69,5.691a2.3,2.3,0,0,1,0,3.252h0a2.3,2.3,0,0,1-3.252,0l-5.69-5.691A2.3,2.3,0,0,1,602.7,279.178Z" fill="#e33e4e"/>
        <path id="Trazado_53693" data-name="Trazado 53693" d="M652.2,284.874l5.691-5.691a2.3,2.3,0,0,1,3.251,0h0a2.3,2.3,0,0,1,0,3.252l-5.69,5.691a2.3,2.3,0,0,1-3.252,0h0A2.3,2.3,0,0,1,652.2,284.874Z" fill="#e33e4e"/>
      </g>
      <g id="Grupo_25720" data-name="Grupo 25720">
        <path id="Trazado_53694" data-name="Trazado 53694" d="M652.625,333.7v1.15h-41.4V333.7l4.193-38.686a4.312,4.312,0,0,1,4.289-3.86h24.433a4.311,4.311,0,0,1,4.288,3.86Z" fill="#e33e4e"/>
        <path id="Trazado_53695" data-name="Trazado 53695" d="M631.006,315.655l-11.787,4.533a1.438,1.438,0,0,1-1.943-1.519L619,304.9a1.439,1.439,0,0,1,2.2-1.035l10.067,6.407a1.438,1.438,0,0,1,.665,1.213v2.823a1.438,1.438,0,0,1-.921,1.342Z" fill="#ffd400"/>
        <path id="Trazado_53696" data-name="Trazado 53696" d="M632.849,315.655l11.787,4.533a1.436,1.436,0,0,0,1.942-1.519l-1.72-13.764a1.439,1.439,0,0,0-2.2-1.035l-10.067,6.407a1.437,1.437,0,0,0-.666,1.213v2.823a1.439,1.439,0,0,0,.922,1.342Z" fill="#ffd400"/>
        <path id="Trazado_53697" data-name="Trazado 53697" d="M636.527,313a4.6,4.6,0,1,0-6.9,3.984v17.864h4.6V316.985A4.6,4.6,0,0,0,636.527,313Z" fill="#bf2e43"/>
        <path id="Trazado_53698" data-name="Trazado 53698" d="M610.654,333.7H653.2a2.875,2.875,0,0,1,2.875,2.875v5.174h-48.3v-5.174A2.875,2.875,0,0,1,610.654,333.7Z" fill="#ffd400"/>
      </g>
    </g>
  </g>
</svg>
