<svg xmlns="http://www.w3.org/2000/svg" width="76.084" height="76.43" viewBox="0 0 76.084 76.43">
  <g id="Grupo_25627" data-name="Grupo 25627" transform="translate(-241.325 -18.652)">
    <circle id="Elipse_1362" data-name="Elipse 1362" cx="38.042" cy="38.042" r="38.042" transform="translate(241.325 18.998)" fill="#f2f2f2"/>
    <g id="Grupo_25626" data-name="Grupo 25626">
      <path id="Trazado_53514" data-name="Trazado 53514" d="M286.146,26.646H255.5a7.324,7.324,0,0,0-7.328,7.328V67.283a7.324,7.324,0,0,0,7.328,7.328h17.561a23.263,23.263,0,0,1-2.239-9.992l.027-.667H258.166a2,2,0,0,1,0-4H271.3a22.627,22.627,0,0,1,1.466-4.663h-14.6a2,2,0,0,1,0-4h16.868a23.718,23.718,0,0,1,4.29-4.663H258.166a2,2,0,0,1,0-4h25.315a1.951,1.951,0,0,1,1.412.586,23.042,23.042,0,0,1,8.581-1.892V33.974A7.324,7.324,0,0,0,286.146,26.646Z" fill="#cddce9"/>
      <path id="Trazado_53515" data-name="Trazado 53515" d="M280.816,23.982h-2.931a7.343,7.343,0,0,0-14.123,0h-2.931a2.013,2.013,0,0,0-2,2v5.33a4.685,4.685,0,0,0,4.663,4.663h14.656a4.686,4.686,0,0,0,4.664-4.663V25.98A2.013,2.013,0,0,0,280.816,23.982Z" fill="#6b6bd6"/>
      <g id="Grupo_25625" data-name="Grupo 25625">
        <path id="Trazado_53516" data-name="Trazado 53516" d="M284.893,43.221a23.341,23.341,0,0,0-5.569,3.411H258.166a2,2,0,0,1,0-4h25.315A1.951,1.951,0,0,1,284.893,43.221Z" fill="#fff"/>
        <path id="Trazado_53517" data-name="Trazado 53517" d="M275.034,51.295a22.666,22.666,0,0,0-2.265,4h-14.6a2,2,0,0,1,0-4Z" fill="#fff"/>
        <path id="Trazado_53518" data-name="Trazado 53518" d="M271.3,59.955a22.2,22.2,0,0,0-.453,4H258.166a2,2,0,0,1,0-4Z" fill="#fff"/>
      </g>
      <path id="Trazado_53519" data-name="Trazado 53519" d="M258.832,26.646H255.5a7.324,7.324,0,0,0-7.328,7.328V67.283a7.324,7.324,0,0,0,7.328,7.328h15.322V63.952H258.166a2,2,0,0,1,0-4h12.657V55.292H258.166a2,2,0,0,1,0-4h12.657V46.632H258.166a2,2,0,0,1,0-4h12.657V35.973h-7.328a4.685,4.685,0,0,1-4.663-4.663Z" fill="#aacce9"/>
      <path id="Trazado_53520" data-name="Trazado 53520" d="M270.823,18.652a7.361,7.361,0,0,0-7.061,5.33h-2.931a2.013,2.013,0,0,0-2,2v5.33a4.685,4.685,0,0,0,4.663,4.663h7.328Z" fill="#6161bc"/>
      <path id="Trazado_53521" data-name="Trazado 53521" d="M270.823,42.635H258.166a2,2,0,0,0,0,4h12.657Z" fill="#dedede"/>
      <path id="Trazado_53522" data-name="Trazado 53522" d="M270.823,51.295H258.166a2,2,0,0,0,0,4h12.657Z" fill="#dedede"/>
      <path id="Trazado_53523" data-name="Trazado 53523" d="M270.823,59.955H258.166a2,2,0,0,0,0,4h12.657Z" fill="#dedede"/>
      <path id="Trazado_53524" data-name="Trazado 53524" d="M294.14,82.605a17.987,17.987,0,1,1,17.987-17.986A18.005,18.005,0,0,1,294.14,82.605Z" fill="#62cca2"/>
      <path id="Trazado_53525" data-name="Trazado 53525" d="M294.14,74.611a2.662,2.662,0,0,1-2.665-2.664V62.62a2.664,2.664,0,1,1,5.329,0v9.327A2.662,2.662,0,0,1,294.14,74.611Z" fill="#fff"/>
      <path id="Trazado_53526" data-name="Trazado 53526" d="M291.475,55.958a2.664,2.664,0,1,1,2.665,2.665A2.664,2.664,0,0,1,291.475,55.958Z" fill="#fff"/>
      <path id="Trazado_53527" data-name="Trazado 53527" d="M294.14,46.632a17.987,17.987,0,1,0,0,35.973V74.611a2.662,2.662,0,0,1-2.665-2.664V62.62a2.663,2.663,0,0,1,2.665-2.665V58.623a2.665,2.665,0,1,1,0-5.329Z" fill="#56af89"/>
      <path id="Trazado_53528" data-name="Trazado 53528" d="M294.14,59.955a2.663,2.663,0,0,0-2.665,2.665v9.327a2.662,2.662,0,0,0,2.665,2.664Z" fill="#dedede"/>
      <path id="Trazado_53529" data-name="Trazado 53529" d="M294.14,53.294a2.665,2.665,0,1,0,0,5.329Z" fill="#dedede"/>
    </g>
  </g>
</svg>
