<svg xmlns="http://www.w3.org/2000/svg" width="154.633" height="163.613" viewBox="0 0 154.633 163.613">
  <g id="Grupo_25757" data-name="Grupo 25757" transform="translate(-335.506 -302.495)">
    <path id="Trazado_53714" data-name="Trazado 53714" d="M422.081,318.939a35.455,35.455,0,0,1,45.062,43.406h0l-.01.021a35.751,35.751,0,0,1-2.753,6.871c-.924,1.753-1.834,3.514-2.634,5.327l-2.061,4.666a65.384,65.384,0,0,0-4.791,16.32c-.793,5.075-1.74,11.132-2.235,14.3-.05.359-.111.716-.168,1.076-.105.67-.167,1.067-.171,1.091l-.012,0a56.857,56.857,0,1,1-82.452-60.276l-.008-.016,1.127-.567c.152-.075.3-.154.451-.228l13.524-6.811a85.331,85.331,0,0,0,18.093-12.244l5.42-4.786,0,0A35.47,35.47,0,0,1,422.081,318.939Z" transform="translate(0.768 2.854)" fill="#c5dbee"/>
    <path id="Trazado_53715" data-name="Trazado 53715" d="M377.64,380.915s-1.969-9.842,6.076-10.945c12.324-1.687,16.69-4.158,24.089-6.053s9.242,1.362,8.559,7.459-18.219,11.249-18.219,11.249Z" transform="translate(8.134 11.814)" fill="#4444d6"/>
    <g id="Grupo_25726" data-name="Grupo 25726" transform="translate(378.767 380.097)">
      <path id="Trazado_53716" data-name="Trazado 53716" d="M421.739,453.045s12.662.421,12.418-1.23-19.382-84.329-19.382-84.329h0A133.79,133.79,0,0,0,380.4,376.9h0l-8.666,45.914,9.081,30.225h40.921Z" transform="translate(-371.737 -367.486)" fill="#fff"/>
      <g id="Grupo_25725" data-name="Grupo 25725">
        <path id="Trazado_53717" data-name="Trazado 53717" d="M414.5,397.015c-3.553-16.282-6.45-29.529-6.45-29.529h0c-.553.056-1.115.125-1.678.2,1.5,38.8,3.483,67.786,4.007,85.362h4.634s1.9-4.739,4.217-10.64Z" transform="translate(-365.016 -367.486)" fill="#dddee8"/>
        <path id="Trazado_53718" data-name="Trazado 53718" d="M382.129,374.728c-.584.252-1.161.509-1.725.771h0l-8.666,45.914,9.081,30.225h7.167C387.711,440.068,386.091,414.384,382.129,374.728Z" transform="translate(-371.737 -366.081)" fill="#dddee8"/>
      </g>
      <path id="Trazado_53719" data-name="Trazado 53719" d="M381.956,375.325c.455,6.671,2.922,21.968,16,21.716,12.125-.234,12.666-18.986,12.049-29.266a118.987,118.987,0,0,0-14.571,3.176A128.8,128.8,0,0,0,381.956,375.325Z" transform="translate(-369.754 -367.43)" fill="#eb9f86"/>
    </g>
    <g id="Grupo_25729" data-name="Grupo 25729" transform="translate(420.563 378.854)">
      <path id="Trazado_53720" data-name="Trazado 53720" d="M407.781,367.533c.74,11.143,4.731,35.174,6.964,85.559h31.8s-8.253-42.422-10.82-65.714C433.831,370.219,422.782,366,407.781,367.533Z" transform="translate(-406.539 -366.291)" fill="#3baca0"/>
      <path id="Trazado_53721" data-name="Trazado 53721" d="M437.547,414.5l-14.252-.57-5.681-6.58s5.235,18.294,24.189,22.837C440.963,422.193,438.951,413.689,437.547,414.5Z" transform="translate(-404.631 -358.508)" fill="#269189"/>
      <g id="Grupo_25727" data-name="Grupo 25727" transform="translate(0.347 0.066)">
        <path id="Trazado_53722" data-name="Trazado 53722" d="M435.867,388.417a.9.9,0,0,1-.888-.8c-1.624-14.714-10.192-20.762-26.961-19.052a.9.9,0,1,1-.181-1.782c17.733-1.808,27.193,4.936,28.922,20.637a.894.894,0,0,1-.792.989A.936.936,0,0,1,435.867,388.417Z" transform="translate(-407.031 -366.5)" fill="#4444d6"/>
      </g>
      <g id="Grupo_25728" data-name="Grupo 25728">
        <path id="Trazado_53723" data-name="Trazado 53723" d="M416.184,453.247c0-.019,0-.037,0-.056-2.418-53.793-6.78-82.809-6.965-85.585a1.242,1.242,0,1,0-2.479.165c.184,2.774,4.542,31.72,6.959,85.477Z" transform="translate(-406.741 -366.445)" fill="#4444d6"/>
      </g>
    </g>
    <g id="Grupo_25730" data-name="Grupo 25730" transform="translate(433.546 404.649)">
      <path id="Trazado_53724" data-name="Trazado 53724" d="M417.614,411.1s5.2,12.9,16.262,11.494,15.407-12.472,12.961-27.083l-21.582-7.459Z" transform="translate(-417.614 -388.048)" fill="#3baca0"/>
    </g>
    <g id="Grupo_25731" data-name="Grupo 25731" transform="translate(433.546 425.294)">
      <path id="Trazado_53725" data-name="Trazado 53725" d="M433.876,419.235c6.835-.868,11.1-5.424,12.789-12.221-2.432-1.864-6.37-2.777-12.509.537-12.739,6.88-16.542.19-16.542.19S422.81,420.642,433.876,419.235Z" transform="translate(-417.614 -405.338)" fill="#269189"/>
    </g>
    <g id="Grupo_25732" data-name="Grupo 25732" transform="translate(432.65 411.21)">
      <path id="Trazado_53726" data-name="Trazado 53726" d="M432.364,422.525c-10.411,0-15.384-12.031-15.437-12.159a.9.9,0,0,1,1.662-.671c.049.123,5.083,12.251,15.32,10.94a12.991,12.991,0,0,0,9.163-5.192c3.432-4.614,4.505-12.02,3.028-20.854a.895.895,0,1,1,1.765-.3c1.561,9.32.369,17.21-3.354,22.218a14.728,14.728,0,0,1-10.376,5.9A14.163,14.163,0,0,1,432.364,422.525Z" transform="translate(-416.863 -393.543)" fill="#4444d6"/>
    </g>
    <g id="Grupo_25733" data-name="Grupo 25733" transform="translate(435.502 404.649)">
      <path id="Trazado_53727" data-name="Trazado 53727" d="M419.252,393.292s.661,22.7,12.986,25.019,19.149-7.7,14.941-22.927L423.9,388.048Z" transform="translate(-419.252 -388.048)" fill="#3baca0"/>
    </g>
    <g id="Grupo_25734" data-name="Grupo 25734" transform="translate(437.843 413.985)">
      <path id="Trazado_53728" data-name="Trazado 53728" d="M447.289,395.867c-2.063,2.479-6.484,5.933-10.333,8.584-6.024,4.148-12.4,2.287-15.743.482,1.809,5.468,5.005,10.8,10.646,11.86C443.633,419.013,450.38,409.955,447.289,395.867Z" transform="translate(-421.212 -395.867)" fill="#269189"/>
    </g>
    <g id="Grupo_25735" data-name="Grupo 25735" transform="translate(434.606 408.996)">
      <path id="Trazado_53729" data-name="Trazado 53729" d="M435.775,418.83a19.27,19.27,0,0,1-3.557-.345c-12.885-2.429-13.689-24.917-13.716-25.874a.9.9,0,0,1,.869-.922.913.913,0,0,1,.921.869c.007.221.784,22,12.258,24.165,4.911.927,8.951-.148,11.675-3.109,3.618-3.933,4.435-10.748,2.238-18.7a.9.9,0,0,1,1.725-.479c2.367,8.559,1.4,15.989-2.646,20.387A12.863,12.863,0,0,1,435.775,418.83Z" transform="translate(-418.502 -391.689)" fill="#4444d6"/>
    </g>
    <g id="Grupo_25736" data-name="Grupo 25736" transform="translate(439.228 404.649)">
      <path id="Trazado_53730" data-name="Trazado 53730" d="M447.447,399.371a36.476,36.476,0,0,0-.873-3.987l-23.281-7.336-.921,1.04.478,1.131s-2.888,13.434,9.217,15.681C441.407,407.634,445.887,402.023,447.447,399.371Z" transform="translate(-422.372 -388.048)" fill="#4444d6"/>
    </g>
    <path id="Trazado_53731" data-name="Trazado 53731" d="M452.116,384.325s3.87,21.96-15.161,22.455c-9.823.257-14.791-9.739-17.3-19.47,0,0-7.189-10.385-4.995-12.656,3.114-3.223,9.561,7.048,9.561,7.048a113.9,113.9,0,0,0,1.094-13.4c.164-7.417-.026-11.552,2.349-11.9,3.388-.491,5,15.482,4.893,21.5,0,0,1.441-20.612,4.34-20.842,3.442-.272,4.342,12.908,2.976,22.114,0,0,1.5-2.608,2.6-9.383s1.694-10.4,3.606-10.281,3.2,13,.965,22.132c0,0,4.062-12.506,6.739-11.851S453.373,379.79,452.116,384.325Z" transform="translate(15.279 10.459)" fill="#eb9f86"/>
    <g id="Grupo_25739" data-name="Grupo 25739" transform="translate(428.954 366.256)">
      <g id="Grupo_25737" data-name="Grupo 25737">
        <path id="Trazado_53732" data-name="Trazado 53732" d="M419.753,388a.6.6,0,0,1-.492-.258c-1.247-1.8-7.346-10.912-4.934-13.409a2.529,2.529,0,0,1,2.155-.793c2.695.281,5.907,4.392,7.457,6.611.283-2.245.763-6.688.875-11.768l.042-2.137c.116-6.419.18-9.955,2.818-10.338a1.794,1.794,0,0,1,1.484.5c1.924,1.694,3.081,7.882,3.654,13.452.761-6.35,2.057-13.133,4.134-13.3a2.041,2.041,0,0,1,1.714.742c2.05,2.195,2.813,9.825,2.408,16.969.308-1.221.622-2.706.91-4.48,1.174-7.28,1.789-10.955,4.232-10.781a1.31,1.31,0,0,1,.972.61c1.446,1.967,2.147,9.333,1.5,16.274,1.509-3.508,3.5-7.031,5.336-6.586a1.716,1.716,0,0,1,1.085.838c1.137,1.965-.144,6.884-1.805,12.633-.189.653-.364,1.261-.515,1.8a.6.6,0,1,1-1.15-.32c.15-.542.327-1.153.517-1.811,1.082-3.748,2.894-10.02,1.92-11.7a.51.51,0,0,0-.338-.277c-1.259-.278-4.149,5.673-6.029,11.454a.589.589,0,0,1-.731.39.6.6,0,0,1-.415-.716c2.209-9,.8-20.74-.467-21.4h-.036c-1.319,0-1.985,4.115-2.9,9.792-1.1,6.8-2.605,9.476-2.668,9.587a.6.6,0,0,1-.714.265.6.6,0,0,1-.394-.652c1.273-8.588.5-18.825-1.593-21.064-.371-.4-.653-.377-.746-.368-1.271.1-3.042,9.583-3.791,20.289a.627.627,0,0,1-.622.555.6.6,0,0,1-.571-.608c.109-6.027-1.339-18.614-3.687-20.684a.624.624,0,0,0-.522-.211c-1.636.238-1.7,3.6-1.8,9.177l-.042,2.142a115.964,115.964,0,0,1-1.1,13.477.6.6,0,0,1-.47.493.586.586,0,0,1-.626-.267c-1.235-1.967-4.983-7.127-7.454-7.384a1.322,1.322,0,0,0-1.173.435c-1.278,1.323,2.189,7.755,5.057,11.9a.6.6,0,0,1-.15.83A.587.587,0,0,1,419.753,388Z" transform="translate(-413.768 -355.894)" fill="#fd7e6a"/>
      </g>
      <g id="Grupo_25738" data-name="Grupo 25738" transform="translate(14.871 21.315)">
        <path id="Trazado_53733" data-name="Trazado 53733" d="M447.743,380.408a.6.6,0,0,1-.295-.078c-9.532-5.432-20.506-5.386-20.623-5.391h-.006a.6.6,0,0,1-.006-1.194c.479.007,11.416-.043,21.225,5.548a.6.6,0,0,1-.295,1.115Z" transform="translate(-426.222 -373.745)" fill="#fd7e6a"/>
      </g>
    </g>
    <g id="Grupo_25752" data-name="Grupo 25752" transform="translate(371.428 313.457)">
      <g id="Grupo_25740" data-name="Grupo 25740" transform="translate(50.452)">
        <circle id="Elipse_1384" data-name="Elipse 1384" cx="11.371" cy="11.371" r="11.371" fill="#401f43"/>
        <path id="Trazado_53734" data-name="Trazado 53734" d="M420.92,333.1c-1.407-8.113-8.535-13.157-12.327-15.305a11.372,11.372,0,0,0,10.621,15.433A11.474,11.474,0,0,0,420.92,333.1Z" transform="translate(-407.843 -310.488)" fill="#2d1630"/>
      </g>
      <g id="Grupo_25741" data-name="Grupo 25741" transform="translate(26.489 59.878)">
        <path id="Trazado_53735" data-name="Trazado 53735" d="M388.37,362.786l-.6,18.771,13.664-.843-.55-18.891Z" transform="translate(-387.774 -361.823)" fill="#eb9f86"/>
        <path id="Trazado_53736" data-name="Trazado 53736" d="M388.09,369.667a22.6,22.6,0,0,0,12.922-1.47l-.185-6.374-12.518.964Z" transform="translate(-387.713 -361.823)" fill="#e5675a"/>
      </g>
      <path id="Trazado_53737" data-name="Trazado 53737" d="M373,337.091a4.4,4.4,0,0,0-6.19.825c-3.118,3.393,0,14.168,6.19,12.7Z" transform="translate(-365.59 -306.925)" fill="#fd7e6a"/>
      <path id="Trazado_53738" data-name="Trazado 53738" d="M371.18,337.432c.227-1.433.5-2.752.786-3.92,3.118-12.564,14.467-19.652,29.621-17.517,13.663,1.926,29.345,11.28,23.476,33.2l-19.9,15.618Z" transform="translate(-364.505 -310.911)" fill="#401f43"/>
      <path id="Trazado_53739" data-name="Trazado 53739" d="M418.523,345.209s3.9,27.052-23.151,27.969c-24.536.832-26.29-23.835-24.078-37.8,0,0,12.248,2.407,18.393-9.148,0,0,6.085,16.14,23.078,18.983,0,0-.566,7.038,1.407,7.642C417.168,353.768,418.523,345.209,418.523,345.209Z" transform="translate(-364.619 -308.852)" fill="#eb9f86"/>
      <g id="Grupo_25742" data-name="Grupo 25742" transform="translate(8.822 17.374)">
        <path id="Trazado_53740" data-name="Trazado 53740" d="M406.972,349.214a1.737,1.737,0,0,0,1.04.579c1.635.26,2.406-2.713,2.762-5.133-.682,2.362-1.883,5.158-3.661,4.614A.979.979,0,0,1,406.972,349.214Z" transform="translate(-366.382 -322.649)" fill="#fd7e6a"/>
        <path id="Trazado_53741" data-name="Trazado 53741" d="M412.234,346.694c.019-.874.068-1.485.068-1.485-16.994-2.843-23.078-18.983-23.078-18.983a17.194,17.194,0,0,1-16.246,9.347,14.85,14.85,0,0,0,16.591-5.928S396.222,344.181,412.234,346.694Z" transform="translate(-372.978 -326.226)" fill="#fd7e6a"/>
      </g>
      <g id="Grupo_25743" data-name="Grupo 25743" transform="translate(7.599 46.638)">
        <circle id="Elipse_1385" data-name="Elipse 1385" cx="5.135" cy="5.135" r="5.135" transform="translate(25.291 7.263) rotate(-45)" fill="#fd7e6a"/>
        <path id="Trazado_53742" data-name="Trazado 53742" d="M374.235,351.329a5.128,5.128,0,0,0-2.281.534,25.508,25.508,0,0,0,4.663,9.151,5.135,5.135,0,0,0-2.382-9.685Z" transform="translate(-371.954 -350.619)" fill="#fd7e6a"/>
      </g>
      <g id="Grupo_25747" data-name="Grupo 25747" transform="translate(52.059 35.985)">
        <path id="Trazado_53743" data-name="Trazado 53743" d="M411.034,342.184s7.509-1.895,9.4,2.873-1.895,13.267-11.249,9.048Z" transform="translate(-409.189 -341.813)" fill="#eb9f86"/>
        <g id="Grupo_25746" data-name="Grupo 25746" transform="translate(1.848 3.031)">
          <g id="Grupo_25744" data-name="Grupo 25744">
            <path id="Trazado_53744" data-name="Trazado 53744" d="M417.387,346.233a.593.593,0,0,1-.224-.044,8.851,8.851,0,0,0-5.636-.325.6.6,0,0,1-.386-1.13,9.873,9.873,0,0,1,6.47.349.6.6,0,0,1-.224,1.15Z" transform="translate(-410.737 -344.351)" fill="#fd7e6a"/>
          </g>
          <g id="Grupo_25745" data-name="Grupo 25745" transform="translate(1.742 0.015)">
            <path id="Trazado_53745" data-name="Trazado 53745" d="M412.793,350.448a.6.6,0,0,1-.424-1.017,5.568,5.568,0,0,0,1.114-4.407.6.6,0,0,1,.533-.654.59.59,0,0,1,.656.533,6.713,6.713,0,0,1-1.457,5.372A.6.6,0,0,1,412.793,350.448Z" transform="translate(-412.196 -344.364)" fill="#fd7e6a"/>
          </g>
        </g>
      </g>
      <g id="Grupo_25748" data-name="Grupo 25748" transform="translate(16.596 31.099)">
        <path id="Trazado_53746" data-name="Trazado 53746" d="M382.733,346.78h-.011c-.905-.011-2.5-.168-3.02-1.1s0-1.687.455-2.359c.147-.217.315-.464.484-.759a17.4,17.4,0,0,0,1.023-4.075.9.9,0,0,1,1.771.266,19.032,19.032,0,0,1-1.239,4.7c-.193.338-.385.623-.554.873-.1.154-.226.334-.3.464a5.216,5.216,0,0,0,1.4.2.9.9,0,0,1-.011,1.791Z" transform="translate(-379.489 -337.721)" fill="#fd7e6a"/>
      </g>
      <g id="Grupo_25749" data-name="Grupo 25749" transform="translate(28.298 34.315)">
        <path id="Trazado_53747" data-name="Trazado 53747" d="M396.01,344.6a9.461,9.461,0,0,1-6.475-2.67.9.9,0,0,1,1.3-1.235,7.541,7.541,0,0,0,7.894,1.611.9.9,0,0,1,.614,1.684A9.666,9.666,0,0,1,396.01,344.6Z" transform="translate(-389.289 -340.414)" fill="#291018"/>
      </g>
      <g id="Grupo_25750" data-name="Grupo 25750" transform="translate(6.152 31.748)">
        <path id="Trazado_53748" data-name="Trazado 53748" d="M376.125,341.829a8.164,8.164,0,0,1-5.1-2.014.9.9,0,0,1,1.216-1.315h0c.111.1,2.755,2.467,5.821,1.121a.9.9,0,0,1,.718,1.642A6.578,6.578,0,0,1,376.125,341.829Z" transform="translate(-370.742 -338.264)" fill="#291018"/>
      </g>
      <g id="Grupo_25751" data-name="Grupo 25751" transform="translate(17.774 43.698)">
        <path id="Trazado_53749" data-name="Trazado 53749" d="M381.373,351.638a.9.9,0,0,1-.468-1.66c.172-.105,4.285-2.541,11.5-1.4a.9.9,0,0,1-.281,1.771c-6.517-1.033-10.252,1.144-10.289,1.165A.887.887,0,0,1,381.373,351.638Z" transform="translate(-380.476 -348.272)" fill="#e33e4e"/>
      </g>
    </g>
    <g id="Grupo_25756" data-name="Grupo 25756" transform="translate(355.454 388.273)">
      <path id="Trazado_53750" data-name="Trazado 53750" d="M384.192,375.375c-12.88,6.011-20.967,15.31-26.274,35.735-7.336,28.245-5.5,40.4-5.5,40.4h32.19C388.264,402.293,385.341,390.894,384.192,375.375Z" transform="translate(-352.212 -374.132)" fill="#62cca2"/>
      <path id="Trazado_53751" data-name="Trazado 53751" d="M366.883,400.86c-7.279,28.718-7.091,35.942-6.952,45.709h5.714C369.359,417.04,366.883,400.86,366.883,400.86Z" transform="translate(-350.722 -369.186)" fill="#58bc91"/>
      <g id="Grupo_25753" data-name="Grupo 25753" transform="translate(4.81 0.347)">
        <path id="Trazado_53752" data-name="Trazado 53752" d="M357.138,412.151a.862.862,0,0,1-.226-.03.9.9,0,0,1-.642-1.091c5.07-19.515,12.572-29.7,26.761-36.322a.9.9,0,0,1,.758,1.624C370.15,382.7,362.92,392.552,358,411.48A.9.9,0,0,1,357.138,412.151Z" transform="translate(-356.241 -374.625)" fill="#4444d6"/>
      </g>
      <g id="Grupo_25754" data-name="Grupo 25754" transform="translate(30.737)">
        <path id="Trazado_53753" data-name="Trazado 53753" d="M378.372,451.629c0,.03,0,.059,0,.087h2.481c3.759-53.6.019-70.3-.42-76.231a1.242,1.242,0,0,0-2.478.183C378.4,381.582,382.127,398.179,378.372,451.629Z" transform="translate(-377.954 -374.334)" fill="#4444d6"/>
      </g>
      <path id="Trazado_53754" data-name="Trazado 53754" d="M364.71,439.141" transform="translate(-349.787 -361.758)" fill="none" stroke="#4c2e6d" stroke-linecap="round" stroke-linejoin="round" stroke-width="1.5"/>
      <g id="Grupo_25755" data-name="Grupo 25755" transform="translate(14.082 30.775)">
        <path id="Trazado_53755" data-name="Trazado 53755" d="M364.9,447.168a.865.865,0,0,1-.11-.007.9.9,0,0,1-.78-1c3.583-29.2,1.2-44.59,1.177-45.113a.9.9,0,0,1,.853-.937.872.872,0,0,1,.936.853c.025.527,2.413,16.068-1.188,45.417A.9.9,0,0,1,364.9,447.168Z" transform="translate(-364.006 -400.107)" fill="#4444d6"/>
      </g>
    </g>
    <path id="Trazado_53756" data-name="Trazado 53756" d="M371.492,335.638c.056,1.734,6.565,2.8,7.395,1.276S371.42,333.4,371.492,335.638Z" transform="translate(6.983 6.236)" fill="#401f43"/>
    <path id="Trazado_53757" data-name="Trazado 53757" d="M389.685,337.745c.307,1.707,6.9,1.824,7.5.192S389.29,335.543,389.685,337.745Z" transform="translate(10.511 6.575)" fill="#401f43"/>
    <circle id="Elipse_1386" data-name="Elipse 1386" cx="3.328" cy="3.328" r="3.328" transform="translate(482.379 407.314) rotate(-79.481)" fill="#c5dbee"/>
    <circle id="Elipse_1387" data-name="Elipse 1387" cx="4.723" cy="4.723" r="4.723" transform="translate(335.506 446.982)" fill="#c5dbee"/>
    <path id="Trazado_53758" data-name="Trazado 53758" d="M454.814,401.675a2.08,2.08,0,1,1-2.08-2.08A2.08,2.08,0,0,1,454.814,401.675Z" transform="translate(22.344 18.841)" fill="none" stroke="#badfff" stroke-miterlimit="10" stroke-width="1"/>
    <circle id="Elipse_1388" data-name="Elipse 1388" cx="2.467" cy="2.467" r="2.467" transform="translate(349.065 356.19)" fill="#c5dbee" stroke="#badfff" stroke-miterlimit="10" stroke-width="1"/>
    <path id="Trazado_53759" data-name="Trazado 53759" d="M411.743,303.869a1.374,1.374,0,1,1-1.374-1.374A1.374,1.374,0,0,1,411.743,303.869Z" transform="translate(14.26)" fill="#c5dbee"/>
    <path id="Trazado_53760" data-name="Trazado 53760" d="M450.361,324.485a1.387,1.387,0,1,1-1.387-1.386A1.387,1.387,0,0,1,450.361,324.485Z" transform="translate(21.748 3.998)" fill="#c5dbee" stroke="#badfff" stroke-miterlimit="10" stroke-width="1"/>
  </g>
</svg>
