<svg xmlns="http://www.w3.org/2000/svg" width="32.986" height="42.354" viewBox="0 0 32.986 42.354">
  <g id="Grupo_25847" data-name="Grupo 25847" transform="translate(-446.891 -109.569)">
    <path id="Trazado_54298" data-name="Trazado 54298" d="M463.384,109.569c-5.365,5.523-16.493,18.165-16.493,25.861a16.493,16.493,0,0,0,32.986,0c0-7.7-11.128-20.339-16.493-25.861Zm0,39.855A14.01,14.01,0,0,1,449.39,135.43c0-6.273,9.68-17.609,13.995-22.251,4.323,4.651,13.994,15.989,13.994,22.251a14.01,14.01,0,0,1-13.995,13.994Z" fill="#111e61"/>
    <path id="Trazado_54299" data-name="Trazado 54299" d="M457.762,128.185a4.378,4.378,0,0,0-4.373,4.373v8.121h2.5v-3.748h3.748v3.748h2.5v-8.121A4.378,4.378,0,0,0,457.762,128.185Zm-1.874,6.247v-1.874a1.874,1.874,0,1,1,3.748,0v1.874Z" fill="#111e61"/>
    <path id="Trazado_54300" data-name="Trazado 54300" d="M473.379,131.933a3.752,3.752,0,0,0-3.748-3.748h-5v12.494h5a3.746,3.746,0,0,0,2.791-6.247A3.733,3.733,0,0,0,473.379,131.933Zm-6.246-1.249h2.5a1.249,1.249,0,1,1,0,2.5h-2.5Zm2.5,7.5h-2.5v-2.5h2.5a1.249,1.249,0,1,1,0,2.5Z" fill="#111e61"/>
  </g>
</svg>
