<svg xmlns="http://www.w3.org/2000/svg" width="76.084" height="76.083" viewBox="0 0 76.084 76.083">
  <g id="Grupo_25494" data-name="Grupo 25494" transform="translate(-672.674 -109.639)">
    <circle id="Elipse_1359" data-name="Elipse 1359" cx="38.042" cy="38.042" r="38.042" transform="translate(672.674 109.639)" fill="#f2f2f2"/>
    <g id="Grupo_25493" data-name="Grupo 25493">
      <g id="Grupo_25491" data-name="Grupo 25491">
        <path id="Trazado_53287" data-name="Trazado 53287" d="M729.338,134.884h-6.826l-2.722-3.122h-7.463a13.677,13.677,0,0,1-1.4-5.663c0-2.752-.952-2.9-3.04-3.136,0,0,1.627-4.846,4.208-7.147,2.753-2.454,4.169-2.166,4.169-3.67a1.955,1.955,0,0,0-2.2-1.939c-1.218,0-2.757,1.339-4.447,2.805-.978.849-2.09,2.006-3.905,1.714a.986.986,0,0,0-1.083.607c-.286.728-.766,1.678-1.318,1.678a2.885,2.885,0,0,1-1.5-.632,1,1,0,0,0-1.185.01c-.878.649-2.231,2.208-1.924,5.55a11.906,11.906,0,0,0-3.716,2.479.6.6,0,0,0-.041.825l-2.786.321h0a.762.762,0,0,0-.655.927,3.28,3.28,0,0,1-1.09,3.422.761.761,0,0,0-.209.9,26.324,26.324,0,0,1,1.753,5.369c.5,2.314-.52,4.583-.628,6.027a1.759,1.759,0,0,0,.156.742l1.5.726c.011.216.021.419.029.592l1.115-.04.083.04.013-.044,35.386-1.274a5.97,5.97,0,0,1-.444-1.794,13.528,13.528,0,0,1,.821-5.342A.7.7,0,0,0,729.338,134.884Z" fill="#ffe266"/>
        <path id="Trazado_53288" data-name="Trazado 53288" d="M731.31,149.834a13.1,13.1,0,0,0-1.949-1.973l1.532-1.132a1.069,1.069,0,0,0,.149-1.588,7.425,7.425,0,0,1-1.429-2.186H691.486a6.908,6.908,0,0,0,.816,1.386l-2.624,4.544a3.132,3.132,0,0,0-2.385.72,3.75,3.75,0,0,0-1.007,3.057,1.589,1.589,0,0,0,.725,1.278l5.632,3.651a1.588,1.588,0,0,0,1.024.248,11.791,11.791,0,0,1,5.009.607l3.638,1.318h0l18.452-1.317.088-.989h2.32a1.015,1.015,0,0,0,1.029-.958.989.989,0,0,0-.988-1.019H721.03l.266-3.011Z" fill="#6b6bd6"/>
        <path id="Trazado_53289" data-name="Trazado 53289" d="M720.656,159.7l.111-1.255H698.676a9.644,9.644,0,0,1,2.01,1,18.02,18.02,0,0,1,6.721,8.226,2.712,2.712,0,0,0,3.581,1.38,8.488,8.488,0,0,1,4.228-1.029,5.026,5.026,0,0,1,3.539,1.312l-2.081,3.847a.624.624,0,0,0,.549.921h2.025l.631.717a.623.623,0,0,0,1.072-.256c.205-.79.5-1.911.8-3.1h0l1.39-5.362A5.766,5.766,0,0,0,720.656,159.7Z" fill="#e33e4e"/>
        <path id="Trazado_53290" data-name="Trazado 53290" d="M729.875,142.955h.007a5.97,5.97,0,0,1-.444-1.794,13.529,13.529,0,0,1,.821-5.342.7.7,0,0,0-.652-.935H722.78l-2.722-3.122h-7.463a13.678,13.678,0,0,1-1.4-5.663c0-2.6-.866-2.872-2.728-3.1v19.953Z" fill="#edd15a"/>
        <g id="Grupo_25490" data-name="Grupo 25490">
          <path id="Trazado_53291" data-name="Trazado 53291" d="M708.467,122.125c-.2.515-.312.838-.312.838.112.013.207.026.312.039Z" fill="#ffe266"/>
          <path id="Trazado_53292" data-name="Trazado 53292" d="M716.532,112.146a1.955,1.955,0,0,0-2.2-1.939c-1.218,0-2.757,1.339-4.447,2.805a12.847,12.847,0,0,1-1.418,1.142v7.971c.589-1.487,1.978-4.6,3.9-6.309C715.116,113.362,716.532,113.65,716.532,112.146Z" fill="#edd15a"/>
          <path id="Trazado_53293" data-name="Trazado 53293" d="M731.578,149.834a13.047,13.047,0,0,0-1.949-1.973l1.532-1.132a1.069,1.069,0,0,0,.149-1.588,7.446,7.446,0,0,1-1.429-2.186H708.467v15.492h12.568l.088-.989h2.32a1.015,1.015,0,0,0,1.029-.958.989.989,0,0,0-.987-1.019H721.3l.266-3.011Z" fill="#6161bc"/>
        </g>
        <path id="Trazado_53294" data-name="Trazado 53294" d="M720.924,159.7l.111-1.255H708.467v10.237a2.713,2.713,0,0,0,2.789.368,8.491,8.491,0,0,1,4.228-1.029,5.03,5.03,0,0,1,3.54,1.312l-2.082,3.847a.624.624,0,0,0,.549.921h2.025l.631.717a.624.624,0,0,0,1.073-.256c.2-.79.5-1.911.8-3.1h0c.532-2.052,1.115-4.3,1.39-5.362A5.766,5.766,0,0,0,720.924,159.7Z" fill="#bf2e43"/>
      </g>
      <g id="Grupo_25492" data-name="Grupo 25492">
        <path id="Trazado_53295" data-name="Trazado 53295" d="M731.477,117.381c-2.3-3.534-4.572-6.34-4.668-6.457a1.609,1.609,0,0,0-2.5,0c-.1.119-2.362,2.948-4.665,6.492-3.25,5-4.83,8.69-4.83,11.274a10.749,10.749,0,0,0,21.5,0C736.309,126.1,734.683,122.3,731.477,117.381Z" fill="#e33e4e"/>
        <path id="Trazado_53296" data-name="Trazado 53296" d="M736.309,128.7A10.762,10.762,0,0,1,725.6,139.445V110.329a1.6,1.6,0,0,1,1.209.594c.095.118,2.364,2.924,4.669,6.458,3.2,4.915,4.831,8.722,4.831,11.315Z" fill="#bf2e43"/>
        <path id="Trazado_53297" data-name="Trazado 53297" d="M728.221,127.142h-1.013v-1.024a1.608,1.608,0,0,0-3.216,0v1.024h-1.013a1.608,1.608,0,1,0,0,3.216h1.013v1.024a1.608,1.608,0,1,0,3.216,0v-1.024h1.013a1.608,1.608,0,0,0,0-3.216Z" fill="#e4edef"/>
        <path id="Trazado_53298" data-name="Trazado 53298" d="M729.83,128.75a1.609,1.609,0,0,1-1.608,1.608h-1.013v1.024a1.609,1.609,0,0,1-1.609,1.608v-8.481a1.61,1.61,0,0,1,1.609,1.608v1.025h1.013A1.609,1.609,0,0,1,729.83,128.75Z" fill="#bfdfe7"/>
      </g>
    </g>
  </g>
</svg>
