<svg xmlns="http://www.w3.org/2000/svg" width="41.256" height="40.985" viewBox="0 0 41.256 40.985">
  <g id="Grupo_25637" data-name="Grupo 25637" transform="translate(-193.564 -331.424)">
    <path id="Trazado_53556" data-name="Trazado 53556" d="M199.447,337.241a1.009,1.009,0,0,0-1.007,1.008v3.216a1.008,1.008,0,0,0,1.007,1.007H219.71a1.008,1.008,0,0,0,1.007-1.007v-3.216a1.009,1.009,0,0,0-1.007-1.008Zm20.062,4.022H199.648V338.45h19.861Z" fill="#111e61"/>
    <path id="Trazado_53557" data-name="Trazado 53557" d="M205.943,362.581a.6.6,0,1,0,0-1.209h-6.9a.6.6,0,0,0,0,1.209Z" fill="#111e61"/>
    <path id="Trazado_53558" data-name="Trazado 53558" d="M225.593,348.1v-6.982a.6.6,0,1,0-1.209,0v6.74a12.205,12.205,0,0,0-1.721-.131h-.052a12.149,12.149,0,0,0-1.894.148v-1.584a1.008,1.008,0,0,0-1.007-1.007H199.447a1.008,1.008,0,0,0-1.007,1.007v3.216a1.008,1.008,0,0,0,1.007,1.007h15.436q-.46.382-.887.811a12.5,12.5,0,0,0-1.614,2h-6.651a.6.6,0,0,0,0,1.209h5.962a12.317,12.317,0,0,0-.993,2.813H199.648v-2.813h3.263a.6.6,0,0,0,0-1.209h-3.464a1.009,1.009,0,0,0-1.007,1.008v3.216a1.008,1.008,0,0,0,1.007,1.007h11.048a12.587,12.587,0,0,0-.091,1.459,12.364,12.364,0,0,0,3.127,8.288H194.974a.2.2,0,0,1-.2-.2V332.834a.2.2,0,0,1,.2-.2h29.209a.2.2,0,0,1,.2.2V338.3a.6.6,0,0,0,1.209,0v-5.465a1.412,1.412,0,0,0-1.41-1.41H194.974a1.412,1.412,0,0,0-1.41,1.41v35.271a1.412,1.412,0,0,0,1.41,1.41h19.793a12.07,12.07,0,0,0,7.795,2.893h.051a12.063,12.063,0,0,0,8.615-3.6,12.4,12.4,0,0,0-5.635-20.71Zm-25.945,1.206v-2.813h19.861v1.635a11.97,11.97,0,0,0-2.881,1.178Zm30.723,18.652a10.866,10.866,0,0,1-7.758,3.241h-.046a11.16,11.16,0,0,1-7.713-19.022,10.861,10.861,0,0,1,7.757-3.241h.047a11.16,11.16,0,0,1,7.713,19.022Z" fill="#111e61"/>
    <path id="Trazado_53559" data-name="Trazado 53559" d="M231.314,361.072a.6.6,0,0,0-.7.487,8.144,8.144,0,1,1-8-9.723,8.065,8.065,0,0,1,5.361,2.042,8.246,8.246,0,0,1,2.694,5.05.6.6,0,0,0,1.2-.164,9.46,9.46,0,0,0-3.09-5.79,9.272,9.272,0,0,0-6.163-2.346,9.441,9.441,0,1,0,9.189,11.146.6.6,0,0,0-.487-.7Z" fill="#111e61"/>
    <path id="Trazado_53560" data-name="Trazado 53560" d="M222.612,353.919a.6.6,0,0,0-.6.6v5.545a.6.6,0,0,0,.6.605h3.757a.6.6,0,0,0,0-1.209h-3.152v-4.941A.6.6,0,0,0,222.612,353.919Z" fill="#111e61"/>
  </g>
</svg>
