<svg xmlns="http://www.w3.org/2000/svg" width="76.084" height="79.357" viewBox="0 0 76.084 79.357">
  <g id="Grupo_25724" data-name="Grupo 25724" transform="translate(-501.927 -274.277)">
    <circle id="Elipse_1362" data-name="Elipse 1362" cx="38.042" cy="38.042" r="38.042" transform="translate(501.927 277.551)" fill="#f2f2f2"/>
    <g id="Hearth_report" data-name="Hearth report">
      <path id="Trazado_53699" data-name="Trazado 53699" d="M562.409,281.762V341.6H526.257v-9.973H517.53V281.762Z" fill="#efeadd"/>
      <path id="Trazado_53700" data-name="Trazado 53700" d="M517.53,310.434v21.192h8.727V341.6h24.932C532.584,341.6,517.53,326.282,517.53,310.434Z" fill="#d1cdc1"/>
      <path id="Trazado_53701" data-name="Trazado 53701" d="M517.53,331.626l8.727,9.973v-9.973Z" fill="#4444d6"/>
      <path id="Trazado_53702" data-name="Trazado 53702" d="M567.4,341.6V286.748a4.986,4.986,0,0,0-4.986-4.986V341.6H526.257l-8.727-9.973V281.762a4.986,4.986,0,0,0-4.986,4.986V341.6a4.986,4.986,0,0,0,4.986,4.987h44.879A4.987,4.987,0,0,0,567.4,341.6Z" fill="#808285"/>
      <path id="Trazado_53703" data-name="Trazado 53703" d="M565.8,345.252a5,5,0,0,1-3.39,1.334H517.53a4.986,4.986,0,0,1-4.986-4.987V286.748a4.986,4.986,0,0,1,4.089-4.9,4.945,4.945,0,0,0-1.6,3.652v54.852a4.986,4.986,0,0,0,4.987,4.986H564.9A4.224,4.224,0,0,0,565.8,345.252Z" fill="#6d6e71"/>
      <path id="Trazado_53704" data-name="Trazado 53704" d="M551.189,286.748v-4.986a2.494,2.494,0,0,0-2.493-2.494h-1.783a2.419,2.419,0,0,1-2.244-1.68,4.986,4.986,0,0,0-9.392,0,2.418,2.418,0,0,1-2.251,1.68h-1.783a2.494,2.494,0,0,0-2.493,2.494v4.986Z" fill="#6b6bd6"/>
      <path id="Trazado_53705" data-name="Trazado 53705" d="M525.01,301.708h29.919v4.986H525.01Z" fill="#e33e4e"/>
      <path id="Trazado_53706" data-name="Trazado 53706" d="M538.723,297.968h2.493v-2.494h2.493v-2.493h-2.493v-2.493h-2.493v2.493H536.23v2.493h2.493Z" fill="#e33e4e"/>
      <g id="Grupo_25723" data-name="Grupo 25723">
        <path id="Trazado_53707" data-name="Trazado 53707" d="M526.257,310.434h2.493v2.493h-2.493Z" fill="#aacce9"/>
        <path id="Trazado_53708" data-name="Trazado 53708" d="M526.257,315.42h2.493v2.494h-2.493Z" fill="#aacce9"/>
        <path id="Trazado_53709" data-name="Trazado 53709" d="M531.243,310.434h22.439v2.493H531.243Z" fill="#aacce9"/>
        <path id="Trazado_53710" data-name="Trazado 53710" d="M531.243,315.42h22.439v2.494H531.243Z" fill="#aacce9"/>
        <path id="Trazado_53711" data-name="Trazado 53711" d="M526.257,320.407h2.493V322.9h-2.493Z" fill="#aacce9"/>
        <path id="Trazado_53712" data-name="Trazado 53712" d="M531.243,320.407h22.439V322.9H531.243Z" fill="#aacce9"/>
      </g>
      <path id="Trazado_53713" data-name="Trazado 53713" d="M532.49,329.133h19.946v7.48H532.49Z" fill="#ffd400"/>
    </g>
  </g>
</svg>
