<svg xmlns="http://www.w3.org/2000/svg" width="104" height="104" viewBox="0 0 104 104">
  <g id="Grupo_25299" data-name="Grupo 25299" transform="translate(-300 -1280)">
    <circle id="Elipse_1349" data-name="Elipse 1349" cx="52" cy="52" r="52" transform="translate(300 1280)" fill="#fff"/>
    <g id="Grupo_25298" data-name="Grupo 25298" transform="translate(164.657 1261.714)">
      <g id="Grupo_25294" data-name="Grupo 25294" transform="translate(148.343 57.45)">
        <g id="Grupo_25293" data-name="Grupo 25293">
          <g id="Grupo_25292" data-name="Grupo 25292">
            <path id="Trazado_52939" data-name="Trazado 52939" d="M202.733,54.139h-45.35a9.041,9.041,0,0,0-9.04,9.042V81.564a9.04,9.04,0,0,0,9.04,9.04h2.4V104.8a.753.753,0,0,0,1.332.482L173.349,90.6h20.343a9.041,9.041,0,0,0,9.042-9.04Z" transform="translate(-148.343 -54.139)" fill="#ffc800"/>
          </g>
        </g>
      </g>
      <g id="Grupo_25296" data-name="Grupo 25296" transform="translate(175.538 57.45)">
        <g id="Grupo_25295" data-name="Grupo 25295">
          <path id="Trazado_52940" data-name="Trazado 52940" d="M199.155,54.139V81.564a9.04,9.04,0,0,1-9.042,9.04H171.96V54.139Z" transform="translate(-171.96 -54.139)" fill="#f4ba00"/>
        </g>
      </g>
      <path id="Trazado_52941" data-name="Trazado 52941" d="M191.075,71.675H157.924a2.26,2.26,0,1,0,0,4.52h33.151a2.26,2.26,0,1,0,0-4.52Z" transform="translate(1.109 5.968)" fill="#ffe59c"/>
      <path id="Trazado_52942" data-name="Trazado 52942" d="M190.867,73.935a2.26,2.26,0,0,1-2.26,2.259H171.96v-4.52h16.646A2.261,2.261,0,0,1,190.867,73.935Z" transform="translate(3.578 5.968)" fill="#dda300"/>
      <path id="Trazado_52943" data-name="Trazado 52943" d="M157.924,68.344h25.624a2.26,2.26,0,1,0,0-4.521H157.924a2.26,2.26,0,1,0,0,4.521Z" transform="translate(1.109 4.778)" fill="#ffe59c"/>
      <path id="Trazado_52944" data-name="Trazado 52944" d="M183.34,66.083a2.261,2.261,0,0,1-2.26,2.26h-9.12V63.823h9.12A2.261,2.261,0,0,1,183.34,66.083Z" transform="translate(3.578 4.778)" fill="#dda300"/>
      <circle id="Elipse_1350" data-name="Elipse 1350" cx="15.822" cy="15.822" r="15.822" transform="translate(184.658 41.327)" fill="#e43539"/>
      <path id="Trazado_52945" data-name="Trazado 52945" d="M209.442,55.96A15.839,15.839,0,0,1,193.62,71.781V40.138A15.839,15.839,0,0,1,209.442,55.96Z" transform="translate(6.86 1.19)" fill="#e33e4e"/>
      <path id="Trazado_52946" data-name="Trazado 52946" d="M193.566,48.111l-2.26.754a2.26,2.26,0,0,0,.715,4.4v6.012a2.26,2.26,0,1,0,4.52,0V50.256a2.261,2.261,0,0,0-2.974-2.144Z" transform="translate(6.275 2.38)" fill="#e9f3fb"/>
      <path id="Trazado_52947" data-name="Trazado 52947" d="M195.956,50.257v9.026a2.262,2.262,0,0,1-2.26,2.26h-.076V48a2.263,2.263,0,0,1,2.336,2.26Z" transform="translate(6.86 2.38)" fill="#d6e9f8"/>
      <path id="Trazado_52948" data-name="Trazado 52948" d="M193.924,32.286a2.261,2.261,0,0,0-2.26,2.26v2.418a2.26,2.26,0,1,0,4.521,0V34.546A2.261,2.261,0,0,0,193.924,32.286Z" transform="translate(6.563 0)" fill="#e43539"/>
      <path id="Trazado_52949" data-name="Trazado 52949" d="M195.888,34.546v2.418a2.261,2.261,0,0,1-2.26,2.26h-.008V32.286h.008A2.261,2.261,0,0,1,195.888,34.546Z" transform="translate(6.86 0)" fill="#e43539"/>
      <path id="Trazado_52950" data-name="Trazado 52950" d="M181.454,38.765a2.26,2.26,0,1,0-3.2,3.2l1.71,1.711a2.26,2.26,0,0,0,3.2-3.2Z" transform="translate(4.432 0.881)" fill="#e43539"/>
      <g id="Grupo_25297" data-name="Grupo 25297" transform="translate(212.687 39.005)">
        <path id="Trazado_52951" data-name="Trazado 52951" d="M208.08,65.427a2.26,2.26,0,0,0-3.2,3.2l1.71,1.71a2.26,2.26,0,0,0,3.2-3.2Z" transform="translate(-204.221 -34.084)" fill="#e33e4e"/>
        <path id="Trazado_52952" data-name="Trazado 52952" d="M214,52.19h-2.418a2.26,2.26,0,1,0,0,4.52H214a2.26,2.26,0,1,0,0-4.52Z" transform="translate(-203.449 -35.989)" fill="#e33e4e"/>
        <path id="Trazado_52953" data-name="Trazado 52953" d="M208.1,43.69l1.71-1.71a2.26,2.26,0,0,0-3.2-3.2l-1.71,1.71a2.26,2.26,0,1,0,3.2,3.2Z" transform="translate(-204.219 -38.121)" fill="#e33e4e"/>
      </g>
    </g>
  </g>
</svg>
