<svg xmlns="http://www.w3.org/2000/svg" width="45.034" height="41.291" viewBox="0 0 45.034 41.291">
  <g id="outline" transform="translate(-106.078 -392.411)">
    <path id="Trazado_53545" data-name="Trazado 53545" d="M112.3,433.482a.751.751,0,0,0,1.062,0l2.251-2.252a.75.75,0,0,0,0-1.061l-.875-.875,3.067-3.067,2,2a.75.75,0,0,0,1.061,0l2.252-2.252a.75.75,0,0,0,0-1.061l-.97-.971,12.338-12.338,1.5-3.752,2.673-2.674-1.5-1.5,9.977-9.977a.75.75,0,1,0-1.042-1.08l-.019.018-9.977,9.978-1.5-1.5-2.674,2.674-3.753,1.5-12.338,12.338-.97-.97a.751.751,0,0,0-1.062,0l-2.251,2.251a.751.751,0,0,0,0,1.062l2.01,2.01-3.067,3.067-.884-.885a.751.751,0,0,0-1.062,0l-2.251,2.252a.75.75,0,0,0,0,1.061Zm24.239-28.3-1.191,1.19-1.941-1.941,1.191-1.19ZM118.087,417.5l1.721,1.721,1.061-1.061-1.721-1.721,1.191-1.191,2.471,2.472,1.062-1.061-2.472-2.472,1.19-1.19,1.721,1.721,1.062-1.062-1.721-1.721,1.19-1.19,2.472,2.471,1.061-1.061-2.472-2.471,1.191-1.191,1.721,1.721,1.061-1.061-1.721-1.721.862-.862,3.152-1.26,2.3,2.3-1.26,3.152-12.122,12.118L116.9,418.69Zm-3.753.751,7.195,7.2-1.19,1.19-7.195-7.195Zm.289,4.792,2.123,2.123-3.067,3.066-2.122-2.122Zm-5.543,2.713,4.943,4.944-1.19,1.19-4.943-4.943Z" fill="#111e61"/>
    <path id="Trazado_53546" data-name="Trazado 53546" d="M146.783,397.944c-.531.635-3.176,3.9-3.176,5.735a3.753,3.753,0,1,0,7.505,0c0-1.838-2.646-5.1-3.176-5.735a.776.776,0,0,0-1.1-.056A.74.74,0,0,0,146.783,397.944Zm.576,7.987a2.252,2.252,0,0,1-2.251-2.252c0-.8,1.177-2.649,2.251-4.053,1.074,1.4,2.252,3.244,2.252,4.053A2.252,2.252,0,0,1,147.359,405.931Z" fill="#111e61"/>
    <path id="Trazado_53547" data-name="Trazado 53547" d="M139.1,414.938a3.753,3.753,0,0,0,7.506,0c0-1.838-2.646-5.1-3.177-5.736a.776.776,0,0,0-1.1-.055c-.019.017-.038.036-.056.055C141.749,409.838,139.1,413.1,139.1,414.938Zm6.005,0a2.252,2.252,0,0,1-4.5,0c0-.806,1.178-2.649,2.252-4.054C143.93,412.287,145.108,414.131,145.108,414.938Z" fill="#111e61"/>
  </g>
</svg>
