<svg xmlns="http://www.w3.org/2000/svg" width="41.414" height="41.356" viewBox="0 0 41.414 41.356">
  <g id="Grupo_25645" data-name="Grupo 25645" transform="translate(-173.243 -391.846)">
    <path id="Trazado_53574" data-name="Trazado 53574" d="M212.221,413.713v-4.872h2.436v-5.592l-20.707-11.4-20.707,11.4v5.592h2.436v4.872h2.436v12.18h-4.872V433.2h41.414v-7.309h-4.872v-12.18Zm-2.436-2.436h-7.308v-2.436h7.308Zm-21.925-2.436h12.18v4.872h2.437v12.181H185.424V413.713h2.436Zm-12.181-4.153,18.271-10.061,18.271,10.061V406.4H175.679Zm2.436,4.153h7.309v2.436h-7.309Zm2.436,4.872h2.437v12.181h-2.437Zm31.67,14.617v2.436H175.679V428.33Zm-4.872-2.436h-2.436V413.713h2.436Z" fill="#111e61"/>
    <path id="Trazado_53575" data-name="Trazado 53575" d="M193.95,423.457a4.324,4.324,0,0,0,4.319-4.318c0-2.553-4.192-7.129-4.319-7.327-1.371,1.644-4.319,5.128-4.319,7.327A4.324,4.324,0,0,0,193.95,423.457Zm0-7.757c.458.624,1.883,2.663,1.883,3.439a1.882,1.882,0,0,1-3.765,0C192.068,418.365,193.489,416.33,193.95,415.7Z" fill="#111e61"/>
    <path id="Trazado_53576" data-name="Trazado 53576" d="M192.732,403.968h2.436v-1.827h1.827V399.7h-1.827v-1.827h-2.436V399.7H190.9v2.436h1.827Z" fill="#111e61"/>
  </g>
</svg>
