<svg xmlns="http://www.w3.org/2000/svg" width="788" height="91.546" viewBox="0 0 788 91.546">
  <g id="Grupo_25624" data-name="Grupo 25624" transform="translate(-235 -6518.204)">
    <g id="Grupo_25615" data-name="Grupo 25615" transform="translate(46 4615.908)">
      <g id="Grupo_20664" data-name="Grupo 20664" transform="translate(-95 46)">
        <circle id="Elipse_1195" data-name="Elipse 1195" cx="30" cy="30" r="30" transform="translate(284 1863)" fill="#e23445"/>
        <text id="_1" data-name="1" transform="translate(305 1874.5)" fill="#fff" font-size="30" font-family="Roboto-Black, Roboto" font-weight="800"><tspan x="0" y="31">1</tspan></text>
      </g>
    </g>
    <g id="Grupo_25616" data-name="Grupo 25616" transform="translate(137 4615.908)">
      <g id="Grupo_20664-2" data-name="Grupo 20664" transform="translate(-95 46)">
        <circle id="Elipse_1195-2" data-name="Elipse 1195" cx="30" cy="30" r="30" transform="translate(284 1863)" fill="#e23445"/>
        <text id="_2" data-name="2" transform="translate(305 1874.5)" fill="#fff" font-size="30" font-family="Roboto-Black, Roboto" font-weight="800"><tspan x="0" y="31">2</tspan></text>
      </g>
    </g>
    <g id="Grupo_25617" data-name="Grupo 25617" transform="translate(228 4615.908)">
      <g id="Grupo_20664-3" data-name="Grupo 20664" transform="translate(-95 46)">
        <circle id="Elipse_1195-3" data-name="Elipse 1195" cx="30" cy="30" r="30" transform="translate(284 1863)" fill="#e23445"/>
        <text id="_3" data-name="3" transform="translate(305 1874.5)" fill="#fff" font-size="30" font-family="Roboto-Black, Roboto" font-weight="800"><tspan x="0" y="31">3</tspan></text>
      </g>
    </g>
    <g id="Grupo_25618" data-name="Grupo 25618" transform="translate(319 4615.908)">
      <g id="Grupo_20664-4" data-name="Grupo 20664" transform="translate(-95 46)">
        <circle id="Elipse_1195-4" data-name="Elipse 1195" cx="30" cy="30" r="30" transform="translate(284 1863)" fill="#e23445"/>
        <text id="_4" data-name="4" transform="translate(305 1874.5)" fill="#fff" font-size="30" font-family="Roboto-Black, Roboto" font-weight="800"><tspan x="0" y="31">4</tspan></text>
      </g>
    </g>
    <g id="Grupo_25619" data-name="Grupo 25619" transform="translate(406 4609.204)">
      <g id="Grupo_20664-5" data-name="Grupo 20664" transform="translate(189 1909)">
        <circle id="Elipse_1195-5" data-name="Elipse 1195" cx="36.704" cy="36.704" r="36.704" fill="#62cca2"/>
        <text id="_5" data-name="5" transform="translate(25.41 12.988)" fill="#fff" font-size="40" font-family="Roboto-Black, Roboto" font-weight="800"><tspan x="0" y="42">5</tspan></text>
      </g>
    </g>
    <g id="Grupo_25620" data-name="Grupo 25620" transform="translate(501 4615.908)">
      <g id="Grupo_20664-6" data-name="Grupo 20664" transform="translate(-95 46)">
        <circle id="Elipse_1195-6" data-name="Elipse 1195" cx="30" cy="30" r="30" transform="translate(284 1863)" fill="#e23445"/>
        <text id="_6" data-name="6" transform="translate(305 1874.5)" fill="#fff" font-size="30" font-family="Roboto-Black, Roboto" font-weight="800"><tspan x="0" y="31">6</tspan></text>
      </g>
    </g>
    <g id="Grupo_25621" data-name="Grupo 25621" transform="translate(592 4615.908)">
      <g id="Grupo_20664-7" data-name="Grupo 20664" transform="translate(-95 46)">
        <circle id="Elipse_1195-7" data-name="Elipse 1195" cx="30" cy="30" r="30" transform="translate(284 1863)" fill="#e23445"/>
        <text id="_7" data-name="7" transform="translate(305 1874.5)" fill="#fff" font-size="30" font-family="Roboto-Black, Roboto" font-weight="800"><tspan x="0" y="31">7</tspan></text>
      </g>
    </g>
    <g id="Grupo_25622" data-name="Grupo 25622" transform="translate(683 4615.908)">
      <g id="Grupo_20664-8" data-name="Grupo 20664" transform="translate(-95 46)">
        <circle id="Elipse_1195-8" data-name="Elipse 1195" cx="30" cy="30" r="30" transform="translate(284 1863)" fill="#e23445"/>
        <text id="_8" data-name="8" transform="translate(305 1874.5)" fill="#fff" font-size="30" font-family="Roboto-Black, Roboto" font-weight="800"><tspan x="0" y="31">8</tspan></text>
      </g>
    </g>
    <g id="Grupo_25623" data-name="Grupo 25623" transform="translate(774 4615.908)">
      <g id="Grupo_20664-9" data-name="Grupo 20664" transform="translate(-95 46)">
        <circle id="Elipse_1195-9" data-name="Elipse 1195" cx="30" cy="30" r="30" transform="translate(284 1863)" fill="#e23445"/>
        <text id="_9" data-name="9" transform="translate(305 1874.5)" fill="#fff" font-size="30" font-family="Roboto-Black, Roboto" font-weight="800"><tspan x="0" y="31">9</tspan></text>
      </g>
    </g>
    <path id="Icon_awesome-hand-pointer" data-name="Icon awesome-hand-pointer" d="M27,16.172v6.469a3,3,0,0,1-.064.617l-1.929,9.164A2.483,2.483,0,0,1,22.661,34.5H10.125a2.341,2.341,0,0,1-1.95-1.11L.461,21.531a2.907,2.907,0,0,1,.532-3.765,2.25,2.25,0,0,1,3.368.595l1.907,2.932V2.7A2.565,2.565,0,0,1,8.679,0a2.565,2.565,0,0,1,2.411,2.7V16.172h.482v-2.7a2.565,2.565,0,0,1,2.411-2.7,2.565,2.565,0,0,1,2.411,2.7v2.7h.482V14.555a2.565,2.565,0,0,1,2.411-2.7,2.565,2.565,0,0,1,2.411,2.7v1.617h.482a2.565,2.565,0,0,1,2.411-2.7A2.565,2.565,0,0,1,27,16.172ZM11.571,21.563h-.482v6.469h.482Zm5.3,0h-.482v6.469h.482Zm5.3,0H21.7v6.469h.482Z" transform="translate(622 6575.25)"/>
  </g>
</svg>
