<svg xmlns="http://www.w3.org/2000/svg" width="61" height="61" viewBox="0 0 61 61">
  <g id="Grupo_25923" data-name="Grupo 25923" transform="translate(-2112 -4406)">
    <rect id="Rect치ngulo_5214" data-name="Rect치ngulo 5214" width="61" height="61" transform="translate(2112 4406)" fill="none"/>
    <rect id="Rect치ngulo_5215" data-name="Rect치ngulo 5215" width="49" height="49" transform="translate(2118 4412)" fill="none"/>
    <g id="Grupo_25915" data-name="Grupo 25915" transform="translate(1973.277 4082.206)">
      <path id="Trazado_53543" data-name="Trazado 53543" d="M167.57,352.6a7.227,7.227,0,1,1,5.112-2.115A7.2,7.2,0,0,1,167.57,352.6Zm0-11.594a4.367,4.367,0,1,0,3.091,1.277A4.355,4.355,0,0,0,167.57,341.006Z" transform="translate(1.493 1.469)" fill="#111e61"/>
      <path id="Trazado_53544" data-name="Trazado 53544" d="M169.079,378.794l-1.1-1.3c-.647-.761-15.855-18.76-15.855-30.5a16.943,16.943,0,0,1,33.887,0c0,11.165-15.194,29.7-15.84,30.486Zm-.017-45.885a14.1,14.1,0,0,0-14.084,14.084c0,4.364,2.6,10.681,7.526,18.266,2.556,3.937,5.129,7.271,6.542,9.035,1.415-1.812,4.014-5.257,6.585-9.268,4.916-7.668,7.516-13.905,7.516-18.033A14.1,14.1,0,0,0,169.063,332.909Z" fill="#111e61"/>
    </g>
  </g>
</svg>
