<svg xmlns="http://www.w3.org/2000/svg" width="61" height="61" viewBox="0 0 61 61">
  <g id="Grupo_25920" data-name="Grupo 25920" transform="translate(-2112 -4102)">
    <rect id="Rect치ngulo_5206" data-name="Rect치ngulo 5206" width="61" height="61" transform="translate(2112 4102)" fill="none"/>
    <rect id="Rect치ngulo_5209" data-name="Rect치ngulo 5209" width="49" height="49" transform="translate(2118 4108)" fill="none"/>
    <g id="Grupo_25912" data-name="Grupo 25912" transform="translate(1924.692 3776.857)">
      <path id="Trazado_53556" data-name="Trazado 53556" d="M199.63,337.241a1.192,1.192,0,0,0-1.19,1.191v3.8a1.191,1.191,0,0,0,1.19,1.19H223.57a1.192,1.192,0,0,0,1.19-1.19v-3.8a1.192,1.192,0,0,0-1.19-1.191Zm23.7,4.752H199.867v-3.324h23.466Z" transform="translate(0.885 1.056)" fill="#111e61"/>
      <path id="Trazado_53557" data-name="Trazado 53557" d="M207.3,362.8a.714.714,0,1,0,0-1.428h-8.151a.714.714,0,0,0,0,1.428Z" transform="translate(0.885 5.435)" fill="#111e61"/>
      <path id="Trazado_53558" data-name="Trazado 53558" d="M231.406,351.128v-8.249a.714.714,0,1,0-1.428,0v7.963a14.42,14.42,0,0,0-2.033-.155h-.061a14.353,14.353,0,0,0-2.238.175V348.99a1.192,1.192,0,0,0-1.19-1.19H200.515a1.191,1.191,0,0,0-1.19,1.19v3.8a1.191,1.191,0,0,0,1.19,1.19h18.238q-.544.452-1.048.958A14.763,14.763,0,0,0,215.8,357.3h-7.858a.714.714,0,0,0,0,1.428h7.044a14.551,14.551,0,0,0-1.173,3.324H200.752v-3.324h3.855a.714.714,0,0,0,0-1.428h-4.093a1.192,1.192,0,0,0-1.19,1.191v3.8a1.192,1.192,0,0,0,1.19,1.19h13.053a14.872,14.872,0,0,0-.108,1.724A14.608,14.608,0,0,0,217.155,375H195.23a.241.241,0,0,1-.237-.237V333.09a.241.241,0,0,1,.237-.238h34.51a.241.241,0,0,1,.237.238v6.457a.714.714,0,0,0,1.428,0V333.09a1.669,1.669,0,0,0-1.666-1.666H195.23a1.669,1.669,0,0,0-1.666,1.666v41.672a1.669,1.669,0,0,0,1.666,1.666h23.385a14.261,14.261,0,0,0,9.21,3.418h.06a14.253,14.253,0,0,0,10.179-4.251,14.645,14.645,0,0,0-6.658-24.469Zm-30.654,1.425v-3.324h23.466v1.932a14.143,14.143,0,0,0-3.4,1.392Zm36.3,22.037a12.837,12.837,0,0,1-9.166,3.829h-.054a13.186,13.186,0,0,1-9.113-22.474,12.833,12.833,0,0,1,9.165-3.829h.056a13.186,13.186,0,0,1,9.113,22.474Z" fill="#111e61"/>
      <path id="Trazado_53559" data-name="Trazado 53559" d="M234.589,362.968a.713.713,0,0,0-.829.575,9.622,9.622,0,1,1-9.452-11.488,9.528,9.528,0,0,1,6.334,2.413,9.743,9.743,0,0,1,3.183,5.967.714.714,0,0,0,1.415-.194,11.177,11.177,0,0,0-3.651-6.841,10.955,10.955,0,0,0-7.282-2.772A11.154,11.154,0,1,0,235.164,363.8a.713.713,0,0,0-.575-.829Z" transform="translate(3.577 3.485)" fill="#111e61"/>
      <path id="Trazado_53560" data-name="Trazado 53560" d="M222.722,353.919a.713.713,0,0,0-.714.714v6.551a.714.714,0,0,0,.714.715h4.439a.714.714,0,0,0,0-1.428h-3.724v-5.838A.714.714,0,0,0,222.722,353.919Z" transform="translate(5.162 4.083)" fill="#111e61"/>
    </g>
  </g>
</svg>
