<svg xmlns="http://www.w3.org/2000/svg" width="61" height="61" viewBox="0 0 61 61">
  <g id="Grupo_25926" data-name="Grupo 25926" transform="translate(-2114 -4682)">
    <rect id="Rect치ngulo_5220" data-name="Rect치ngulo 5220" width="61" height="61" transform="translate(2114 4682)" fill="none"/>
    <rect id="Rect치ngulo_5221" data-name="Rect치ngulo 5221" width="49" height="49" transform="translate(2120 4688)" fill="none"/>
    <g id="Grupo_25917" data-name="Grupo 25917" transform="translate(2025.201 4358.098)">
      <g id="Grupo_25631" data-name="Grupo 25631" transform="translate(99.341 329.902)">
        <path id="Trazado_53532" data-name="Trazado 53532" d="M114.744,349.5h4.522a.706.706,0,1,0,0-1.413h-4.522a.706.706,0,0,0,0,1.413Z" transform="translate(-97.253 -327.318)" fill="#111e61"/>
        <path id="Trazado_53533" data-name="Trazado 53533" d="M119.972,350.857a.707.707,0,0,0-.707-.707h-4.522a.706.706,0,0,0,0,1.413h4.522A.707.707,0,0,0,119.972,350.857Z" transform="translate(-97.253 -327.025)" fill="#111e61"/>
        <path id="Trazado_53534" data-name="Trazado 53534" d="M113.013,341.985a.707.707,0,0,0-.707.706V344.4a.706.706,0,0,0,1.413,0v-1.705A.706.706,0,0,0,113.013,341.985Z" transform="translate(-97.499 -328.185)" fill="#111e61"/>
        <path id="Trazado_53535" data-name="Trazado 53535" d="M120.435,345.1a.707.707,0,0,0,.707-.706v-1.705a.706.706,0,0,0-1.413,0V344.4A.706.706,0,0,0,120.435,345.1Z" transform="translate(-96.444 -328.185)" fill="#111e61"/>
        <path id="Trazado_53536" data-name="Trazado 53536" d="M106.672,368.837h1.79a.99.99,0,0,0,.989-.989v-1.131h1.131a.989.989,0,0,0,.989-.989v-1.79a.99.99,0,0,0-.989-.989H109.45v-1.131a.99.99,0,0,0-.989-.989h-1.79a.991.991,0,0,0-.989.989v1.131h-1.13a.99.99,0,0,0-.989.989v1.79a.989.989,0,0,0,.989.989h1.13v1.131A.991.991,0,0,0,106.672,368.837Zm-1.695-3.533v-.942h1.13a.989.989,0,0,0,.989-.989v-1.13h.942v1.13a.99.99,0,0,0,.989.989h1.131v.942h-1.131a.991.991,0,0,0-.989.989v1.131H107.1v-1.131a.99.99,0,0,0-.989-.989Z" transform="translate(-98.741 -325.507)" fill="#111e61"/>
        <path id="Trazado_53537" data-name="Trazado 53537" d="M120.883,363.18v5.087a.99.99,0,0,0,.989.989h8.1a.989.989,0,0,0,.989-.989V363.18a.99.99,0,0,0-.989-.989h-8.1A.991.991,0,0,0,120.883,363.18Zm1.413.424h7.253v4.24H122.3Z" transform="translate(-96.28 -325.314)" fill="#111e61"/>
        <path id="Trazado_53538" data-name="Trazado 53538" d="M126.972,361.708a.707.707,0,0,0,0-1.414h-2.826a.707.707,0,1,0,0,1.414Z" transform="translate(-95.917 -325.584)" fill="#111e61"/>
        <path id="Trazado_53539" data-name="Trazado 53539" d="M138.139,370.83a.707.707,0,0,0,.707-.707V362.87a4.951,4.951,0,0,0-4.945-4.945h-.552a7.388,7.388,0,0,0,.769-3.287V338.165a3.112,3.112,0,0,0-3.109-3.109h-.814a10.13,10.13,0,0,0-8.817-5.154h-4.57a10.128,10.128,0,0,0-8.816,5.154h-.814a3.112,3.112,0,0,0-3.109,3.109v12.272a.706.706,0,0,0,1.413,0v-9.548h1.2v4.253a3.04,3.04,0,0,0-.258,1.229v1.993a3.065,3.065,0,0,0,3.061,3.062h.2a7.693,7.693,0,0,0,5.128,5.409v1.09h-8.353a5.984,5.984,0,0,1-.981-3.287v-.9a.706.706,0,1,0-1.413,0v.9a7.388,7.388,0,0,0,.769,3.287h-.552a4.95,4.95,0,0,0-4.945,4.945v13.611a1.651,1.651,0,0,0,1.648,1.649H137.2a1.651,1.651,0,0,0,1.649-1.649V373.42a.706.706,0,1,0-1.413,0v3.061a.236.236,0,0,1-.236.235H100.989a.236.236,0,0,1-.235-.235V362.87a3.536,3.536,0,0,1,3.532-3.533h1.463a7.422,7.422,0,0,0,5.753,2.733H114.1l4.082,5.033a1.179,1.179,0,0,0,1.83,0l4.082-5.033h2.595a7.424,7.424,0,0,0,5.753-2.733H133.9a3.536,3.536,0,0,1,3.531,3.533v7.253a.708.708,0,0,0,.707.707Zm-30.3-22.466v-1.993a1.65,1.65,0,0,1,1.613-1.647v4.8c0,.163.007.326.017.488A1.65,1.65,0,0,1,107.837,348.364Zm1.613-7.06v2.007a3.028,3.028,0,0,0-1.353.335v-2.756h1.378A3.544,3.544,0,0,0,109.45,341.3Zm3.379,12.766a6.233,6.233,0,0,1-1.967-4.546V347.2l1.967,2.8Zm-1.967-9.321V341.3a1.988,1.988,0,0,1,.045-.415H127.28a1.988,1.988,0,0,1,.045.415v3.446l-2.933,4.169-4.528-1.765a.654.654,0,0,0-.063-.022v-1.823a.707.707,0,1,0-1.414,0v1.823a.656.656,0,0,0-.063.022l-4.528,1.765Zm16.462,2.456v2.318a6.231,6.231,0,0,1-1.968,4.547V350Zm-13.083,7.869V350.26l4.595-1.791a.712.712,0,0,1,.514,0l4.594,1.791v4.814a6.209,6.209,0,0,1-2.87.7h-3.962a6.215,6.215,0,0,1-2.87-.7Zm-2.74,5.583a5.989,5.989,0,0,1-3.754-1.319h4.133l1.07,1.319Zm7.591,5.331-3.177-3.917h6.355Zm4.324-5.331H114.77l-1.07-1.319h1.824a.706.706,0,0,0,.706-.707v-1.495a7.776,7.776,0,0,0,.883.051h3.962a7.78,7.78,0,0,0,.884-.051v1.495a.706.706,0,0,0,.706.707h1.824Zm3.268,0h-1.449l1.07-1.319h4.133A5.989,5.989,0,0,1,126.685,360.656Zm6.02-6.019a5.984,5.984,0,0,1-.981,3.287h-8.353v-1.09a7.693,7.693,0,0,0,5.128-5.409h.2a3.066,3.066,0,0,0,3.062-3.062v-1.993a3.031,3.031,0,0,0-.259-1.23v-4.252h1.2Zm-2.614-10.993a3.032,3.032,0,0,0-1.353-.335V341.3a3.544,3.544,0,0,0-.025-.415h1.379v2.756Zm.259,2.726v1.993a1.65,1.65,0,0,1-1.63,1.648c.01-.162.017-.324.017-.488v-4.8a1.65,1.65,0,0,1,1.613,1.647Zm2.355-6.895H105.482v-1.311a1.7,1.7,0,0,1,1.7-1.7h14.553a.706.706,0,1,0,0-1.413H109.659a8.7,8.7,0,0,1,7.15-3.742h4.57a8.707,8.707,0,0,1,7.151,3.742h-3.5a.706.706,0,1,0,0,1.413h5.981a1.7,1.7,0,0,1,1.7,1.7Z" transform="translate(-99.341 -329.902)" fill="#111e61"/>
      </g>
    </g>
  </g>
</svg>
