<svg xmlns="http://www.w3.org/2000/svg" width="76.084" height="76.083" viewBox="0 0 76.084 76.083">
  <g id="Grupo_25501" data-name="Grupo 25501" transform="translate(-492.969 -109.639)">
    <circle id="Elipse_1361" data-name="Elipse 1361" cx="38.042" cy="38.042" r="38.042" transform="translate(492.969 109.639)" fill="#f2f2f2"/>
    <g id="Grupo_25499" data-name="Grupo 25499">
      <path id="Trazado_53307" data-name="Trazado 53307" d="M522.45,112.587H507.179a6.006,6.006,0,0,0-6,6V142.8a6.007,6.007,0,0,0,5.992,6H522.45a6.006,6.006,0,0,0,6-6V118.586A6.006,6.006,0,0,0,522.45,112.587Z" fill="#cddce9"/>
      <path id="Trazado_53308" data-name="Trazado 53308" d="M528.45,118.586V142.8a6.006,6.006,0,0,1-6,6h-7.635V112.587h7.635A6.006,6.006,0,0,1,528.45,118.586Z" fill="#aacce9"/>
      <path id="Trazado_53309" data-name="Trazado 53309" d="M556.92,161.346a7.1,7.1,0,0,1-7.09,7.09H521.36a8.191,8.191,0,0,1-8.181-8.181V145.529h-1.637V140.62h-7.09V120.877h20.726V140.62h-7.091v4.909h-1.636v14.726a4.915,4.915,0,0,0,4.909,4.909h28.47a3.818,3.818,0,0,0,0-7.636h-5.454a7.1,7.1,0,0,1-7.091-7.09V138.12a4.36,4.36,0,0,0,3.273,0v12.318a3.821,3.821,0,0,0,3.818,3.817h5.454A7.1,7.1,0,0,1,556.92,161.346Z" fill="#e33e4e"/>
      <path id="Trazado_53310" data-name="Trazado 53310" d="M556.92,161.346a7.1,7.1,0,0,1-7.09,7.09H521.36a8.17,8.17,0,0,1-6.545-3.279v-44.28h10.363V140.62h-7.091v4.909h-1.636v14.726a4.915,4.915,0,0,0,4.909,4.909h28.47a3.818,3.818,0,0,0,0-7.636h-5.454a7.1,7.1,0,0,1-7.091-7.09V138.12a4.356,4.356,0,0,0,3.273,0v12.318a3.821,3.821,0,0,0,3.818,3.817h5.454A7.1,7.1,0,0,1,556.92,161.346Z" fill="#bf2e43"/>
      <path id="Trazado_53311" data-name="Trazado 53311" d="M517.542,129.712h-1.091v-1.091a1.636,1.636,0,1,0-3.272,0v1.091h-1.091a1.636,1.636,0,0,0,0,3.273h1.091v1.09a1.636,1.636,0,1,0,3.272,0v-1.09h1.091a1.636,1.636,0,0,0,0-3.273Z" fill="#e4edef"/>
      <path id="Trazado_53312" data-name="Trazado 53312" d="M519.178,131.348a1.637,1.637,0,0,1-1.636,1.637h-1.091v1.09a1.637,1.637,0,0,1-1.636,1.637v-8.727a1.637,1.637,0,0,1,1.636,1.636v1.091h1.091A1.637,1.637,0,0,1,519.178,131.348Z" fill="#bfdfe7"/>
      <path id="Trazado_53313" data-name="Trazado 53313" d="M540.558,119.35v5.108h-3.269s0-1.509,0-5.108a1.637,1.637,0,1,1,3.273,0Z" fill="#cddce9"/>
      <path id="Trazado_53314" data-name="Trazado 53314" d="M543.83,127.64v6.435a4.909,4.909,0,1,1-9.817,0V127.64a1.64,1.64,0,0,1,.479-1.158l2.769-2.769h3.321l2.769,2.769a1.64,1.64,0,0,1,.479,1.158Z" fill="#62cca2"/>
    </g>
  </g>
</svg>
