<svg xmlns="http://www.w3.org/2000/svg" width="34.59" height="42.228" viewBox="0 0 34.59 42.228">
  <g id="Grupo_25632" data-name="Grupo 25632" transform="translate(-99.341 -329.902)">
    <g id="Grupo_25631" data-name="Grupo 25631">
      <path id="Trazado_53532" data-name="Trazado 53532" d="M114.656,349.325h3.959a.618.618,0,1,0,0-1.237h-3.959a.618.618,0,0,0,0,1.237Z" fill="#111e61"/>
      <path id="Trazado_53533" data-name="Trazado 53533" d="M119.234,350.769a.619.619,0,0,0-.619-.619h-3.959a.618.618,0,0,0,0,1.237h3.959A.619.619,0,0,0,119.234,350.769Z" fill="#111e61"/>
      <path id="Trazado_53534" data-name="Trazado 53534" d="M112.925,341.985a.619.619,0,0,0-.619.618V344.1a.618.618,0,0,0,1.237,0V342.6A.618.618,0,0,0,112.925,341.985Z" fill="#111e61"/>
      <path id="Trazado_53535" data-name="Trazado 53535" d="M120.347,344.714a.619.619,0,0,0,.619-.618V342.6a.619.619,0,0,0-1.237,0V344.1A.618.618,0,0,0,120.347,344.714Z" fill="#111e61"/>
      <path id="Trazado_53536" data-name="Trazado 53536" d="M106.285,367.841h1.567a.867.867,0,0,0,.866-.866v-.99h.99a.866.866,0,0,0,.866-.866v-1.567a.867.867,0,0,0-.866-.866h-.99v-.99a.867.867,0,0,0-.866-.866h-1.567a.868.868,0,0,0-.866.866v.99h-.989a.867.867,0,0,0-.866.866v1.567a.866.866,0,0,0,.866.866h.989v.99A.868.868,0,0,0,106.285,367.841Zm-1.484-3.093v-.825h.989a.866.866,0,0,0,.866-.866v-.989h.825v.989a.867.867,0,0,0,.866.866h.99v.825h-.99a.868.868,0,0,0-.866.866v.99h-.825v-.99a.867.867,0,0,0-.866-.866Z" fill="#111e61"/>
      <path id="Trazado_53537" data-name="Trazado 53537" d="M120.883,363.057v4.454a.867.867,0,0,0,.866.866h7.093a.866.866,0,0,0,.866-.866v-4.454a.867.867,0,0,0-.866-.866h-7.093A.868.868,0,0,0,120.883,363.057Zm1.237.371h6.351v3.712H122.12Z" fill="#111e61"/>
      <path id="Trazado_53538" data-name="Trazado 53538" d="M126.533,361.532a.619.619,0,0,0,0-1.238h-2.474a.619.619,0,0,0,0,1.238Z" fill="#111e61"/>
      <path id="Trazado_53539" data-name="Trazado 53539" d="M133.312,365.738a.619.619,0,0,0,.619-.619v-6.351a4.335,4.335,0,0,0-4.33-4.33h-.483a6.469,6.469,0,0,0,.673-2.878V337.137a2.725,2.725,0,0,0-2.722-2.722h-.713a8.87,8.87,0,0,0-7.72-4.513h-4a8.868,8.868,0,0,0-7.719,4.513H106.2a2.725,2.725,0,0,0-2.722,2.722v10.745a.618.618,0,0,0,1.237,0v-8.36h1.051v3.724a2.662,2.662,0,0,0-.226,1.076v1.745a2.684,2.684,0,0,0,2.68,2.681h.178a6.736,6.736,0,0,0,4.49,4.736v.954h-7.314a5.24,5.24,0,0,1-.859-2.878v-.791a.618.618,0,1,0-1.237,0v.791a6.469,6.469,0,0,0,.673,2.878h-.483a4.334,4.334,0,0,0-4.33,4.33v11.918a1.446,1.446,0,0,0,1.443,1.444h31.7a1.446,1.446,0,0,0,1.444-1.444v-2.68a.618.618,0,1,0-1.237,0v2.68a.207.207,0,0,1-.207.206h-31.7a.206.206,0,0,1-.206-.206V358.768a3.1,3.1,0,0,1,3.093-3.093h1.281a6.5,6.5,0,0,0,5.037,2.393h2.272l3.574,4.407a1.033,1.033,0,0,0,1.6,0l3.574-4.407h2.272a6.5,6.5,0,0,0,5.037-2.393H129.6a3.1,3.1,0,0,1,3.092,3.093v6.351a.62.62,0,0,0,.619.619ZM106.78,346.067v-1.745a1.445,1.445,0,0,1,1.412-1.442v4.2c0,.143.006.285.015.427A1.445,1.445,0,0,1,106.78,346.067Zm1.412-6.182v1.757a2.652,2.652,0,0,0-1.185.293v-2.413h1.207A3.1,3.1,0,0,0,108.192,339.885Zm2.959,11.178a5.458,5.458,0,0,1-1.722-3.98v-2.031l1.722,2.448Zm-1.722-8.161v-3.017a1.74,1.74,0,0,1,.039-.363H123.8a1.74,1.74,0,0,1,.039.363V342.9l-2.568,3.65-3.965-1.545c-.018-.008-.037-.013-.055-.019v-1.6a.619.619,0,0,0-1.238,0v1.6c-.018.006-.037.011-.055.019L112,346.552Zm14.414,2.15v2.03a5.455,5.455,0,0,1-1.723,3.981V347.5Zm-11.455,6.89v-4.215l4.023-1.568a.624.624,0,0,1,.45,0l4.022,1.568v4.215a5.436,5.436,0,0,1-2.513.613H114.9a5.442,5.442,0,0,1-2.513-.613Zm-2.4,4.888a5.244,5.244,0,0,1-3.287-1.155h3.619l.937,1.155Zm6.647,4.668-2.782-3.43h5.564Zm3.786-4.668H112.85l-.937-1.155h1.6a.618.618,0,0,0,.618-.619v-1.309a6.815,6.815,0,0,0,.773.045h3.469a6.819,6.819,0,0,0,.774-.045v1.309a.618.618,0,0,0,.618.619h1.6Zm2.861,0h-1.269l.937-1.155h3.619A5.244,5.244,0,0,1,123.283,356.83Zm5.271-5.27a5.24,5.24,0,0,1-.859,2.878h-7.314v-.954a6.736,6.736,0,0,0,4.49-4.736h.177a2.684,2.684,0,0,0,2.681-2.681v-1.745a2.654,2.654,0,0,0-.227-1.077v-3.723h1.052Zm-2.289-9.625a2.655,2.655,0,0,0-1.185-.293v-1.757a3.1,3.1,0,0,0-.022-.363h1.207v2.413Zm.227,2.387v1.745a1.445,1.445,0,0,1-1.427,1.443c.009-.142.015-.284.015-.427v-4.2a1.445,1.445,0,0,1,1.412,1.442Zm2.062-6.037H104.718v-1.148a1.486,1.486,0,0,1,1.485-1.485h12.742a.618.618,0,1,0,0-1.237h-10.57a7.622,7.622,0,0,1,6.26-3.276h4a7.624,7.624,0,0,1,6.261,3.276h-3.065a.618.618,0,1,0,0,1.237h5.237a1.487,1.487,0,0,1,1.485,1.485Z" fill="#111e61"/>
    </g>
  </g>
</svg>
