<svg xmlns="http://www.w3.org/2000/svg" width="61" height="61" viewBox="0 0 61 61">
  <g id="Grupo_25925" data-name="Grupo 25925" transform="translate(-2114 -4581)">
    <rect id="Rect치ngulo_5218" data-name="Rect치ngulo 5218" width="61" height="61" transform="translate(2114 4581)" fill="none"/>
    <rect id="Rect치ngulo_5219" data-name="Rect치ngulo 5219" width="49" height="49" transform="translate(2120 4587)" fill="none"/>
    <g id="outline" transform="translate(2013.956 4196.786)">
      <path id="Trazado_53545" data-name="Trazado 53545" d="M112.845,437.068a.817.817,0,0,0,1.155,0l2.448-2.449a.816.816,0,0,0,0-1.154l-.951-.951,3.335-3.335,2.176,2.176a.816.816,0,0,0,1.154,0l2.449-2.449a.816.816,0,0,0,0-1.154l-1.055-1.056,13.415-13.415,1.632-4.08,2.906-2.908-1.632-1.632,10.848-10.848a.816.816,0,1,0-1.133-1.174l-.021.02-10.848,10.849-1.632-1.633-2.908,2.908-4.081,1.632-13.415,13.415-1.055-1.055a.817.817,0,0,0-1.155,0l-2.448,2.448a.817.817,0,0,0,0,1.155l2.186,2.186-3.335,3.335-.961-.962a.817.817,0,0,0-1.155,0l-2.448,2.449a.816.816,0,0,0,0,1.154ZM139.2,406.295l-1.295,1.294-2.11-2.11,1.295-1.294Zm-20.065,13.4,1.871,1.871,1.154-1.154-1.871-1.871,1.295-1.3,2.687,2.688,1.155-1.154-2.688-2.688,1.294-1.294,1.871,1.871,1.155-1.155-1.871-1.871,1.294-1.294,2.688,2.687,1.154-1.154-2.688-2.687,1.295-1.295,1.871,1.871,1.154-1.154-1.871-1.871.937-.937,3.427-1.37,2.5,2.5-1.37,3.427L122.4,425.544l-4.558-4.559Zm-4.081.817,7.823,7.823-1.294,1.294-7.823-7.823Zm.314,5.21,2.308,2.308-3.335,3.334-2.307-2.307Zm-6.027,2.95,5.375,5.376-1.294,1.294-5.375-5.375Z" transform="translate(0)" fill="#111e61"/>
      <path id="Trazado_53546" data-name="Trazado 53546" d="M147.06,397.966c-.577.69-3.453,4.237-3.453,6.236a4.08,4.08,0,1,0,8.16,0c0-2-2.877-5.545-3.453-6.236a.843.843,0,0,0-1.193-.061A.81.81,0,0,0,147.06,397.966Zm.626,8.684a2.449,2.449,0,0,1-2.448-2.449c0-.875,1.28-2.88,2.448-4.407,1.168,1.522,2.449,3.527,2.449,4.407A2.449,2.449,0,0,1,147.687,406.651Z" transform="translate(3.277 0.461)" fill="#111e61"/>
      <path id="Trazado_53547" data-name="Trazado 53547" d="M139.1,415.461a4.081,4.081,0,0,0,8.161,0c0-2-2.877-5.545-3.454-6.237a.844.844,0,0,0-1.193-.06c-.021.018-.041.039-.061.06C141.98,409.916,139.1,413.463,139.1,415.461Zm6.529,0a2.449,2.449,0,0,1-4.9,0c0-.876,1.281-2.88,2.449-4.408C144.351,412.579,145.632,414.584,145.632,415.461Z" transform="translate(2.884 1.444)" fill="#111e61"/>
    </g>
  </g>
</svg>
