<svg xmlns="http://www.w3.org/2000/svg" width="45.105" height="42.032" viewBox="0 0 45.105 42.032">
  <g id="Grupo_25635" data-name="Grupo 25635" transform="translate(-55.64 -392.036)">
    <path id="Trazado_53548" data-name="Trazado 53548" d="M79.444,409.6c.847.721,1.722,1.466,2.652,2.281l.672.587.671-.587c.967-.846,1.875-1.617,2.754-2.363l-.243-.286.318.222c4.886-4.148,8.115-6.889,7.916-11.1a6.844,6.844,0,0,0-1.862-4.383,6.024,6.024,0,0,0-4.347-1.935h-.046a5.591,5.591,0,0,0-4.047,1.695,7.681,7.681,0,0,0-1.114,1.41,7.685,7.685,0,0,0-1.115-1.41,5.589,5.589,0,0,0-4.047-1.695H77.56a5.9,5.9,0,0,0-4.312,1.943,6.917,6.917,0,0,0-1.811,4.375C71.236,402.606,74.5,405.384,79.444,409.6Zm2.118-12.366a1.307,1.307,0,0,0,2.411,0c.5-1.179,1.677-3.159,3.986-3.159a4.469,4.469,0,0,1,4.187,4.374,6.16,6.16,0,0,1-1.722,4.34,45.788,45.788,0,0,1-5.481,5.113c-.7.595-1.421,1.206-2.175,1.86-.7-.605-1.368-1.175-2.034-1.742a46.394,46.394,0,0,1-5.526-5.177,6.245,6.245,0,0,1-1.733-4.394,4.379,4.379,0,0,1,4.132-4.374C79.885,394.076,81.063,396.056,81.562,397.235Z" fill="#111e61"/>
    <path id="Trazado_53549" data-name="Trazado 53549" d="M100.227,414.23l-.015-.011a5.467,5.467,0,0,0-7.567.952l-4.672,5.209a3.894,3.894,0,0,0,.871-2.331v-.1a3.822,3.822,0,0,0-3.795-3.839H72.538a2.207,2.207,0,0,0-.877.181l-2.141.921a2.262,2.262,0,0,0-2.239-1.956H57.9a2.261,2.261,0,0,0-2.258,2.259v16.292a2.261,2.261,0,0,0,2.258,2.259h9.383a2.261,2.261,0,0,0,2.259-2.259v-.4H86.683a3.506,3.506,0,0,0,2.766-1.345l10.482-13.251,0,0,.515-.656A1.381,1.381,0,0,0,100.227,414.23Zm-15.235,5.7H80.727a2.622,2.622,0,0,0-1.877.786,2.683,2.683,0,0,0-.772,1.9l0,.1a2.689,2.689,0,0,0,2.691,2.566H84.89a2.666,2.666,0,0,0,1.983-.888l7.19-8.02a3.652,3.652,0,0,1,4.6-.948L87.992,428.911a1.667,1.667,0,0,1-1.311.64H69.54V417.229L72.395,416a.369.369,0,0,1,.143-.029h12.51a1.886,1.886,0,0,1,1.366.583,2.04,2.04,0,0,1,.571,1.429A1.992,1.992,0,0,1,84.992,419.928Zm.5,3.222a.805.805,0,0,1-.6.27H80.753a.832.832,0,0,1-.817-.817.824.824,0,0,1,.237-.583.772.772,0,0,1,.555-.235h4.285a3.8,3.8,0,0,0,2.719-1.137Zm-17.806-7.635v16.294a.4.4,0,0,1-.4.4H57.9a.4.4,0,0,1-.4-.4V415.517a.4.4,0,0,1,.4-.4h9.383A.4.4,0,0,1,67.682,415.515Z" fill="#111e61"/>
  </g>
</svg>
