<svg xmlns="http://www.w3.org/2000/svg" width="28.681" height="41.256" viewBox="0 0 28.681 41.256">
  <g id="Grupo_25634" data-name="Grupo 25634" transform="translate(-152.12 -330.05)">
    <path id="Trazado_53543" data-name="Trazado 53543" d="M166.46,350.379a6.117,6.117,0,1,1,4.327-1.79A6.1,6.1,0,0,1,166.46,350.379Zm0-9.813a3.7,3.7,0,1,0,2.616,1.081A3.686,3.686,0,0,0,166.46,340.566Z" fill="#111e61"/>
    <path id="Trazado_53544" data-name="Trazado 53544" d="M166.474,371.306l-.935-1.1c-.548-.644-13.419-15.878-13.419-25.817a14.34,14.34,0,0,1,28.681,0c0,9.45-12.86,25.14-13.407,25.8Zm-.014-38.836a11.933,11.933,0,0,0-11.92,11.92c0,3.694,2.2,9.04,6.37,15.46,2.163,3.332,4.341,6.154,5.537,7.647,1.2-1.534,3.4-4.449,5.573-7.844,4.161-6.49,6.361-11.769,6.361-15.263A11.934,11.934,0,0,0,166.46,332.47Z" fill="#111e61"/>
  </g>
</svg>
