<svg xmlns="http://www.w3.org/2000/svg" width="36.881" height="40.984" viewBox="0 0 36.881 40.984">
  <g id="Grupo_25848" data-name="Grupo 25848" transform="translate(-399.332 -172.449)">
    <path id="Trazado_54301" data-name="Trazado 54301" d="M400.7,181.67a3.761,3.761,0,0,1,3.757-3.757h12.978a3.772,3.772,0,0,1,3.746,3.468l1.362-.1a5.144,5.144,0,0,0-5.108-4.73h-1.024a4.1,4.1,0,0,0-4.1-4.1h-2.732a4.1,4.1,0,0,0-4.1,4.1h-1.024a5.129,5.129,0,0,0-5.123,5.123v5.123H400.7Zm8.88-7.855h2.732a2.734,2.734,0,0,1,2.732,2.732h-8.2A2.734,2.734,0,0,1,409.578,173.815Z" fill="#111e61"/>
    <path id="Trazado_54302" data-name="Trazado 54302" d="M409.578,174.5h2.732v1.366h-2.732Z" fill="#111e61"/>
    <path id="Trazado_54303" data-name="Trazado 54303" d="M412.993,190.209a.683.683,0,0,0-.683-.684h-1.366v-1.366a.683.683,0,0,0-.683-.683h-2.732a.683.683,0,0,0-.683.683v1.366h-1.367a.683.683,0,0,0-.683.684v2.732a.683.683,0,0,0,.683.683h1.367v1.366a.683.683,0,0,0,.683.683h2.732a.683.683,0,0,0,.683-.683v-1.366h1.366a.683.683,0,0,0,.683-.683Zm-1.366,2.049h-1.366a.683.683,0,0,0-.683.683v1.366h-1.366v-1.366a.683.683,0,0,0-.683-.683h-1.366v-1.366h1.366a.683.683,0,0,0,.683-.683v-1.367h1.366v1.367a.683.683,0,0,0,.683.683h1.366Z" fill="#111e61"/>
    <path id="Trazado_54304" data-name="Trazado 54304" d="M412.993,194.99h4.1v1.366h-4.1Z" fill="#111e61"/>
    <path id="Trazado_54305" data-name="Trazado 54305" d="M434.664,183.661a5.183,5.183,0,0,0-7.583,0l-1.793,1.886-1.793-1.886a5.2,5.2,0,0,0-3.671-1.648v-.343a2.394,2.394,0,0,0-2.391-2.391H404.455a2.394,2.394,0,0,0-2.391,2.391v18.988a3.241,3.241,0,0,0,2.219,3.078l3.745,1.248a9.276,9.276,0,0,0,5.832,0l3.745-1.248a3.241,3.241,0,0,0,2.219-3.078v-5l4.782,5.031V211.9a.172.172,0,0,1-.171.171h-7.173a.171.171,0,0,1-.17-.171V210.7h.683a.683.683,0,0,0,.683-.683v-3.686l.012,0a5.968,5.968,0,0,0,4.086-5.67v-.886H421.19v.886a4.605,4.605,0,0,1-3.152,4.374l-.479.159a.683.683,0,0,0-.467.648v3.5h-1.366V206.75a.683.683,0,0,0-.684-.683.693.693,0,0,0-.216.035l-.534.178a10.588,10.588,0,0,1-2.065.466.682.682,0,0,0-.6.678v4.643h-1.366v-4.643a.682.682,0,0,0-.6-.678,10.588,10.588,0,0,1-2.065-.466l-.534-.178a.683.683,0,0,0-.864.432.665.665,0,0,0-.035.216v2.585H404.8v-3.5a.683.683,0,0,0-.467-.648l-.478-.159a4.6,4.6,0,0,1-3.153-4.374v-12.5h-1.366v12.5a5.969,5.969,0,0,0,4.087,5.67l.011,0v3.686a.683.683,0,0,0,.683.683h2.733a.683.683,0,0,0,.683-.683h0v-2.327a12.04,12.04,0,0,0,1.366.322v4.737a.683.683,0,0,0,.683.683h2.732a.683.683,0,0,0,.683-.683v-4.737a11.991,11.991,0,0,0,1.366-.322v2.327a.683.683,0,0,0,.683.683h.684V211.9a1.538,1.538,0,0,0,1.536,1.537h7.173a1.539,1.539,0,0,0,1.537-1.537V200.685l5.959-6.27-.99-.942-5.653,5.949L416.9,190.6a4.4,4.4,0,0,1,0-6,3.818,3.818,0,0,1,5.395-.208c.072.067.141.136.208.208l2.288,2.407a.683.683,0,0,0,.966.025l.025-.025,2.288-2.407a3.818,3.818,0,0,1,5.4-.208c.072.067.141.136.208.208a4.4,4.4,0,0,1,0,6L431.9,192.47l.99.941,1.78-1.872a5.786,5.786,0,0,0,0-7.878Zm-16.206,17a1.876,1.876,0,0,1-1.285,1.782l-3.745,1.248a7.9,7.9,0,0,1-4.968,0l-3.745-1.248a1.876,1.876,0,0,1-1.285-1.782v-1.569h15.028Zm-2.546-9.119,2.546,2.679v3.5H403.43V185.427h11.35a5.8,5.8,0,0,0,1.132,6.112Zm2.546-9.376a5.252,5.252,0,0,0-2.546,1.5q-.184.193-.346.4H403.43V181.67a1.026,1.026,0,0,1,1.025-1.024h12.978a1.026,1.026,0,0,1,1.025,1.024Z" fill="#111e61"/>
    <path id="Trazado_54306" data-name="Trazado 54306" d="M427.387,190.638l-.866,2.165-2.7-4.323a.684.684,0,0,0-.942-.217.7.7,0,0,0-.249.274l-1.177,2.355h-1.627v1.366h2.049a.683.683,0,0,0,.611-.378l.822-1.643,2.769,4.432a.683.683,0,0,0,.58.321l.061,0a.681.681,0,0,0,.573-.426l1.194-2.986h2.953v-1.366h-3.415a.683.683,0,0,0-.634.429Z" fill="#111e61"/>
  </g>
</svg>
