<svg xmlns="http://www.w3.org/2000/svg" width="46.532" height="47.817" viewBox="0 0 46.532 47.817">
  <g id="Grupo_25642" data-name="Grupo 25642" transform="translate(-323.284 -384.738)">
    <circle id="Elipse_1362" data-name="Elipse 1362" cx="23.059" cy="23.059" r="23.059" transform="translate(323.284 386.438)" fill="#f2f2f2"/>
    <g id="Grupo_25641" data-name="Grupo 25641">
      <path id="Trazado_53561" data-name="Trazado 53561" d="M357.31,429.375h-8.081a1.733,1.733,0,0,1-1.732-1.731v-2.886h1.539v2.886a.193.193,0,0,0,.193.192h8.081a.192.192,0,0,0,.192-.192V413.983h1.539v13.661A1.732,1.732,0,0,1,357.31,429.375Z" fill="#e33e4e"/>
      <g id="Grupo_25639" data-name="Grupo 25639">
        <path id="Trazado_53562" data-name="Trazado 53562" d="M349.421,389.355H347.5v-.769a3.848,3.848,0,0,0-3.848-3.848h-3.078a3.848,3.848,0,0,0-3.848,3.848v.769H334.8a5.009,5.009,0,0,0-5,5v21.393a5.958,5.958,0,0,0,4.078,5.659l.54.179V426.3h3.078v-3.682l.6.2a12.666,12.666,0,0,0,2.477.558v6h3.078v-6a12.6,12.6,0,0,0,2.477-.558l.6-.2V426.3h3.078v-4.708l.539-.18a5.957,5.957,0,0,0,4.079-5.658V394.358a5.009,5.009,0,0,0-5-5Z" fill="#bfdfe7"/>
        <path id="Trazado_53563" data-name="Trazado 53563" d="M349.372,418.489l-4.22,1.407a9.623,9.623,0,0,1-6.084,0l-4.22-1.407a2.886,2.886,0,0,1-1.974-2.738V394.358a1.924,1.924,0,0,1,1.925-1.924h14.622a1.923,1.923,0,0,1,1.924,1.924v21.393A2.887,2.887,0,0,1,349.372,418.489Z" fill="#e33e4e"/>
        <path id="Trazado_53564" data-name="Trazado 53564" d="M332.469,397.821h19.225v15.393H332.469Z" fill="#fef8f7"/>
        <g id="Grupo_25638" data-name="Grupo 25638">
          <path id="Trazado_53565" data-name="Trazado 53565" d="M340.571,386.277h3.078v1.539h-3.078Z" fill="#e33e4e"/>
          <path id="Trazado_53566" data-name="Trazado 53566" d="M343.649,403.978H341.34v-2.309h-3.078v2.309h-2.309v3.079h2.309v2.308h3.078v-2.308h2.309Z" fill="#e33e4e"/>
          <path id="Trazado_53567" data-name="Trazado 53567" d="M344.419,409.365h4.617v1.54h-4.617Z" fill="#e33e4e"/>
        </g>
      </g>
      <g id="Grupo_25640" data-name="Grupo 25640">
        <path id="Trazado_53568" data-name="Trazado 53568" d="M368.278,397.131a5.072,5.072,0,0,0-7.429,0l-2.578,2.712-2.578-2.712a5.072,5.072,0,0,0-7.429,0,5.733,5.733,0,0,0,0,7.816l10.007,10.528,10.007-10.528a5.733,5.733,0,0,0,0-7.816Z" fill="#fdbf44"/>
        <path id="Trazado_53569" data-name="Trazado 53569" d="M359.811,409.365a.768.768,0,0,1-.652-.361l-3.121-4.993-.926,1.851a.768.768,0,0,1-.688.425h-2.309v-1.539h1.833l1.327-2.653a.77.77,0,0,1,1.341-.064l3.044,4.871.976-2.44a.77.77,0,0,1,.714-.484H365.2v1.539h-3.327l-1.345,3.365a.772.772,0,0,1-.647.481l-.068,0Z" fill="#fffcf8"/>
      </g>
    </g>
  </g>
</svg>
