<svg xmlns="http://www.w3.org/2000/svg" width="472.201" height="307.676" viewBox="0 0 472.201 307.676">
  <g id="Grupo_25864" data-name="Grupo 25864" transform="translate(-913.256 -338.029)">
    <path id="Trazado_54307" data-name="Trazado 54307" d="M1245.449,384.225c34.468,17.645,51.18,58.73,38.995,95.759a79.019,79.019,0,0,1-36.4,44.454l.008.006-.049.018a78.94,78.94,0,0,1-15.108,6.525c-4.2,1.314-8.393,2.663-12.495,4.268l-10.559,4.129a144.694,144.694,0,0,0-33.136,18.274c-9.211,6.784-20.206,14.885-25.949,19.116-.644.491-1.3.959-1.953,1.437-1.217.9-1.939,1.429-1.984,1.459l-.02-.014a125.014,125.014,0,0,1-121.239,12.955c-63.5-26.99-93.91-101.511-67.754-165.868,24.99-61.49,92.274-92.764,154.181-73.3l.01-.039,2.662.887c.356.121.711.233,1.067.356l31.917,10.639a187.884,187.884,0,0,0,47.619,9.27l16.021,1.006,0,.01A78.129,78.129,0,0,1,1245.449,384.225Z" transform="translate(39.787 9.898)" fill="#e9f1f6"/>
    <g id="Grupo_25854" data-name="Grupo 25854" transform="translate(913.256 365.396)">
      <path id="Trazado_54308" data-name="Trazado 54308" d="M949.034,479.4l.781,13.683s-6.381,1.2-10.406,1.537a125.735,125.735,0,0,1-15.509.231s8.082-4.6,12.736-6.112l1.8-10.671Z" transform="translate(-902.352 -219.49)" fill="#161124"/>
      <path id="Trazado_54309" data-name="Trazado 54309" d="M944.542,479.4l-.781,13.683s6.381,1.2,10.406,1.537a125.731,125.731,0,0,0,15.509.231s-8.079-4.6-12.736-6.112l-1.8-10.671Z" transform="translate(-882.007 -219.49)" fill="#161124"/>
      <path id="Trazado_54310" data-name="Trazado 54310" d="M975.063,381.056a99.47,99.47,0,0,0-2.571-18.447,5.819,5.819,0,0,1,4.962,6.7c3.832-.65,10.614-.176,10.667,1.1s-.889,1.727-1.972,1.614c.94.389,1.184.312,1.468,1.567s-.565,1.275-1.284,1.753c.83-.846,2.494.287,2.2,1.435a1.916,1.916,0,0,1-2.9.84c1.31.194,2.782,1.152,2,2.46-.492.82-8.223,2.282-12.351.972" transform="translate(-852.573 -340.215)" fill="#e89e8e"/>
      <path id="Trazado_54311" data-name="Trazado 54311" d="M974.578,367.193l-1.085,20.976,10.488-.656-1.808-15.076Z" transform="translate(-851.548 -335.519)" fill="#e89e8e"/>
      <path id="Trazado_54312" data-name="Trazado 54312" d="M964.479,372.88c5.853-2.6,7.594-11.146,3.816-16.315s-13.327-6.415-18.979-3.409c-2.759,1.468-3.306,3.737-5.922,5.45s-5.942,2.859-8.857,1.731c-1.087-.421-2.336-1.13-3.306-.484-1.474.984-.091,3.233,1.289,4.344a3.762,3.762,0,0,0,1.95,7.16,5.069,5.069,0,0,0-2.577,4.709,9.289,9.289,0,0,0,1.466,5.448c8.079,10.91,2.84,16.457,6.948,16.623,4.278.174,4.371-5.5,5.079-8.636a20.46,20.46,0,0,1,19.769-15.444" transform="translate(-895.752 -351.547)" fill="#241943"/>
      <path id="Trazado_54313" data-name="Trazado 54313" d="M983.356,434.8c.053-9.215-.148-21.708-.148-21.708L968.8,410.573H943.656l-14.616,3.514-.453,10.007a10.1,10.1,0,0,0,.091,1.31c-1.287,9.351-3.267,49.1-3.267,55.978,0,7.859,8.521,74.07,8.521,74.07,10.667,1.622,16.612.117,16.612.117s.251-51.4.251-67.566c0-5.763,1.97-34.367,2.247-48.566l-.324.2h4.11c.069,13.467,2.972,53.767,2.972,58.6,0,7.859,1.614,57.164,1.614,57.164,10.665,1.622,17.092-.607,17.092-.607s6.555-57.905,6.555-74.07C985.06,471.976,983.271,449.959,983.356,434.8Z" transform="translate(-900.806 -288.63)" fill="#85a0e9"/>
      <path id="Trazado_54314" data-name="Trazado 54314" d="M918.023,403.817c3.859-10.033,9.047-18.074,17.339-23.842,9.422-6.553,15.784,4.729,15.485,10.487a10.445,10.445,0,0,1-2.261,5.968l4.533-.891a82.184,82.184,0,0,0-17.756,17.815s-10.4,18.641,7.8,17.775V446.3s-20.376,3.468-27.312-11.272C910.982,424.674,913.687,415.089,918.023,403.817Z" transform="translate(-913.256 -323.818)" fill="#fff"/>
      <path id="Trazado_54315" data-name="Trazado 54315" d="M936.269,358.605l-.014,0,0,.024Z" transform="translate(-889.698 -344.317)" fill="#edb99a"/>
      <path id="Trazado_54316" data-name="Trazado 54316" d="M962.221,360.45c-1.717-.342-12.582-2.569-19.959,2.945-.036,2.652.982,5.638.946,8.29-.006.409-.164.964-.571.919-.223-.026-.368-.237-.486-.427l-.727-1.188c.559,1.4,1.2,4.077.156,4.436-.919.316-2.494-2.468-2.853-4.29a3.862,3.862,0,0,0-.789-.184,4.282,4.282,0,1,0,.915,8.3l-.316,12.76a10.075,10.075,0,0,0-.127,1.294,9.815,9.815,0,1,0,19.568-.733l.135-5.452c5.2-1.593,6.134-6.877,5.565-11.6S962.27,360.682,962.221,360.45Z" transform="translate(-892.836 -343.177)" fill="#e89e8e"/>
      <path id="Trazado_54317" data-name="Trazado 54317" d="M935.224,368.589a3.266,3.266,0,0,1,1.6-1.249,1.107,1.107,0,0,0-.619-.366,9.237,9.237,0,0,0-1.591-.227,2.257,2.257,0,0,1,2.421.342,2.4,2.4,0,0,1,.81,2.3s-.3-1.51-.869-1.816Z" transform="translate(-891.374 -336.182)" fill="#92445e"/>
      <path id="Trazado_54318" data-name="Trazado 54318" d="M948.435,373.254a15.225,15.225,0,0,1-5.8.451l5.658,5.237Z" transform="translate(-883.158 -329.31)" fill="#4c3254" style="mix-blend-mode: soft-light;isolation: isolate"/>
      <g id="Grupo_25849" data-name="Grupo 25849" transform="translate(63.695 19.287)">
        <path id="Trazado_54319" data-name="Trazado 54319" d="M949.045,363.659c.419-1.348-1.409-2.429-2.514-2.571-.6-.077-1.539.164-1.759.81-.239.706.387,1.037.931,1.265l-.449-.277a5.067,5.067,0,0,0,1.464.715c.474.231.958.694,1.512.648a.868.868,0,0,0,.816-.589Z" transform="translate(-944.719 -361.074)" fill="#241943"/>
      </g>
      <g id="Grupo_25850" data-name="Grupo 25850" transform="translate(53.473 19.696)">
        <path id="Trazado_54320" data-name="Trazado 54320" d="M940.269,364.245c.672.113,1.107-.231,1.713-.462a5.351,5.351,0,0,0,1.589-.624l-.461.253c.565-.18,1.192-.49.992-1.2a1.715,1.715,0,0,0-1.65-.933c-1.15.04-3.051.964-2.749,2.373a.813.813,0,0,0,.567.6Z" transform="translate(-939.67 -361.277)" fill="#241943"/>
      </g>
      <path id="Trazado_54321" data-name="Trazado 54321" d="M941.365,367.54c.336,1.6,2.01,3.16,4.861,1.85a6.281,6.281,0,0,1-2.812-.213A4.719,4.719,0,0,1,941.365,367.54Z" transform="translate(-884.461 -335.163)" fill="#92445e"/>
      <path id="Trazado_54322" data-name="Trazado 54322" d="M946.5,371.784l-3.666-.12,1.05-7.882,1.438.047Z" transform="translate(-882.952 -339.013)" fill="#4c3254" style="mix-blend-mode: soft-light;isolation: isolate"/>
      <path id="Trazado_54323" data-name="Trazado 54323" d="M944.31,369.165a3.309,3.309,0,1,0-3.415,3.2A3.31,3.31,0,0,0,944.31,369.165Z" transform="translate(-888.221 -336.999)" fill="#4c3254" opacity="0.75" style="mix-blend-mode: soft-light;isolation: isolate"/>
      <path id="Trazado_54324" data-name="Trazado 54324" d="M950.107,365.755a3.309,3.309,0,1,0,.539,6.26,19.4,19.4,0,0,0-.142-2.591C950.38,368.4,950.244,367.126,950.107,365.755Z" transform="translate(-879.661 -337.083)" fill="#4c3254" opacity="0.75" style="mix-blend-mode: soft-light;isolation: isolate"/>
      <path id="Trazado_54325" data-name="Trazado 54325" d="M996.363,376.037c.292,8.31-2.077,23.6-6.982,22.421-7.3-1.747-17.653-12.143-17.653-12.143L949.756,390.2S976.734,418.119,995,414.744c13.369-2.468,15.141-22.364,13.95-34.124" transform="translate(-875.865 -325.94)" fill="#e6938e"/>
      <path id="Trazado_54326" data-name="Trazado 54326" d="M970.535,411.735c-11.377-4.85-20.194-9.5-21.823-10l4.34-1.587a10.444,10.444,0,0,1-2.332-18.384c.2-.138.409-.255.615-.375l0-.042A8.648,8.648,0,0,1,956.081,380a16.4,16.4,0,0,1,2.061-.1c6.8.613,12.325,5.338,21.064,11.6,0,0,8.671,6.357,13.871,5.78s6.61-23.921,6.61-23.921l14.776.8s3.468,32.946-9.248,41.039C990.579,424.517,970.535,411.735,970.535,411.735Z" transform="translate(-879.501 -328.722)" fill="#fff"/>
      <path id="Trazado_54327" data-name="Trazado 54327" d="M944.959,375.807a11.945,11.945,0,0,0,20.24,0c7.991.962,13.786.188,20.915,6.3,2.824,1.893-1.806,11.661-2.318,12.906l-4.345,12.821-4.334,49.421s.743.986-19.912,1.075v0h-.249v0c-20.655-.089-27.324-.866-27.324-.866l.99-20.337-.016-29.948-2.051-10.308C926.043,395.62,936.971,376.769,944.959,375.807Z" transform="translate(-899.651 -326.063)" fill="#85a0e9"/>
      <g id="Grupo_25851" data-name="Grupo 25851" transform="translate(12.806 48.537)">
        <path id="Trazado_54328" data-name="Trazado 54328" d="M948.943,375.758l-.66.057c-.7-.028-1.415-.049-2.158-.057Z" transform="translate(-892.39 -374.315)" fill="#fff"/>
        <path id="Trazado_54329" data-name="Trazado 54329" d="M934.658,435.841l-.2-33.76c-.933-.245-29.786-14.092,11.511-26.218l5.9-.818,8.75,30.948,11.9-29.474,2.962.026c35.92,1.423,17.763,27.925,16.7,28.988l-2.456,29.334,13.11,85.532a120.418,120.418,0,0,1-41.294,7.211c-23.6,0-41.952-4.176-41.952-7.211C919.582,518.78,934.658,435.841,934.658,435.841Z" transform="translate(-919.582 -375.045)" fill="#fff"/>
      </g>
      <path id="Trazado_54330" data-name="Trazado 54330" d="M914.262,405.53c1.514-.808,4.152.239,6.176,2.543,2.2,2.508,2.842,5.549,1.425,6.794a1.528,1.528,0,0,1-.134.1A19.108,19.108,0,0,1,914.262,405.53Z" transform="translate(-912.226 -295.511)" fill="#e9f1f6" opacity="0.05"/>
      <path id="Trazado_54331" data-name="Trazado 54331" d="M970.729,398.952c-.4-1.67,1.286-3.956,4.027-5.328,2.986-1.494,6.091-1.338,6.936.348.024.051.041.1.061.156C979.208,396.571,975.568,398.312,970.729,398.952Z" transform="translate(-854.438 -308.731)" fill="#e9f1f6" opacity="0.05"/>
      <path id="Trazado_54332" data-name="Trazado 54332" d="M948.073,462.24c-.492,4.644,1.217,8.63,3.816,8.906s5.108-3.265,5.6-7.907-1.217-8.628-3.816-8.906S948.565,457.6,948.073,462.24Z" transform="translate(-877.676 -244.276)" fill="#4c3254" opacity="0.75" style="mix-blend-mode: soft-light;isolation: isolate"/>
      <path id="Trazado_54333" data-name="Trazado 54333" d="M928.306,463.23c.484,4.642,2.982,8.189,5.583,7.918s4.316-4.253,3.834-8.9-2.982-8.189-5.583-7.918S927.824,458.586,928.306,463.23Z" transform="translate(-897.922 -244.276)" fill="#4c3254" opacity="0.75" style="mix-blend-mode: soft-light;isolation: isolate"/>
      <g id="Grupo_25852" data-name="Grupo 25852" transform="translate(128.161 29.026)">
        <path id="Trazado_54334" data-name="Trazado 54334" d="M980.147,368.766a2.489,2.489,0,0,0-.818.279A.983.983,0,0,1,980.147,368.766Z" transform="translate(-973.73 -362.939)" fill="#e89e8e"/>
        <path id="Trazado_54335" data-name="Trazado 54335" d="M978.541,376.726c-.164-.737.492-1.474,2.377-2.049,0,0-2.541.737-3.031-.409s2.95-2.294,2.95-2.294-3.2.573-3.525-.328.86-1.8,3.442-2.541c0,0-3.359.984-4.1,0s3.1-3.3,4.492-3.219,2.662.352,2.869,1.312-.832,1.526-2,1.543c1.4.03,2.379.427,2.359,1.711-.014.958-1.7,1.326-1.391,1.259a1.521,1.521,0,0,1,1.379,1.715,1.764,1.764,0,0,1-1.822,1.178c-.263,0-.385-.01,0,0,.875.423,1.486,1.178.921,2.122a3.432,3.432,0,0,1-2.178.834C980.13,377.655,978.652,377.224,978.541,376.726Z" transform="translate(-976.563 -365.885)" fill="#e69382"/>
      </g>
      <path id="Trazado_54336" data-name="Trazado 54336" d="M944.463,388.725h-15.9l1.475,4.916,14.257-.983Z" transform="translate(-897.571 -312.774)" fill="#e9f1f6"/>
      <g id="Grupo_25853" data-name="Grupo 25853" transform="translate(55.946 26.514)">
        <path id="Trazado_54337" data-name="Trazado 54337" d="M945.268,365.72c-.018.536.164.976.409.984s.455-.421.474-.958-.164-.978-.409-.986S945.286,365.183,945.268,365.72Z" transform="translate(-936.41 -364.525)" fill="#92445e"/>
        <path id="Trazado_54338" data-name="Trazado 54338" d="M940.893,365.6c-.018.536.164.978.409.984s.455-.421.474-.958-.164-.978-.407-.984S940.911,365.065,940.893,365.6Z" transform="translate(-940.891 -364.644)" fill="#92445e"/>
      </g>
    </g>
    <g id="Grupo_25855" data-name="Grupo 25855" transform="translate(1018.84 459.865)">
      <ellipse id="Elipse_1390" data-name="Elipse 1390" cx="45.462" cy="8.486" rx="45.462" ry="8.486" transform="translate(25.141 165.325)" fill="#dbe2e8"/>
      <path id="Trazado_54339" data-name="Trazado 54339" d="M996.183,507.237h13.638v-50.2H999.283Z" transform="translate(-932.4 -335.503)" fill="#161124"/>
      <path id="Trazado_54340" data-name="Trazado 54340" d="M966.72,432.264c0,7.335,10.916,13.278,47.584,13.278s43.159-5.944,43.159-13.278-6.489-13.28-43.159-13.28S966.72,424.93,966.72,432.264Z" transform="translate(-962.584 -374.482)" fill="#dbe2e8"/>
      <path id="Trazado_54341" data-name="Trazado 54341" d="M1032.075,483.847s-66.4,1.986-67.391,25.785c-.923,22.218,95.685,19.339,117.62,10.76s77.109-72.042,85.905-96.082-19.856-27.939-43.61-27.233-45.833,4.537-94.152,85.233" transform="translate(-964.677 -397.002)" fill="#6b6bd6"/>
      <path id="Trazado_54342" data-name="Trazado 54342" d="M985.091,445.8c0,7.335,10.914,13.28,47.585,13.28s43.157-5.946,43.157-13.28-6.488-13.278-43.157-13.278S985.091,438.464,985.091,445.8Z" transform="translate(-943.764 -360.618)" fill="#dbe2e8"/>
    </g>
    <g id="Grupo_25857" data-name="Grupo 25857" transform="translate(1119.286 371.223)">
      <ellipse id="Elipse_1391" data-name="Elipse 1391" cx="45.462" cy="8.486" rx="45.462" ry="8.486" transform="translate(76.876 253.967)" fill="#dbe2e8"/>
      <path id="Trazado_54343" data-name="Trazado 54343" d="M1080.3,614.468h-7.2l2.4-258.936h4.8Z" transform="translate(-952.992 -353.292)" fill="#dbe2e8"/>
      <g id="Grupo_25856" data-name="Grupo 25856" transform="translate(0 53.464)">
        <path id="Trazado_54344" data-name="Trazado 54344" d="M1015.1,485.29c6.567-4.379,14.849-5.008,22.261-2.567a34.8,34.8,0,0,1,10.6,6.027c3.318,2.62,6.476,5.466,10.092,7.685a41.288,41.288,0,0,0,24.488,6.033,25.238,25.238,0,0,0,11.272-3.506,31.3,31.3,0,0,0,6.958-5.78,37.59,37.59,0,0,0,8.782-18.173c1.087-5.7.828-11.533.828-17.311V381.274a.906.906,0,0,0-1.81,0v79.783c0,2.494.065,5-.06,7.492a38.875,38.875,0,0,1-6.4,20.02c-3.49,5.118-8.687,9.6-14.746,11.262a32.5,32.5,0,0,1-12.665.609,39.852,39.852,0,0,1-12.061-3.567,52.785,52.785,0,0,1-10.513-7.065,54.5,54.5,0,0,0-10.189-7.154c-6.972-3.427-15.341-4.3-22.688-1.52a25.208,25.208,0,0,0-5.061,2.6c-.964.642-.059,2.209.913,1.561Z" transform="translate(-1013.771 -380.4)" fill="#dbe2e8"/>
      </g>
      <path id="Trazado_54345" data-name="Trazado 54345" d="M1083.708,360.557h-29.974s-5.213,40.4,14.987,40.4S1083.708,360.557,1083.708,360.557Z" transform="translate(-973.45 -348.145)" fill="#dbe2e8"/>
      <path id="Trazado_54346" data-name="Trazado 54346" d="M1055.182,369.941c.765,7.976,3.466,16.4,11.466,16.4,7.8,0,10.566-8.013,11.406-15.811" transform="translate(-971.348 -338.531)" fill="#fff"/>
      <path id="Trazado_54347" data-name="Trazado 54347" d="M1059.236,379.336c.217,2.251,1.274,5.83,3.237,5.83s2.982-3.464,3.219-5.664" transform="translate(-967.195 -328.436)" fill="#dbe2e8"/>
      <path id="Trazado_54348" data-name="Trazado 54348" d="M1056.3,370.326h20.6l1.1-5.6H1055.2Z" transform="translate(-971.331 -343.873)" fill="#fff"/>
      <path id="Trazado_54349" data-name="Trazado 54349" d="M1058.894,365.151l7.841.2c-.261-2.735-1.545-7.079-3.929-7.079S1059.184,362.479,1058.894,365.151Zm2.749-3.225a1.2,1.2,0,1,1,1.2,1.2A1.2,1.2,0,0,1,1061.643,361.926Z" transform="translate(-967.545 -350.483)" fill="#dbe2e8"/>
      <path id="Trazado_54350" data-name="Trazado 54350" d="M1053.928,360.828h80.027v-6.4l-80.027,2.4Z" transform="translate(-972.633 -354.426)" fill="#dbe2e8"/>
    </g>
    <g id="Grupo_25862" data-name="Grupo 25862" transform="translate(1238.128 364.113)">
      <path id="Trazado_54351" data-name="Trazado 54351" d="M1120.19,370.6c-4.853-3.646-5.672-11.57-1.67-16.131s11.968-4.776,16.212-.437,3.848,12.3-.8,16.2a13.993,13.993,0,0,1-6.812,2.919c-3.476.553-7.478-.105-9.632-2.889" transform="translate(-1026.703 -350.913)" fill="#161124"/>
      <path id="Trazado_54352" data-name="Trazado 54352" d="M1114.671,386.862c-4.7-.2-8.081-4.924-8.83-9.566a18.14,18.14,0,0,1,6.442-16.71,21.8,21.8,0,0,1,8.833-4.069,22.472,22.472,0,0,1,15.87,1.931c4.747,2.678,8.256,7.739,8.41,13.187a30.437,30.437,0,0,1-.826,8.138,15.5,15.5,0,0,1-6.191,8.737c-3.174,2.292-8.28,2.269-10.484-.966" transform="translate(-1037.298 -345.815)" fill="#241943"/>
      <path id="Trazado_54353" data-name="Trazado 54353" d="M1122.519,368.927a1.051,1.051,0,1,0-.95,1.144A1.051,1.051,0,0,0,1122.519,368.927Z" transform="translate(-1022.142 -333.437)" fill="#fff"/>
      <path id="Trazado_54354" data-name="Trazado 54354" d="M1118.882,361.053l.014,0,0,.024Z" transform="translate(-1023.719 -340.526)" fill="#edb99a"/>
      <path id="Trazado_54355" data-name="Trazado 54355" d="M1108.411,364.727c1.634-.429,13.827-6.1,21.244-1.209.187,2.549-.8,11.774-.7,11.586.211-.4.217-.561,2.687-1.429a3.655,3.655,0,0,1,.751-.223,4.13,4.13,0,1,1-.409,8.045l1.032,12.268a9.461,9.461,0,1,1-18.667,2.824,9.138,9.138,0,0,1-.018-1.176l-.441-5.241c-5.1-1.237-6.3-6.272-6.021-10.855S1108.378,364.954,1108.411,364.727Z" transform="translate(-1035.042 -340.026)" fill="#e89e8e"/>
      <path id="Trazado_54356" data-name="Trazado 54356" d="M1121.983,370.579a3.163,3.163,0,0,0-1.613-1.111s.1-.2.575-.387a8.721,8.721,0,0,1,1.518-.31,2.175,2.175,0,0,0-2.31.468,2.3,2.3,0,0,0-.65,2.263s.2-1.472.732-1.8Z" transform="translate(-1023.168 -332.763)" fill="#92445e"/>
      <path id="Trazado_54357" data-name="Trazado 54357" d="M1110.924,375.787a14.706,14.706,0,0,0,5.608.105l-5.148,5.363Z" transform="translate(-1031.871 -325.432)" fill="#4c3254" opacity="0.75" style="mix-blend-mode: soft-light;isolation: isolate"/>
      <path id="Trazado_54358" data-name="Trazado 54358" d="M1116.579,370.1c-.231,1.555-1.755,3.158-4.573,2.059a6.711,6.711,0,0,0,2.658-.451A4.9,4.9,0,0,0,1116.579,370.1Z" transform="translate(-1030.763 -331.259)" fill="#92445e"/>
      <path id="Trazado_54359" data-name="Trazado 54359" d="M1115.315,371.545a3.191,3.191,0,1,1,3.47,2.885A3.192,3.192,0,0,1,1115.315,371.545Z" transform="translate(-1027.387 -333.346)" fill="#4c3254" opacity="0.75" style="mix-blend-mode: soft-light;isolation: isolate"/>
      <path id="Trazado_54360" data-name="Trazado 54360" d="M1108.037,368.633a3.19,3.19,0,1,1,1.2,6.235,3.138,3.138,0,0,1-1.359-.178,19.15,19.15,0,0,1-.012-2.5C1107.925,371.2,1107.984,369.961,1108.037,368.633Z" transform="translate(-1035.041 -332.897)" fill="#4c3254" opacity="0.75" style="mix-blend-mode: soft-light;isolation: isolate"/>
      <path id="Trazado_54361" data-name="Trazado 54361" d="M1111.352,374.235l3.465-.244-1.274-7.421-1.359.1Z" transform="translate(-1031.433 -334.874)" fill="#4c3254" opacity="0.75" style="mix-blend-mode: soft-light;isolation: isolate"/>
      <g id="Grupo_25858" data-name="Grupo 25858" transform="translate(75.631 28.396)">
        <path id="Trazado_54362" data-name="Trazado 54362" d="M1109.343,366.981c-.53-.662.99-1.617,1.968-1.913.535-.16,1.4-.213,1.674.1.3.344-.229.648-.692.881l.373-.239a6.441,6.441,0,0,1-1.235.68,4.094,4.094,0,0,1-1.288.656.844.844,0,0,1-.8-.166Z" transform="translate(-1109.234 -364.94)" fill="#161124"/>
      </g>
      <g id="Grupo_25859" data-name="Grupo 25859" transform="translate(84.844 27.863)">
        <path id="Trazado_54363" data-name="Trazado 54363" d="M1117.251,366.457a4.181,4.181,0,0,1-1.551-.342,6.866,6.866,0,0,1-1.429-.429l.413.164c-.51-.128-1.071-.334-.85-.725.193-.338,1.024-.484,1.563-.441,1.055.079,2.755.692,2.405,1.468a.685.685,0,0,1-.551.306Z" transform="translate(-1113.785 -364.676)" fill="#161124"/>
      </g>
      <g id="Grupo_25860" data-name="Grupo 25860" transform="translate(76.777 33.283)">
        <path id="Trazado_54364" data-name="Trazado 54364" d="M1110.7,368.5c.026.544-.152,1-.4,1.006s-.47-.421-.5-.966.152-.994.4-1.006S1110.671,367.959,1110.7,368.5Z" transform="translate(-1109.8 -367.165)" fill="#813d60"/>
        <path id="Trazado_54365" data-name="Trazado 54365" d="M1115.139,368.32c.026.545-.152.994-.4,1.006s-.469-.421-.5-.966.152-1,.4-1.006S1115.113,367.775,1115.139,368.32Z" transform="translate(-1105.251 -367.354)" fill="#813d60"/>
      </g>
      <path id="Trazado_54366" data-name="Trazado 54366" d="M1121.276,370.984a.56.56,0,1,0-.486.624A.559.559,0,0,0,1121.276,370.984Z" transform="translate(-1022.41 -330.854)" fill="#f2eaee"/>
      <path id="Trazado_54367" data-name="Trazado 54367" d="M1131.517,481.4l.626,13.691s6.472.543,10.508.462a125.467,125.467,0,0,0,15.453-1.362s-8.511-3.745-13.3-4.774l-2.883-10.428Z" transform="translate(-1010.775 -217.261)" fill="#161124"/>
      <path id="Trazado_54368" data-name="Trazado 54368" d="M1124.624,481.772l.782,13.683s-6.383,1.2-10.406,1.539a125.543,125.543,0,0,1-15.511.229s8.082-4.6,12.736-6.112l1.8-10.669Z" transform="translate(-1043.587 -215.77)" fill="#161124"/>
      <path id="Trazado_54369" data-name="Trazado 54369" d="M1113.569,413.422l.229-.044,12.218-2.427,6.187,1.707,11.515,12.2a10.516,10.516,0,0,1,.166,1.3c3.085,8.922,12.77,47.522,14.11,54.269,1.532,7.709,6.076,74.311,6.076,74.311-10.144,3.668-16.271,3.352-16.271,3.352s-10.262-50.368-13.412-66.223c-1.124-5.652-8.628-33.324-11.667-47.2l.358.138-2.15.427" transform="translate(-1029.162 -286.96)" fill="#62cca2"/>
      <path id="Trazado_54370" data-name="Trazado 54370" d="M1131.326,443.833h-1.917c-.069,13.465-2.972,53.765-2.972,58.6,0,7.861-1.615,57.164-1.615,57.164-10.665,1.624-17.092-.605-17.092-.605s-6.556-57.905-6.556-74.07c0-8.75,1.792-30.767,1.7-45.93-.053-9.215,10.234-25.686,10.234-25.686l4.036-2.118h12.456" transform="translate(-1041.859 -286.722)" fill="#62cca2"/>
      <path id="Trazado_54371" data-name="Trazado 54371" d="M1141.7,378.185a11.889,11.889,0,0,1-10.12,5.6c-7.067-.036-8.754-5.193-8.754-5.193-7.988.962-15.153-.217-22.279,5.891-2.826,1.893,1.806,11.661,2.318,12.906l4.059,9.24,4.335,49.421s-.458,4.565,20.2,4.656v0h.247v0c20.657-.091,27.323-.868,27.323-.868l-7.247-21.562,6.274-28.721,2.051-10.308C1160.612,398,1149.686,379.147,1141.7,378.185Z" transform="translate(-1043.435 -322.287)" fill="#62cca2"/>
      <g id="Grupo_25861" data-name="Grupo 25861" transform="translate(47.516 55.193)">
        <path id="Trazado_54372" data-name="Trazado 54372" d="M1108.532,378.136l.66.059c.7-.028,2.782.356,3.525.346Z" transform="translate(-1081.838 -377.174)" fill="#fff"/>
        <path id="Trazado_54373" data-name="Trazado 54373" d="M1159.7,436.161l4.018-31.944c.933-.245,29.787-14.092-11.509-26.218l-6.2-.338-8.454,30.468-10.529-29.069-4.33-.379c-35.918,1.423-17.763,27.923-16.7,28.986l7.784,27.611a206.908,206.908,0,0,0-12.363,39.736c-4.416,22.076-6.076,47.522-6.076,47.522a120.468,120.468,0,0,0,41.3,7.209c23.6,0,42.246-4.191,41.952-7.209C1172.064,455.588,1159.7,436.161,1159.7,436.161Z" transform="translate(-1095.346 -377.661)" fill="#fff"/>
      </g>
      <path id="Trazado_54374" data-name="Trazado 54374" d="M1112.826,464.619c.494,4.642-1.217,8.63-3.816,8.906s-5.106-3.265-5.6-7.907,1.216-8.63,3.816-8.906S1112.334,459.975,1112.826,464.619Z" transform="translate(-1039.654 -240.545)" fill="#4c3254" opacity="0.75" style="mix-blend-mode: soft-light;isolation: isolate"/>
      <path id="Trazado_54375" data-name="Trazado 54375" d="M1140.083,462.786c.431,4.65-1.328,8.614-3.932,8.855s-5.065-3.33-5.5-7.98,1.33-8.612,3.934-8.855S1139.652,458.138,1140.083,462.786Z" transform="translate(-1011.725 -242.53)" fill="#4c3254" opacity="0.75" style="mix-blend-mode: soft-light;isolation: isolate"/>
      <path id="Trazado_54376" data-name="Trazado 54376" d="M1132.978,376.635a5.13,5.13,0,0,1-6.863,3.846c1.974-1.972,3.6-4.79,2.775-7.456-1.184-3.838-6.316-4.6-10.276-3.923s-8.329,1.994-11.754-.1c-.6-.368,3.03-2.547,2.794-3.209-.68-1.883-2.723-1.8-.915-2.662l5.28-2.5c3.618-1.717,7.413-3.472,11.416-3.334s8.223,2.836,8.642,6.818" transform="translate(-1036.103 -344.389)" fill="#241943"/>
      <path id="Trazado_54377" data-name="Trazado 54377" d="M1081.514,395.845c-2.164-2.429-3.318-4.031-3.318-4.031l.052-.053a29.076,29.076,0,0,1-4.719-3.992,3.281,3.281,0,0,1-.526-1.059.687.687,0,0,1,.247-.739c.231-.136.508-.022.761.053,1.176.346,1.674.785,4.36,2.12a25.41,25.41,0,0,1-5.812-4.383c-.557-.591-.757-1.073-.662-1.425.107-.391.522-.46.907-.421a8.279,8.279,0,0,1,3.091,1.3c1.911,1.063,1.3.69,3.206,1.753-1.824-1.322-6.031-4.456-5.762-5.383s2.3-.105,2.887.255c2.144,1.318,2.529,1.306,4.671,2.626-2.7-1.9-5.816-4.193-5.221-4.942s6.3,2.348,8.523,4.184c.067-1.952.336-4.126,1.251-3.539,1.055.674,2.261,7.99,2.923,10.351.2.17.5,2.561.715,2.739" transform="translate(-1071.875 -323.262)" fill="#e89e8e"/>
      <path id="Trazado_54378" data-name="Trazado 54378" d="M1087.341,385.466c2.108,8.045,8.77,22.006,13.133,19.471,6.484-3.77,13.418-16.7,13.418-16.7l22.159-2.6s-17.817,34.5-36.278,36.515c-13.515,1.478-20.931-17.07-23.169-28.676" transform="translate(-1067.031 -314.809)" fill="#e6938e"/>
      <path id="Trazado_54379" data-name="Trazado 54379" d="M1127.282,414.565c9.5-7.914,16.613-14.9,18.026-15.853l-4.612-.273a10.443,10.443,0,0,0-3.051-18.279c-.231-.073-.464-.125-.7-.182l-.008-.04a8.624,8.624,0,0,0-4.933.079,16.162,16.162,0,0,0-2,.5c-6.335,2.541-10.272,8.654-16.841,17.161,0,0-6.478,8.582-11.626,9.523s-13.205-21.012-13.205-21.012l-13.924,5.013s6.148,32.555,20.653,36.65C1111.757,432.568,1127.282,414.565,1127.282,414.565Z" transform="translate(-1069.28 -320.894)" fill="#fff"/>
      <path id="Trazado_54380" data-name="Trazado 54380" d="M1096.475,405.813c-.1-1.713-2.369-3.417-5.389-3.944-3.29-.575-6.219.468-6.543,2.326-.008.055-.008.109-.012.166C1087.669,405.971,1091.657,406.592,1096.475,405.813Z" transform="translate(-1058.909 -297.958)" fill="#e9f1f6" opacity="0.05"/>
      <path id="Trazado_54381" data-name="Trazado 54381" d="M1129.986,417.137c-3.051,1.134-4.96,1.628-4.96,1.628L1125,418.7a29.27,29.27,0,0,1-5.433,2.948,3.286,3.286,0,0,1-1.178.105.686.686,0,0,1-.6-.5c-.042-.263.164-.482.326-.69.749-.97,1.34-1.275,3.559-3.294a25.412,25.412,0,0,1-6.195,3.824c-.753.306-1.275.316-1.569.1-.324-.241-.239-.654-.063-1a8.314,8.314,0,0,1,2.338-2.407c1.684-1.393,1.113-.958,2.8-2.35-1.895,1.219-6.341,4-7.108,3.415s.737-2.184,1.285-2.6c2.006-1.518,2.136-1.881,4.142-3.4-2.749,1.83-6.019,3.9-6.5,3.071s4.474-5.013,6.992-6.419c-1.794-.771-3.721-1.812-2.843-2.454,1.01-.737,8.266.8,10.705,1.037.233-.128,2.567.464,2.812.328" transform="translate(-1032.032 -292.559)" fill="#e89e8e"/>
      <path id="Trazado_54382" data-name="Trazado 54382" d="M1121.468,429.3c8.26.957,23.686-.18,22.909-5.164-1.158-7.412-10.691-18.568-10.691-18.568l5.63-21.591s25.67,29.128,20.845,47.062c-3.533,13.128-23.5,13.3-35.132,11.175" transform="translate(-1021.07 -316.295)" fill="#e6938e"/>
      <path id="Trazado_54383" data-name="Trazado 54383" d="M1145.346,382.672a9.66,9.66,0,0,0-14.046,1.5c-.152.188-.285.387-.423.583l-.041-.008a8.64,8.64,0,0,0-1.719,4.626,16.8,16.8,0,0,0-.259,2.049c.067,6.824,4.334,12.711,9.875,21.925,0,0,5.642,9.151,4.65,14.291s-24.372,4.672-24.372,4.672l-.387,14.793s31.442,5.16,41.649-5.932C1172.058,428.367,1159.695,394.591,1145.346,382.672Z" transform="translate(-1023.982 -320.105)" fill="#fff"/>
      <path id="Trazado_54384" data-name="Trazado 54384" d="M1144.8,405.548c-1.634-.528-4.047.966-5.634,3.589-1.729,2.856-1.822,5.964-.209,6.94.048.03.1.049.15.073A19.1,19.1,0,0,0,1144.8,405.548Z" transform="translate(-1004.333 -294.044)" fill="#e9f1f6" opacity="0.05"/>
      <path id="Trazado_54385" data-name="Trazado 54385" d="M1119.631,391.1h15.9l-1.475,4.916-14.257-.983Z" transform="translate(-1022.952 -309.015)" fill="#e9f1f6" opacity="0.05"/>
    </g>
    <g id="Grupo_25863" data-name="Grupo 25863" transform="translate(917.963 338.029)">
      <circle id="Elipse_1392" data-name="Elipse 1392" cx="3.652" cy="3.652" r="3.652" transform="translate(104.873 7.182) rotate(-79.481)" fill="#badfff"/>
      <circle id="Elipse_1393" data-name="Elipse 1393" cx="5.184" cy="5.184" r="5.184" transform="translate(340.615 222.401)" fill="#badfff"/>
      <path id="Trazado_54386" data-name="Trazado 54386" d="M1101.381,465.558a4.3,4.3,0,1,1-4.3-4.3A4.3,4.3,0,0,1,1101.381,465.558Z" transform="translate(-734.049 -211.786)" fill="none" stroke="#badfff" stroke-miterlimit="10" stroke-width="1"/>
      <circle id="Elipse_1394" data-name="Elipse 1394" cx="2.708" cy="2.708" r="2.708" transform="translate(377.372 21.482)" fill="none" stroke="#badfff" stroke-miterlimit="10" stroke-width="1"/>
      <path id="Trazado_54387" data-name="Trazado 54387" d="M918.6,429.812a1.508,1.508,0,1,1-1.508-1.508A1.508,1.508,0,0,1,918.6,429.812Z" transform="translate(-915.581 -245.547)" fill="#badfff"/>
      <path id="Trazado_54388" data-name="Trazado 54388" d="M973.043,355.185a5.207,5.207,0,1,1-5.207-5.207A5.205,5.205,0,0,1,973.043,355.185Z" transform="translate(-867.383 -325.787)" fill="none" stroke="#badfff" stroke-miterlimit="10" stroke-width="1"/>
    </g>
  </g>
</svg>
