<svg xmlns="http://www.w3.org/2000/svg" width="568" height="296.33" viewBox="0 0 568 296.33">
  <g id="Grupo_25615" data-name="Grupo 25615" transform="translate(-401 7344)">
    <g id="Grupo_25454" data-name="Grupo 25454" transform="translate(89.222 -7508.893)">
      <circle id="Elipse_1351" data-name="Elipse 1351" cx="76.384" cy="76.384" r="76.384" transform="translate(311.778 254.568)" fill="#badfff"/>
      <path id="Trazado_52954" data-name="Trazado 52954" d="M552.768,205.915a41.079,41.079,0,0,1,52.208,50.29l0,0-.01.025a41.282,41.282,0,0,1-3.19,7.961c-1.071,2.032-2.124,4.071-3.053,6.171l-2.388,5.406a75.766,75.766,0,0,0-5.548,18.907c-.919,5.879-2.017,12.9-2.59,16.564-.057.416-.129.829-.194,1.245-.122.777-.194,1.238-.2,1.265l-.012.005a65.873,65.873,0,1,1-95.528-69.835l-.01-.017,1.307-.657c.174-.087.346-.177.523-.264l15.668-7.891A98.8,98.8,0,0,0,530.715,220.9l6.28-5.546.005,0A41.1,41.1,0,0,1,552.768,205.915Z" transform="translate(216.469 58.137)" fill="#badfff"/>
      <path id="Trazado_52955" data-name="Trazado 52955" d="M389.226,266.057c12.416-41.074,66.812-87.627,133.05-73.513,19.176,4.086,31.139,11.868,38.467,28.7,12.249,28.128,1.18,53.037-8.551,64.023-9.443,10.655-24.047,15.558-32.67,26.926a34.589,34.589,0,0,0-6.888,21.98c.13,3.446.777,6.9.421,10.329-.7,6.815-5.463,12.518-11.021,16.3-15.167,10.314-53.062,15.675-82.906-4.537C383.13,331.878,384.231,282.587,389.226,266.057Z" transform="translate(111.601 37.361)" fill="#badfff"/>
      <g id="Grupo_25302" data-name="Grupo 25302" transform="translate(331.133 164.893)">
        <circle id="Elipse_1352" data-name="Elipse 1352" cx="7.585" cy="7.585" r="7.585" transform="translate(0 48.741) rotate(-79.481)" fill="#badfff"/>
        <circle id="Elipse_1353" data-name="Elipse 1353" cx="10.766" cy="10.766" r="10.766" transform="translate(383.216 35.082)" fill="#badfff"/>
        <path id="Trazado_52956" data-name="Trazado 52956" d="M517.3,179.915a4.741,4.741,0,1,1-4.741-4.741A4.743,4.743,0,0,1,517.3,179.915Z" transform="translate(-39.018 -149.573)" fill="none" stroke="#badfff" stroke-miterlimit="10" stroke-width="1"/>
        <circle id="Elipse_1354" data-name="Elipse 1354" cx="5.623" cy="5.623" r="5.623" transform="translate(281.944 10.905)" fill="none" stroke="#badfff" stroke-miterlimit="10" stroke-width="1"/>
        <path id="Trazado_52957" data-name="Trazado 52957" d="M392.935,168.026a3.131,3.131,0,1,1-3.13-3.133A3.131,3.131,0,0,1,392.935,168.026Z" transform="translate(-219.533 -164.893)" fill="#badfff"/>
        <path id="Trazado_52958" data-name="Trazado 52958" d="M361.156,172.434a3.161,3.161,0,1,1-3.16-3.162A3.162,3.162,0,0,1,361.156,172.434Z" transform="translate(-266.975 -158.368)" fill="none" stroke="#badfff" stroke-miterlimit="10" stroke-width="1"/>
      </g>
      <path id="Trazado_52959" data-name="Trazado 52959" d="M364.03,190.678a17.58,17.58,0,0,1,2.176-2.072c3.19-2.139,7.05-.632,8.312,3.18a7.246,7.246,0,0,1-.979,6.225,24.039,24.039,0,0,1-6.629,6.808c-.779.578-1.6,1.111-2.413,1.634a.691.691,0,0,1-.6.062,28.424,28.424,0,0,1-8.917-8.138,7.663,7.663,0,0,1-1.382-5.946,5.536,5.536,0,0,1,10.072-2.341c.149.2.286.406.431.608C364.115,190.708,364.14,190.708,364.03,190.678Z" transform="translate(62.104 33.878)" fill="#e33e4e"/>
      <path id="Trazado_52960" data-name="Trazado 52960" d="M471.148,199.376a17.546,17.546,0,0,1,2.176-2.069c3.19-2.141,7.05-.632,8.312,3.177a7.246,7.246,0,0,1-.979,6.225,24.007,24.007,0,0,1-6.629,6.808c-.779.578-1.6,1.111-2.413,1.634a.682.682,0,0,1-.6.062,28.365,28.365,0,0,1-8.917-8.138,7.658,7.658,0,0,1-1.382-5.944,5.537,5.537,0,0,1,10.073-2.343c.149.2.286.406.431.608C471.233,199.409,471.258,199.409,471.148,199.376Z" transform="translate(221.722 46.841)" fill="#e33e4e"/>
      <g id="Grupo_25354" data-name="Grupo 25354" transform="translate(324.664 204.125)">
        <path id="Trazado_52961" data-name="Trazado 52961" d="M483.425,276.817c-16.041,0-29.543,1.444-33.589,3.411-13.743-1.718-34.6-2.811-57.948-2.811-41.386,0-74.935,3.439-74.935,7.682s33.549,7.682,74.935,7.682c39.976,0,72.639-3.21,74.816-7.254,4.963.363,10.66.57,16.721.57,19.236,0,34.832-2.077,34.832-4.642S502.661,276.817,483.425,276.817Z" transform="translate(-316.953 -37.345)" fill="#85a0e9"/>
        <g id="Grupo_25353" data-name="Grupo 25353" transform="translate(2.864)">
          <g id="Grupo_25306" data-name="Grupo 25306" transform="translate(0 88.614)">
            <g id="Grupo_25303" data-name="Grupo 25303" transform="translate(4.863 107.714)">
              <path id="Trazado_52962" data-name="Trazado 52962" d="M435.69,302.635H413.924a3.529,3.529,0,0,1-3.23-2.112l-10.7-24.418h3.723a35.676,35.676,0,0,0,27.172-12.555l3.456-4.059h-89.6a20.116,20.116,0,0,0,19.806,16.614h3.459l10.971,21.4a3.526,3.526,0,0,1-3.138,5.135h-44.2a14,14,0,0,0-10.929,5.252l-.655.819h127.17A14,14,0,0,0,435.69,302.635Z" transform="translate(-320.056 -259.491)" fill="#5656ac"/>
              <path id="Trazado_52963" data-name="Trazado 52963" d="M347.147,292.693h38.081a3.528,3.528,0,0,1-3.23-2.112l-10.7-24.418H339.313l10.971,21.4A3.526,3.526,0,0,1,347.147,292.693Z" transform="translate(-291.361 -249.549)" fill="#28287d"/>
            </g>
            <g id="Grupo_25305" data-name="Grupo 25305">
              <path id="Trazado_52964" data-name="Trazado 52964" d="M436.242,319.521,424,319.69l-10.082.042-2.52.01-1.26,0c-.192,0-.463.008-.59,0l-.433-.018a16.655,16.655,0,0,1-1.723-.139,17.009,17.009,0,0,1-1.688-.369,14.683,14.683,0,0,1-9.741-8.728l-20.195-89.445a6.176,6.176,0,0,0-7.328-4.671H320.056l8.613,33.355,15.683,69.121,41.724,10.359,5.314-3.033a27.712,27.712,0,0,0,10.722,5.832,25.886,25.886,0,0,0,6.522,1.036l.827.032c.294.01.443,0,.672.007l1.26,0,2.52.01,10.082.042,12.246.169h.057a6.9,6.9,0,1,0-.057-13.79Z" transform="translate(-315.193 -216.234)" fill="#6b6bd6"/>
              <path id="Trazado_52965" data-name="Trazado 52965" d="M330.292,221.047,350.6,311l-.237-.817a14.673,14.673,0,0,0,9.863,9.037,17.011,17.011,0,0,0,1.688.369,16.6,16.6,0,0,0,1.723.139l.433.018c.127.01.4,0,.588,0l1.263,0,2.52-.01,10.08-.042,40.327-.169a6.9,6.9,0,1,1,.06,13.79h-.06l-40.327-.169-10.08-.042-2.52-.01-1.263,0c-.227,0-.379,0-.67-.007l-.827-.032a25.838,25.838,0,0,1-6.522-1.036,27.787,27.787,0,0,1-11.407-6.432,28.855,28.855,0,0,1-4.256-5.035,29.994,29.994,0,0,1-2.946-5.889l-.144-.393-.092-.426-19.555-90.12a6.169,6.169,0,0,1,12.047-2.667Z" transform="translate(-318.103 -216.234)" fill="#dbf9ff"/>
              <g id="Grupo_25304" data-name="Grupo 25304" transform="translate(21.601 16.006)">
                <path id="Trazado_52966" data-name="Trazado 52966" d="M361.886,224.263H327.58a.8.8,0,1,1,0-1.6h34.306a.8.8,0,0,1,0,1.6Z" transform="translate(-326.778 -222.662)" fill="#4949d6"/>
                <path id="Trazado_52967" data-name="Trazado 52967" d="M363.14,229.165H328.833a.8.8,0,0,1,0-1.6H363.14a.8.8,0,1,1,0,1.6Z" transform="translate(-324.906 -215.354)" fill="#4949d6"/>
                <path id="Trazado_52968" data-name="Trazado 52968" d="M364.395,234.07H330.088a.8.8,0,0,1,0-1.6h34.306a.8.8,0,0,1,0,1.6Z" transform="translate(-323.036 -208.048)" fill="#4949d6"/>
                <path id="Trazado_52969" data-name="Trazado 52969" d="M365.65,238.974H331.343a.8.8,0,0,1,0-1.6H365.65a.8.8,0,1,1,0,1.6Z" transform="translate(-321.166 -200.741)" fill="#4949d6"/>
                <path id="Trazado_52970" data-name="Trazado 52970" d="M366.907,243.876H332.6a.8.8,0,1,1,0-1.6h34.309a.8.8,0,0,1,0,1.6Z" transform="translate(-319.296 -193.433)" fill="#4949d6"/>
                <path id="Trazado_52971" data-name="Trazado 52971" d="M368.162,248.781H333.856a.8.8,0,1,1,0-1.6h34.306a.8.8,0,0,1,0,1.6Z" transform="translate(-317.426 -186.127)" fill="#4949d6"/>
                <path id="Trazado_52972" data-name="Trazado 52972" d="M369.416,253.683H335.109a.8.8,0,1,1,0-1.6h34.306a.8.8,0,1,1,0,1.6Z" transform="translate(-315.554 -178.82)" fill="#4949d6"/>
              </g>
            </g>
          </g>
          <g id="Grupo_25342" data-name="Grupo 25342" transform="translate(18.491 38.205)">
            <path id="Trazado_52973" data-name="Trazado 52973" d="M383.462,254.912H355.279a10.887,10.887,0,0,1-10.887-10.887h49.957A10.887,10.887,0,0,1,383.462,254.912Z" transform="translate(-297.421 -124.414)" fill="#4141ac"/>
            <g id="Grupo_25309" data-name="Grupo 25309" transform="translate(40.33 76.129)">
              <g id="Grupo_25308" data-name="Grupo 25308">
                <g id="Grupo_25307" data-name="Grupo 25307" transform="translate(57.4 22.329)">
                  <path id="Trazado_52974" data-name="Trazado 52974" d="M380.977,237.064l-1.183-1.036a1.959,1.959,0,0,0-2.012-.364l-6.437,2.56-1.793-2.072a1.48,1.48,0,0,0-2.251-.025l-1.529,1.8a4.289,4.289,0,0,0-.8,4.051l1.043,3.349a8.954,8.954,0,0,0,.767,1.773l2.881,5.082a3.945,3.945,0,0,0,3.314,2l4.368.129a2.35,2.35,0,0,0,1.84-.829l2.094-2.468a2.456,2.456,0,0,0,.408-2.458l-1.87-4.968,1.713-4.266A2.019,2.019,0,0,0,380.977,237.064Z" transform="translate(-364.776 -235.53)" fill="#f99"/>
                </g>
                <path id="Trazado_52975" data-name="Trazado 52975" d="M404.663,257.953l-28.587-4.664-15.284-26.726-19.067,10.511,24.416,30.317a8.212,8.212,0,0,0,5.645,3.025,37.272,37.272,0,0,0,7.458.174l29.862-5.4Z" transform="translate(-341.725 -226.563)" fill="#f99"/>
                <path id="Trazado_52976" data-name="Trazado 52976" d="M355.879,254.649a74.435,74.435,0,0,1,15.977-8.74l-11.064-19.346-19.067,10.511Z" transform="translate(-341.725 -226.563)" fill="#248ab3"/>
              </g>
              <path id="Trazado_52977" data-name="Trazado 52977" d="M371.247,246.4c1.564-.518,4.923-1.454,6.467-1.768a15.261,15.261,0,0,0-6.489.667c-.055.022-.608.134-.862-1.285-.052-.294.256-.533.518-.68,1.631-.931,4.091-2.473,4.091-2.473a34.808,34.808,0,0,0-4.116,1.728c-.234.117-.642-.51-.787-.765-.184-.324-.237-.986.07-1.2,1.534-1.058,3.658-2.64,4.97-3.763a38.382,38.382,0,0,0-5.476,3.289c-.254.177-.613.4-.9-.01s-.976-1.2-.976-1.2a10.839,10.839,0,0,0,1.469,2.744,2.633,2.633,0,0,1,.174,3.026c-.344.62-2.017.867-3.631.9a3.971,3.971,0,0,0,3.982-.095c.12,1.394,1.524,3.668,2.239,3.621a5.83,5.83,0,0,0,1.556-.329,3.037,3.037,0,0,1,1.352-.271,1.235,1.235,0,0,1,.742.386c.249-.08-.1-1.048-.64-1.121a3.591,3.591,0,0,0-1.7.306,3.485,3.485,0,0,1-1.272.286c-.125-.005-.154-.007-.458-.371l-.015.012c-.209-.249-.411-.5-.6-.762A.574.574,0,0,1,371.247,246.4Z" transform="translate(-305.889 -211.207)" fill="#ff5757"/>
            </g>
            <path id="Trazado_52978" data-name="Trazado 52978" d="M333.934,220.537a22.267,22.267,0,0,0-4.664,16.641c.822,5.755,10.732,11.569,18.7,15.364a25.713,25.713,0,0,0,21.241.553c7.139-2.971,15.556-7.742,18.258-14.413,4.985-12.3-12.2-26.318-12.2-26.318Z" transform="translate(-320.264 -171.593)" fill="#592108"/>
            <g id="Grupo_25311" data-name="Grupo 25311" transform="translate(16.439 54.577)">
              <g id="Grupo_25310" data-name="Grupo 25310" transform="translate(0 13.486)">
                <path id="Trazado_52979" data-name="Trazado 52979" d="M333.319,241.1l10.214,19.57c2.127,4.074,2.577,6.838,1.056,10.145a15.419,15.419,0,0,1-2,3.155,21.864,21.864,0,0,0-2.859,4.253,24.014,24.014,0,0,0-1.942,14.7s1.529,2.871,20.083,6.1c14.692,2.555,18.235-4.547,18.235-4.547s2.052-3.03.4-11.771a29.139,29.139,0,0,1,.139-12.959l1.449-5.419a15.345,15.345,0,0,1,1.771-4.109l1.915-3.108a11.385,11.385,0,0,0-.635-13.081c-.149-.187-.309-.371-.471-.55l-.3-.329a15.658,15.658,0,0,1-3.867-7.9h0a10.753,10.753,0,0,0-5.441-7.548c-4.039-2.189-10.15-4.791-15.732-4.323-6.41.533-13.046,2.894-18.083,5.12C332.477,230.608,330.749,236.178,333.319,241.1Z" transform="translate(-332.131 -223.324)" fill="#4eb2d9"/>
              </g>
              <path id="Trazado_52980" data-name="Trazado 52980" d="M345.451,228.842l1.332,8.658a18.592,18.592,0,0,0,16.136,16.905,49.773,49.773,0,0,0,15.456-.229,15.213,15.213,0,0,0-.657,1.922l-1.449,5.419a29.14,29.14,0,0,0-.139,12.959c1.653,8.74-.4,11.771-.4,11.771s-3.543,7.1-18.235,4.547c-18.554-3.225-20.083-6.1-20.083-6.1a24.042,24.042,0,0,1,1.118-12.737h0c.1-.284.217-.568.336-.854.149-.368.309-.735.488-1.106a21.864,21.864,0,0,1,2.859-4.253,15.422,15.422,0,0,0,2-3.155c1.521-3.307,1.071-6.071-1.056-10.145l-10.214-19.57a10.984,10.984,0,0,1-.56-1.29Z" transform="translate(-331.755 -201.615)" fill="#248ab3"/>
              <path id="Trazado_52981" data-name="Trazado 52981" d="M362.153,235.523c-1.375-.725-4.467-2.064-4.368-2.024l-1.32-13.409-12.909-2.181-1.591,14.278c.062-.012-2.747.642-4.176,1.063,13.135,3.83,15.217,16.158,23.133,12.924C365.089,244.47,363.944,239.52,362.153,235.523Z" transform="translate(-323.698 -217.908)" fill="#ff5757"/>
              <path id="Trazado_52982" data-name="Trazado 52982" d="M356.277,227.317H342.81c3.663,3.656,6.258,6.624,10.633,4.836C355.657,231.246,356.361,229.424,356.277,227.317Z" transform="translate(-316.217 -203.887)" fill="#fff"/>
            </g>
            <g id="Grupo_25330" data-name="Grupo 25330" transform="translate(10.398)">
              <g id="Grupo_25329" data-name="Grupo 25329">
                <path id="Trazado_52983" data-name="Trazado 52983" d="M348.8,218.286c-2.211,4.567-1.066,9.692,2.557,11.445s8.352-.528,10.563-5.095,1.066-9.692-2.557-11.445S351.015,213.719,348.8,218.286Z" transform="translate(-302.923 -171.242)" fill="#ff5757"/>
                <path id="Trazado_52984" data-name="Trazado 52984" d="M365.665,196.011c-6.96-.334-13.84,3.4-17.986,10.583-6.148-1.081-12.779,2.552-16.1,9.642-3.439,7.413-2.02,16.614,3.145,20.967,6.031,4.878,29.9.229,40.833-2.234l8.407,14.542,5.573-17.172a28.854,28.854,0,0,1,3.723-7.318,13.23,13.23,0,0,0,2.084-4.833C397.068,211.769,395.347,197.433,365.665,196.011Z" transform="translate(-329.705 -195.991)" fill="#6b2709"/>
                <g id="Grupo_25328" data-name="Grupo 25328" transform="translate(1.949 21.899)">
                  <g id="Grupo_25327" data-name="Grupo 25327">
                    <g id="Grupo_25325" data-name="Grupo 25325" transform="translate(10.825)">
                      <path id="Trazado_52985" data-name="Trazado 52985" d="M348.823,204.785a23.087,23.087,0,0,1-13.653,22.536L335,228.668c-2.074,20.845,15.558,27,24.07,26.624,15.212-.675,21.47-11.029,18.7-24.61-.777-3.817,2.141-13.6,2.141-13.6C379.977,216.518,362.81,218.055,348.823,204.785Z" transform="translate(-334.834 -204.785)" fill="#f99"/>
                      <path id="Trazado_52986" data-name="Trazado 52986" d="M344.614,219.612a11.8,11.8,0,0,0,9.956,0s1.016-3.471-4.978-3.454C343.795,216.175,344.614,219.612,344.614,219.612Z" transform="translate(-320.321 -187.838)" fill="#ff5757"/>
                      <path id="Trazado_52987" data-name="Trazado 52987" d="M349.259,223.207c-5.169,0-6.544-3.89-6.561-3.937a.8.8,0,0,1,1.517-.513c.062.174,1.531,4.1,7.931,2.45a.8.8,0,0,1,.4,1.549A13.154,13.154,0,0,1,349.259,223.207Z" transform="translate(-323.179 -184.769)" fill="#ff5757"/>
                      <path id="Trazado_52988" data-name="Trazado 52988" d="M342.7,219.717a7.848,7.848,0,0,0,7.7,2.331s-2.6,2.015-5.361,1.126A3.158,3.158,0,0,1,342.7,219.717Z" transform="translate(-323.144 -182.535)" fill="#ffbaba" opacity="0.53" style="mix-blend-mode: multiply;isolation: isolate"/>
                      <path id="Trazado_52989" data-name="Trazado 52989" d="M358.864,230.936c-6.741.291-18.765-2.933-23.783-12.914,3.011,13.6,16.5,17.862,23.624,17.545,11.054-.491,17.374-6.093,18.945-14.326C374.624,226.872,368.361,230.522,358.864,230.936Z" transform="translate(-334.467 -185.06)" fill="#ffbdbd" opacity="0.61"/>
                      <g id="Grupo_25324" data-name="Grupo 25324" transform="translate(11.236 10.343)">
                        <g id="Grupo_25313" data-name="Grupo 25313" transform="translate(22.805 3.32)">
                          <g id="Grupo_25312" data-name="Grupo 25312" transform="translate(1.329 6.894)">
                            <path id="Trazado_52990" data-name="Trazado 52990" d="M351.736,216.21c-.137,1.691-.847,3.013-1.584,2.953s-1.228-1.477-1.091-3.167.847-3.013,1.584-2.953S351.873,214.521,351.736,216.21Z" transform="translate(-349.039 -213.04)" fill="#291018"/>
                          </g>
                          <path id="Trazado_52991" data-name="Trazado 52991" d="M356.471,216.944s-3.548-3.987-7.966-4.036c0,0,1.932-4.074,5.625-2.092S356.471,216.944,356.471,216.944Z" transform="translate(-348.505 -210.272)" fill="#521e07"/>
                        </g>
                        <g id="Grupo_25315" data-name="Grupo 25315" transform="translate(1.981)">
                          <g id="Grupo_25314" data-name="Grupo 25314" transform="translate(4.985 8.829)">
                            <path id="Trazado_52992" data-name="Trazado 52992" d="M342.167,215.439c-.137,1.691.351,3.108,1.088,3.167s1.447-1.262,1.584-2.953-.351-3.108-1.091-3.167S342.3,213.749,342.167,215.439Z" transform="translate(-342.144 -212.484)" fill="#291018"/>
                          </g>
                          <path id="Trazado_52993" data-name="Trazado 52993" d="M340.142,216.667s7.162-3.14,10.884-3.294c0,0-1.262-5.441-5.608-4.268C340.267,210.494,340.142,216.667,340.142,216.667Z" transform="translate(-340.142 -208.939)" fill="#521e07"/>
                        </g>
                        <g id="Grupo_25323" data-name="Grupo 25323" transform="translate(0 17.046)">
                          <g id="Grupo_25322" data-name="Grupo 25322">
                            <g id="Grupo_25316" data-name="Grupo 25316">
                              <path id="Trazado_52994" data-name="Trazado 52994" d="M341.394,220.584a.627.627,0,0,1-.252-.077.554.554,0,0,1-.214-.777l2.164-3.546a.608.608,0,0,1,.812-.2.558.558,0,0,1,.214.779l-2.164,3.546A.6.6,0,0,1,341.394,220.584Z" transform="translate(-337.112 -215.603)" fill="#ff5757"/>
                              <path id="Trazado_52995" data-name="Trazado 52995" d="M339.9,220.463a.627.627,0,0,1-.254-.077.556.556,0,0,1-.214-.777l2.166-3.546a.608.608,0,0,1,.812-.2.559.559,0,0,1,.214.779l-2.166,3.546A.594.594,0,0,1,339.9,220.463Z" transform="translate(-339.347 -215.784)" fill="#ff5757"/>
                            </g>
                            <g id="Grupo_25321" data-name="Grupo 25321" transform="translate(24.605 1.717)">
                              <g id="Grupo_25318" data-name="Grupo 25318" transform="translate(0 0.092)">
                                <g id="Grupo_25317" data-name="Grupo 25317">
                                  <path id="Trazado_52996" data-name="Trazado 52996" d="M351.345,221.492a.6.6,0,0,1-.508-.364l-1.569-3.847a.558.558,0,0,1,.339-.735.607.607,0,0,1,.767.329l1.569,3.847a.555.555,0,0,1-.336.732A.63.63,0,0,1,351.345,221.492Z" transform="translate(-349.228 -216.51)" fill="#ff5757"/>
                                </g>
                              </g>
                              <g id="Grupo_25320" data-name="Grupo 25320" transform="translate(2.968)">
                                <g id="Grupo_25319" data-name="Grupo 25319">
                                  <path id="Trazado_52997" data-name="Trazado 52997" d="M352.537,221.455a.6.6,0,0,1-.508-.364l-1.569-3.847a.557.557,0,0,1,.336-.735.608.608,0,0,1,.769.329l1.569,3.847a.555.555,0,0,1-.336.732A.6.6,0,0,1,352.537,221.455Z" transform="translate(-350.419 -216.473)" fill="#ff5757"/>
                                </g>
                              </g>
                            </g>
                          </g>
                        </g>
                      </g>
                    </g>
                    <g id="Grupo_25326" data-name="Grupo 25326" transform="translate(0 15.448)">
                      <path id="Trazado_52998" data-name="Trazado 52998" d="M347.006,217.06c2.908,5.167,1.945,11.225-2.154,13.531s-9.776-.01-12.685-5.177-1.945-11.225,2.154-13.534S344.1,211.893,347.006,217.06Z" transform="translate(-330.487 -210.989)" fill="#f99"/>
                      <path id="Trazado_52999" data-name="Trazado 52999" d="M343.067,224.85c-.022-.214-.067-.4-.1-.6a3.657,3.657,0,0,1,.072.371,7.723,7.723,0,0,0-.535-2.617,12.743,12.743,0,0,0-10.785-9.46,27.483,27.483,0,0,1,8.708,7.406c-3.028-1.123-7.568,1.6-7.568,1.6,5.436-1.624,7.966-.5,9.154.862A12.153,12.153,0,0,1,343.067,224.85Z" transform="translate(-328.648 -208.676)" fill="#ff5757"/>
                    </g>
                  </g>
                </g>
              </g>
            </g>
            <g id="Grupo_25339" data-name="Grupo 25339" transform="translate(18.312 129.85)">
              <g id="Grupo_25334" data-name="Grupo 25334" transform="translate(17.019 1.706)">
                <g id="Grupo_25331" data-name="Grupo 25331" transform="translate(42.373 14.603)">
                  <path id="Trazado_53000" data-name="Trazado 53000" d="M357.364,258.879c-1.591,1.561,2.092,9.552,2.092,9.552l-1.977,5.237a11.084,11.084,0,0,0-.261,7.224l9.587,30.581,7.426-.276,4.415-50.861S367.78,248.66,357.364,258.879Z" transform="translate(-356.734 -254.686)" fill="#ff5757"/>
                  <path id="Trazado_53001" data-name="Trazado 53001" d="M378.507,260.336s-10.864-11.676-21.281-1.457c-1.462,1.432,1.516,8.272,2.019,9.393a78.068,78.068,0,0,0,18.663-1.046Z" transform="translate(-356.596 -254.686)" fill="#db3549"/>
                  <path id="Trazado_53002" data-name="Trazado 53002" d="M363.218,286.995l7.426-.277,1.355-15.6-12.858,2.871Z" transform="translate(-353.148 -230.207)" fill="#cfcfff"/>
                </g>
                <g id="Grupo_25333" data-name="Grupo 25333" transform="translate(47.345 60.595)">
                  <g id="Grupo_25332" data-name="Grupo 25332">
                    <path id="Trazado_53003" data-name="Trazado 53003" d="M358.734,276.632c-.062-.428.605-.657.929-.316a3.7,3.7,0,0,0,2.089,1.26c2.956.51,4.261-3.03,6.736-4.226s5.082,3.536,5.082,3.536c.219-.013.448-.032.68-.052l-.005.05c4.522-1.026,11.582-1.708,16.039,2.948,1.624,1.7,2.438,5.593,1.992,8.755,0,0-19.824,4.694-31.734-1.417a2.543,2.543,0,0,1-1.467-1.82Z" transform="translate(-358.73 -273.156)" fill="#51247d"/>
                  </g>
                </g>
                <path id="Trazado_53004" data-name="Trazado 53004" d="M404.216,271.044c.994-3.242,2.122-8.845-3.479-14.759-5.936-6.27-59.424-7.463-59.424-7.463s-3.055,11.943-.71,17.911,42.389,5.172,48.433,5.568C392.208,272.737,398.817,273.245,404.216,271.044Z" transform="translate(-339.717 -248.822)" fill="#00196a"/>
              </g>
              <g id="Grupo_25338" data-name="Grupo 25338">
                <g id="Grupo_25335" data-name="Grupo 25335" transform="translate(39.097 18.775)">
                  <path id="Trazado_53005" data-name="Trazado 53005" d="M353.082,259.527c-1.883,1.5,1.153,2.054,1.153,2.054l-4.393,11.091c-1.342,2.336-1.4,6.514-1.126,8.85l3.663,30.917h7.431l14.134-50.664S365.388,249.7,353.082,259.527Z" transform="translate(-348.584 -255.677)" fill="#f99"/>
                  <path id="Trazado_53006" data-name="Trazado 53006" d="M351.329,259.527c-1.883,1.5,1.153,2.054,1.153,2.054l-2.722,6.87c5.04.984,13.476,1.5,21-1.556l1.427-5.12S363.635,249.7,351.329,259.527Z" transform="translate(-346.831 -255.677)" fill="#ff5757"/>
                  <path id="Trazado_53007" data-name="Trazado 53007" d="M351.041,287.773h7.431l4.336-15.543-13.326,2.391Z" transform="translate(-347.245 -231.01)" fill="#fff"/>
                </g>
                <g id="Grupo_25337" data-name="Grupo 25337" transform="translate(41.684 62.3)">
                  <g id="Grupo_25336" data-name="Grupo 25336">
                    <path id="Trazado_53008" data-name="Trazado 53008" d="M349.626,276.632c-.062-.428.605-.657.926-.316a3.719,3.719,0,0,0,2.092,1.26c2.953.51,4.258-3.03,6.736-4.226s5.082,3.536,5.082,3.536c.217-.013.448-.032.68-.052l-.008.05c4.522-1.026,11.584-1.708,16.039,2.948,1.624,1.7,2.44,5.593,1.995,8.755,0,0-19.826,4.694-31.737-1.417a2.539,2.539,0,0,1-1.464-1.82Z" transform="translate(-349.622 -273.156)" fill="#9762cc"/>
                  </g>
                </g>
                <path id="Trazado_53009" data-name="Trazado 53009" d="M335.077,270.314c-5.6-8.262,1.28-22.177,1.28-22.177s53.316,5.1,58.856,11.728c3.8,4.547,2.766,9.308,2.127,13.145-.179,1.086-4.666,3.546-11.245,3.832C368.783,277.6,339.918,277.458,335.077,270.314Z" transform="translate(-332.883 -248.137)" fill="#0028ad"/>
              </g>
            </g>
            <path id="Trazado_53010" data-name="Trazado 53010" d="M364.6,257.161H336.416a10.887,10.887,0,0,1-10.887-10.887h49.957A10.887,10.887,0,0,1,364.6,257.161Z" transform="translate(-325.529 -121.063)" fill="#5656ac"/>
            <g id="Grupo_25341" data-name="Grupo 25341" transform="translate(1.394 72.476)">
              <g id="Grupo_25340" data-name="Grupo 25340" transform="translate(38.47 42.016)">
                <path id="Trazado_53011" data-name="Trazado 53011" d="M347.435,249.922a20.8,20.8,0,0,0,3.175-.169,24.687,24.687,0,0,0,4.485-5.055,2.374,2.374,0,0,0-.406-2.729s-4.348,2.582-7.458,4.447a7.783,7.783,0,0,1-1.146.548A5.881,5.881,0,0,1,347.435,249.922Z" transform="translate(-334.762 -241.969)" fill="#ff5757"/>
                <path id="Trazado_53012" data-name="Trazado 53012" d="M354.263,244.262l.012.012a6.337,6.337,0,0,1,6.036-.633c6.691,3.19,8.217,8.332,7.4,9.3-1.2,1.419-6.761-3.509-8.419-4.529,1.586,1.086,4.93,5.351,4.024,7.176-.981,1.83-4.116-1.922-6.113-3.66,1.409,1.586,3.182,5.605,1.98,7.079-1.143,1.292-5.558-4.368-5.588-4.3.03-.067,3.265,5.194,2.184,6.987-1.028,1.663-3.8-2.381-4.669-3.337l-.787.4a5.285,5.285,0,0,1-6.965-2.084l-1.82-3.172Z" transform="translate(-341.538 -240.206)" fill="#f99"/>
              </g>
              <path id="Trazado_53013" data-name="Trazado 53013" d="M371.9,277.837s-17.737-9.455-27.7-14.2c1.556-2.2,7.393-17.936,9.8-23.918a11.306,11.306,0,0,0-2.149-12.052,10.581,10.581,0,0,0-3.827-2.575c-11.758,2.7-21.935,40.258-21.94,43.965-.01,5.135,5.192,7.485,6.365,8.332,8.145,5.892,39.573,7.1,39.573,7.1Z" transform="translate(-326.089 -225.096)" fill="#f99"/>
              <path id="Trazado_53014" data-name="Trazado 53014" d="M345.277,254.766c2.136-5.359,4.539-11.711,5.879-15.043a11.306,11.306,0,0,0-2.149-12.052,10.581,10.581,0,0,0-3.827-2.575c-6.815,1.564-13.1,14.844-17.179,26.453A25.847,25.847,0,0,1,345.277,254.766Z" transform="translate(-323.24 -225.096)" fill="#4eb2d9"/>
              <path id="Trazado_53015" data-name="Trazado 53015" d="M329.187,249.988a5.348,5.348,0,0,0-2.826-8.008,12.248,12.248,0,0,0-.271,1.922A7.9,7.9,0,0,0,329.187,249.988Z" transform="translate(-326.089 -199.937)" fill="#ff5757" opacity="0.48"/>
            </g>
          </g>
          <g id="Grupo_25352" data-name="Grupo 25352" transform="translate(90.137)">
            <g id="Grupo_25347" data-name="Grupo 25347" transform="translate(47.504)">
              <path id="Trazado_53016" data-name="Trazado 53016" d="M427.814,201.346H403.521v-19.1a1.6,1.6,0,1,0-3.2,0v19.1H375.666a1.6,1.6,0,1,0,0,3.2h24.655V399.9l-19.806,20.165A1.6,1.6,0,0,0,382.8,422.3l18.813-19.149a1.637,1.637,0,0,0,.314.032,1.678,1.678,0,0,0,.356-.042L420.7,421.231a1.6,1.6,0,1,0,2.244-2.283l-19.425-19.069V204.546h24.294a1.6,1.6,0,0,0,0-3.2Z" transform="translate(-372.354 -180.648)" fill="#dbf9ff"/>
              <g id="Grupo_25344" data-name="Grupo 25344" transform="translate(0 230.667)">
                <g id="Grupo_25343" data-name="Grupo 25343" transform="translate(1.989 1.822)">
                  <path id="Trazado_53017" data-name="Trazado 53017" d="M375.622,281.339c-1.238-2.555-.662-5.389,1.28-6.33s4.524.366,5.762,2.921.662,5.389-1.28,6.33S376.86,283.894,375.622,281.339Z" transform="translate(-372.994 -272.984)" fill="#6b6bd6"/>
                  <path id="Trazado_53018" data-name="Trazado 53018" d="M378.466,276.822c1.721-.834,3.947.212,4.975,2.333s.466,4.517-1.255,5.349-3.947-.209-4.975-2.333-.466-4.517,1.255-5.349m-1.1-2.276c-2.971,1.439-4.059,5.354-2.428,8.728s5.381,4.945,8.352,3.506,4.061-5.354,2.428-8.728-5.379-4.945-8.352-3.506Z" transform="translate(-374.177 -274.013)" fill="#28287d"/>
                </g>
                <path id="Trazado_53019" data-name="Trazado 53019" d="M373.378,279.984l15.528.523s-1.825-7.269-8.24-7.226C375.154,273.316,373.378,279.984,373.378,279.984Z" transform="translate(-373.378 -273.281)" fill="#dbf9ff"/>
              </g>
              <g id="Grupo_25346" data-name="Grupo 25346" transform="translate(41.53 230.667)">
                <g id="Grupo_25345" data-name="Grupo 25345" transform="translate(1.242 1.822)">
                  <path id="Trazado_53020" data-name="Trazado 53020" d="M399.042,281.339c1.238-2.555.665-5.389-1.28-6.33s-4.525.366-5.762,2.921-.662,5.389,1.282,6.33S397.8,283.894,399.042,281.339Z" transform="translate(-389.373 -272.984)" fill="#6b6bd6"/>
                  <path id="Trazado_53021" data-name="Trazado 53021" d="M398.563,276.822c1.721.832,2.283,3.227,1.255,5.349s-3.255,3.167-4.975,2.333-2.281-3.227-1.255-5.349,3.255-3.167,4.975-2.333m1.1-2.276c-2.973-1.439-6.718.135-8.352,3.506s-.545,7.289,2.428,8.728,6.718-.135,8.352-3.506.543-7.289-2.428-8.728Z" transform="translate(-390.555 -274.013)" fill="#28287d"/>
                </g>
                <path id="Trazado_53022" data-name="Trazado 53022" d="M405.584,279.984l-15.528.523s1.828-7.269,8.24-7.226C403.809,273.316,405.584,279.984,405.584,279.984Z" transform="translate(-390.056 -273.281)" fill="#dbf9ff"/>
              </g>
            </g>
            <g id="Grupo_25350" data-name="Grupo 25350" transform="translate(29.407 18.225)">
              <g id="Grupo_25349" data-name="Grupo 25349">
                <path id="Rect치ngulo_5080" data-name="Rect치ngulo 5080" d="M2.285,0H9.093a2.285,2.285,0,0,1,2.285,2.285V9.956a0,0,0,0,1,0,0H0a0,0,0,0,1,0,0V2.285A2.285,2.285,0,0,1,2.285,0Z" transform="translate(14.859)" fill="#b1c0e9"/>
                <g id="Grupo_25348" data-name="Grupo 25348" transform="translate(0 8.621)">
                  <path id="Trazado_53023" data-name="Trazado 53023" d="M394.449,238.622H378.51a10.46,10.46,0,0,1-10.434-9.694l-1.937-26.266a10.465,10.465,0,0,1,10.436-11.233h19.809a10.466,10.466,0,0,1,10.436,11.233l-1.937,26.266A10.46,10.46,0,0,1,394.449,238.622Z" transform="translate(-366.111 -191.429)" fill="#c8d1e9"/>
                  <path id="Trazado_53024" data-name="Trazado 53024" d="M376.024,226.971h15.939a6.489,6.489,0,0,0,6.444-5.989l1.534-20.812a97.911,97.911,0,0,1-32.162-3.606l1.8,24.418A6.489,6.489,0,0,0,376.024,226.971Z" transform="translate(-363.624 -183.777)" fill="#a80a71"/>
                  <path id="Trazado_53025" data-name="Trazado 53025" d="M376.024,226.971h15.939a6.489,6.489,0,0,0,6.444-5.989l1.534-20.812a97.911,97.911,0,0,1-32.162-3.606l1.8,24.418A6.489,6.489,0,0,0,376.024,226.971Z" transform="translate(-363.624 -183.777)" fill="#e33e4e"/>
                  <path id="Trazado_53026" data-name="Trazado 53026" d="M369.232,194.968a7.976,7.976,0,0,0-2.134,6.081l1.519,20.631c9.169-5.07,19.542-14.151,19.58-29.286H375.138A7.973,7.973,0,0,0,369.232,194.968Z" transform="translate(-364.673 -189.993)" fill="#fff" opacity="0.32"/>
                </g>
              </g>
              <rect id="Rect치ngulo_5081" data-name="Rect치ngulo 5081" width="21.731" height="5.954" transform="translate(9.23 30.285)" fill="#fff"/>
            </g>
            <g id="Grupo_25351" data-name="Grupo 25351" transform="translate(0 64.81)">
              <path id="Trazado_53027" data-name="Trazado 53027" d="M390.132,312.951c-.379,0-.752-.02-1.126-.055-6.425-.618-11.108-6.325-16.066-12.371-5.01-6.106-10.19-12.421-17.378-13.479l.231-1.581c7.8,1.148,13.18,7.7,18.382,14.044,4.744,5.782,9.221,11.24,14.983,11.793,3.623.351,7.54-1.267,11.967-4.938,17.065-14.154.635-98.529.466-99.381l1.569-.309c.695,3.511,16.778,86.163-1.013,100.92C397.814,311.188,393.87,312.951,390.132,312.951Z" transform="translate(-352.422 -206.675)" fill="#e33e4e"/>
              <path id="Trazado_53028" data-name="Trazado 53028" d="M355.9,245.355a1.6,1.6,0,0,1-1.6-1.6,6.9,6.9,0,0,1,1.82-5.085,5.686,5.686,0,0,1,3.782-1.621,1.6,1.6,0,0,1,.015,3.2c-.573.02-2.418.329-2.418,3.506A1.6,1.6,0,0,1,355.9,245.355Z" transform="translate(-354.301 -161.413)" fill="#e33e4e"/>
            </g>
          </g>
        </g>
      </g>
      <g id="Grupo_25412" data-name="Grupo 25412" transform="translate(647.682 204.125)">
        <path id="Trazado_53029" data-name="Trazado 53029" d="M643.935,277.083c-19.236,0-34.832,2.077-34.832,4.639,0,.368.329.725.934,1.066-14.51-2.443-43.415-4.106-76.713-4.106-47.855,0-86.651,3.439-86.651,7.682s38.8,7.682,86.651,7.682,86.654-3.439,86.654-7.682c0-.513-.57-1.011-1.646-1.5a190.394,190.394,0,0,0,25.6,1.5c19.239,0,34.834-2.077,34.834-4.642S663.174,277.083,643.935,277.083Z" transform="translate(-446.673 -36.948)" fill="#85a0e9"/>
        <g id="Grupo_25411" data-name="Grupo 25411" transform="translate(11.701)">
          <g id="Grupo_25398" data-name="Grupo 25398" transform="translate(0 34.136)">
            <g id="Grupo_25358" data-name="Grupo 25358" transform="translate(13.374 54.478)">
              <g id="Grupo_25355" data-name="Grupo 25355" transform="translate(0 107.714)">
                <path id="Trazado_53030" data-name="Trazado 53030" d="M468.28,302.635h21.766a3.529,3.529,0,0,0,3.23-2.112l10.7-24.418H500.25a35.684,35.684,0,0,1-27.172-12.555l-3.454-4.059h89.6a20.118,20.118,0,0,1-19.806,16.614h-3.459L524.99,297.5a3.526,3.526,0,0,0,3.135,5.135h44.2a14,14,0,0,1,10.929,5.252l.655.819H456.743A14,14,0,0,1,468.28,302.635Z" transform="translate(-456.743 -259.491)" fill="#5656ac"/>
                <path id="Trazado_53031" data-name="Trazado 53031" d="M508.2,292.693H470.117a3.529,3.529,0,0,0,3.23-2.112l10.7-24.418h31.986l-10.972,21.4A3.526,3.526,0,0,0,508.2,292.693Z" transform="translate(-436.814 -249.549)" fill="#28287d"/>
              </g>
              <g id="Grupo_25357" data-name="Grupo 25357" transform="translate(4.059)">
                <path id="Trazado_53032" data-name="Trazado 53032" d="M465.3,319.521l12.246.169,10.082.042,2.52.01,1.26,0c.192,0,.461.008.588,0l.433-.018a12.851,12.851,0,0,0,3.411-.508,14.687,14.687,0,0,0,9.744-8.728l20.195-89.445a6.175,6.175,0,0,1,7.328-4.671h48.378l-8.613,33.355-15.685,69.121L515.464,329.21l-5.314-3.033a27.711,27.711,0,0,1-10.723,5.832,25.884,25.884,0,0,1-6.521,1.036l-.827.032c-.294.01-.443,0-.672.007l-1.26,0-2.52.01-10.082.042-12.246.169h-.057a6.9,6.9,0,1,1,.057-13.79Z" transform="translate(-458.373 -216.234)" fill="#6b6bd6"/>
                <path id="Trazado_53033" data-name="Trazado 53033" d="M562.01,221.047,541.7,311l.237-.817a14.673,14.673,0,0,1-9.863,9.037,17.011,17.011,0,0,1-1.688.369,16.66,16.66,0,0,1-1.723.139l-.433.018c-.127.01-.4,0-.59,0l-1.26,0-2.52-.01-10.082-.042-40.328-.169a6.9,6.9,0,1,0-.057,13.79h.057l40.328-.169,10.082-.042,2.52-.01,1.26,0c.229,0,.379,0,.672-.007l.827-.032a25.886,25.886,0,0,0,6.522-1.036,27.788,27.788,0,0,0,11.407-6.432,28.861,28.861,0,0,0,4.256-5.035,29.99,29.99,0,0,0,2.946-5.889l.144-.393.092-.426,19.555-90.12a6.171,6.171,0,0,0-12.05-2.667Z" transform="translate(-446.227 -216.234)" fill="#dbf9ff"/>
                <g id="Grupo_25356" data-name="Grupo 25356" transform="translate(51.712 16.006)">
                  <path id="Trazado_53034" data-name="Trazado 53034" d="M487.47,224.263h34.306a.8.8,0,0,0,0-1.6H487.47a.8.8,0,0,0,0,1.6Z" transform="translate(-467.918 -222.662)" fill="#4949d6"/>
                  <path id="Trazado_53035" data-name="Trazado 53035" d="M486.217,229.165h34.306a.8.8,0,1,0,0-1.6H486.217a.8.8,0,1,0,0,1.6Z" transform="translate(-469.79 -215.354)" fill="#4949d6"/>
                  <path id="Trazado_53036" data-name="Trazado 53036" d="M484.962,234.07h34.306a.8.8,0,0,0,0-1.6H484.962a.8.8,0,1,0,0,1.6Z" transform="translate(-471.66 -208.048)" fill="#4949d6"/>
                  <path id="Trazado_53037" data-name="Trazado 53037" d="M483.7,238.974h34.306a.8.8,0,1,0,0-1.6H483.7a.8.8,0,0,0,0,1.6Z" transform="translate(-473.53 -200.741)" fill="#4949d6"/>
                  <path id="Trazado_53038" data-name="Trazado 53038" d="M482.449,243.876h34.306a.8.8,0,1,0,0-1.6H482.449a.8.8,0,0,0,0,1.6Z" transform="translate(-475.4 -193.433)" fill="#4949d6"/>
                  <path id="Trazado_53039" data-name="Trazado 53039" d="M481.194,248.781H515.5a.8.8,0,0,0,0-1.6H481.194a.8.8,0,0,0,0,1.6Z" transform="translate(-477.27 -186.127)" fill="#4949d6"/>
                  <path id="Trazado_53040" data-name="Trazado 53040" d="M479.939,253.683h34.306a.8.8,0,0,0,0-1.6H479.939a.8.8,0,0,0,0,1.6Z" transform="translate(-479.14 -178.82)" fill="#4949d6"/>
                </g>
              </g>
            </g>
            <g id="Grupo_25397" data-name="Grupo 25397">
              <path id="Trazado_53041" data-name="Trazado 53041" d="M474.3,254.912h28.186a10.889,10.889,0,0,0,10.887-10.887H463.415A10.887,10.887,0,0,0,474.3,254.912Z" transform="translate(-433.427 -120.345)" fill="#4141ac"/>
              <g id="Grupo_25365" data-name="Grupo 25365" transform="translate(20.608 62.735)">
                <g id="Grupo_25360" data-name="Grupo 25360" transform="translate(23.178 16.041)">
                  <g id="Grupo_25359" data-name="Grupo 25359">
                    <path id="Trazado_53042" data-name="Trazado 53042" d="M500.384,225.992,478.5,255.831l-9.547-.311c1.728,3.147,3.444,6.3,5.329,9.355,1.392,2.256,2.871,4.415,4.246,6.629,1.071-.057,2.171-.144,3.165-.237a8.217,8.217,0,0,0,5.645-3.025l25.071-28.357Z" transform="translate(-468.956 -225.992)" fill="#eb9f86"/>
                    <path id="Trazado_53043" data-name="Trazado 53043" d="M488.151,255.831l14.1-15.947-12.027-13.892-14.448,19.7C479.692,247.113,484.095,250.052,488.151,255.831Z" transform="translate(-458.795 -225.992)" fill="#1d8f62"/>
                  </g>
                </g>
                <g id="Grupo_25364" data-name="Grupo 25364">
                  <g id="Grupo_25361" data-name="Grupo 25361" transform="translate(13.91 24.764)">
                    <path id="Trazado_53044" data-name="Trazado 53044" d="M474.41,229.5l-9.176,2.455c1.449,6.068,4.679,19.224,7.316,24.971,3.855,8.394,10.635,10.712,15.342,8.663a5.058,5.058,0,0,0,.792-.423h0c1.628-1.053,1.178-1.272,1.507-3.7.622-4.584-1.15-10.874-5.431-15.685C481.723,242.359,477.075,233.84,474.41,229.5Z" transform="translate(-465.234 -229.495)" fill="#eb9f86"/>
                  </g>
                  <g id="Grupo_25363" data-name="Grupo 25363">
                    <path id="Trazado_53045" data-name="Trazado 53045" d="M484.771,233.056l-.032.017c-.279-.486-2.214-3.822-3.436-4.281-1.34-.5-4.049.371-4.945,1.362-.478.533-.814,3.138-1.312,4.617l-1.021-3.972c1.935-9.7-1.94-11.061-2.107-11.113l-.428-.137-1.556,9.851a5.922,5.922,0,0,0,.154,2.537l.842,3.778-1.935-3.379c.633-5.7-.249-7.976-1.1-8.882a1.7,1.7,0,0,0-1.245-.618l-.3.017-1.417,7.754a5.269,5.269,0,0,0,.488,3.322l2.495,4.878c-2.383-1.87-4.437-2.742-6.121-2.59a2.766,2.766,0,0,0-1.922.884l-.217.284,7.794,6.98c.217.179,1.073,1.345,1.9,2.473.934,1.272,2.1,2.856,3.09,4.071.774.949,3.322,2.448,4.973,2.293,1.046-.095.867-1.511,1.952-1.93a15.39,15.39,0,0,0,4.886-2.884c1.6-2.2,2.664-8.576,2.435-9.3l-1.85-5.844,0-.007-.01-.015Zm-1.955,4.808-1.056,1.272-1.668-2.789a1.339,1.339,0,0,1-.174-.924l.4-2.117a6.589,6.589,0,0,0,2.9.981A4.258,4.258,0,0,0,482.816,237.865Z" transform="translate(-459.648 -219.55)" fill="#eb9f86"/>
                    <g id="Grupo_25362" data-name="Grupo 25362" transform="translate(13.003 18.728)">
                      <path id="Trazado_53046" data-name="Trazado 53046" d="M464.87,229.7a4.247,4.247,0,0,1,4.383,1.99l1.945-4.622Z" transform="translate(-464.87 -227.071)" fill="#fd7e6a"/>
                    </g>
                  </g>
                </g>
              </g>
              <g id="Grupo_25370" data-name="Grupo 25370" transform="translate(71.974 59.149)">
                <g id="Grupo_25369" data-name="Grupo 25369">
                  <g id="Grupo_25366" data-name="Grupo 25366" transform="translate(0 13.377)">
                    <path id="Trazado_53047" data-name="Trazado 53047" d="M483.516,229.732c3.085-3.8,13.912-6.255,18.885-6.25,3.822.005,11.86,1.865,14.385,5.16,6.014,7.846,3.621,28.106,3.621,28.106l2.393,24.478a51.067,51.067,0,0,1-25.31,4.587c-3.954-.351-16.31-4.719-16.8-8.158-.51-3.563-.7-9.089.3-17.4C482.933,244.148,479.272,234.959,483.516,229.732Z" transform="translate(-480.276 -223.482)" fill="#62cca2"/>
                  </g>
                  <path id="Trazado_53048" data-name="Trazado 53048" d="M480.648,260.8c3.519,4.437,9.659,6.3,16.612,5.834a13.187,13.187,0,0,0,12.117-14.116l-1.454-21.637s3.663-2.478,8.342-5.558a5.638,5.638,0,0,1,.52.585c6.014,7.846,3.621,28.106,3.621,28.106l2.313,23.664h0l.08.814a51.066,51.066,0,0,1-25.31,4.587c-3.954-.351-16.31-4.719-16.8-8.158A61.779,61.779,0,0,1,480.648,260.8Z" transform="translate(-480.275 -207.368)" fill="#1d8f62"/>
                  <g id="Grupo_25368" data-name="Grupo 25368" transform="translate(4.781)">
                    <g id="Grupo_25367" data-name="Grupo 25367">
                      <path id="Trazado_53049" data-name="Trazado 53049" d="M502.981,231.818l-.839-13.708L488.185,223l-.416,10.7a24.613,24.613,0,0,0-2.911,1.158c-1.985,4.238-4.863,12.361.052,13.3,7.627,1.454,8.785-9.482,21.542-15.558A21.256,21.256,0,0,0,502.981,231.818Z" transform="translate(-482.196 -218.11)" fill="#fd7e6a"/>
                    </g>
                  </g>
                </g>
              </g>
              <g id="Grupo_25384" data-name="Grupo 25384" transform="translate(50.456)">
                <path id="Trazado_53050" data-name="Trazado 53050" d="M488.168,218.253c2.231,4.412,1.3,9.33-2.1,11.006-3.411,1.688-8.033-.53-10.312-4.978-2.286-4.462-1.327-9.44,2.132-11.094C481.332,211.547,485.929,213.825,488.168,218.253Z" transform="translate(-467.339 -167.09)" fill="#fd5f44"/>
                <path id="Trazado_53051" data-name="Trazado 53051" d="M538.261,217.177c2.839,3.6-.759,16.689-6.113,27.409-2.229,4.492-6.188,7.358-9.791,7.2l-32.8-1.36c-3.538-.152-6.676-3-8.148-7.124-.573-1.621-1.145-3.314-1.7-5.05-3.518-.142-6.1-.269-6.123-.339A47.483,47.483,0,0,1,472.164,231h0l-.01-.077c-.04-.286-.08-.573-.117-.869-.013-.1-.025-.212-.037-.316q-.064-.534-.12-1.083c-.03-.284-.06-.568-.085-.857-.012-.139-.022-.279-.032-.418-.028-.316-.05-.632-.07-.956-.007-.107-.012-.217-.02-.326a26.976,26.976,0,0,1,.125-4.378,30.26,30.26,0,0,1,23.1-25.84,53.39,53.39,0,0,1,8.728-1.4c11.248-.8,25.89,2.074,32.877,18.559q-.034-5.136-.314-10.264c.022-.007,4.178,4.609,3.118,10.66q1.879-2.682,3.773-5.394C543.127,208.033,543.02,215.611,538.261,217.177Z" transform="translate(-471.634 -194.357)" fill="#401f43"/>
                <g id="Grupo_25383" data-name="Grupo 25383" transform="translate(7.355 15.459)">
                  <g id="Grupo_25382" data-name="Grupo 25382">
                    <g id="Grupo_25371" data-name="Grupo 25371" transform="translate(3.581 4.725)">
                      <path id="Trazado_53052" data-name="Trazado 53052" d="M498.26,259.577c-15.837,5.361-22.234-8.912-22.234-20.9V219.623a17.071,17.071,0,0,1,16.527-16.734l11.415-.416a15.642,15.642,0,0,1,16.527,15.536l-2.012,18.509C518.482,248.509,505.549,257.109,498.26,259.577Z" transform="translate(-476.026 -202.462)" fill="#eb9f86"/>
                    </g>
                    <path id="Trazado_53053" data-name="Trazado 53053" d="M481.783,224.253s4.756.117,5.6-4.149C487.383,220.1,488.023,226.979,481.783,224.253Z" transform="translate(-463.867 -171.449)" fill="#fd7e6a"/>
                    <path id="Trazado_53054" data-name="Trazado 53054" d="M498.149,230.1c-10.9,3.289-17.8-.817-21.52-7.249,2.707,8.429,9.226,14.9,20.733,11.006,5.321-1.8,13.641-6.87,17.752-14.139A41.779,41.779,0,0,1,498.149,230.1Z" transform="translate(-471.547 -172.02)" fill="#ebc0a0"/>
                    <g id="Grupo_25372" data-name="Grupo 25372" transform="translate(13.302 42.452)">
                      <path id="Trazado_53055" data-name="Trazado 53055" d="M488.349,217.613a6.849,6.849,0,0,1,.685,1.937c.605,3.142-1.013,6.1-3.616,6.6-2.274.438-4.547-1.14-5.488-3.643Z" transform="translate(-479.93 -217.613)" fill="#130604"/>
                      <path id="Trazado_53056" data-name="Trazado 53056" d="M483.544,224.383a4.117,4.117,0,0,1-2.356-.249,5.1,5.1,0,0,1,3.944-5.257,4.573,4.573,0,0,1,2.151.107C487.332,221.647,485.813,223.947,483.544,224.383Z" transform="translate(-478.056 -215.85)" fill="#eb0a55"/>
                    </g>
                    <path id="Trazado_53057" data-name="Trazado 53057" d="M519.129,232.379s-8.484-.645-9.091-15.078c0,0-22.269-3.275-32.875,8.454L474.588,214.6s15.992-13.895,16.48-14.027,21.7.981,21.7.981l12.575,6.8,2.271,10.66-4.2,11.7Z" transform="translate(-474.588 -200.565)" fill="#401f43"/>
                    <g id="Grupo_25373" data-name="Grupo 25373" transform="translate(39.511 27.277)">
                      <path id="Trazado_53058" data-name="Trazado 53058" d="M491.849,217.632c-2.565,4.881-1.489,10.334,2.4,12.179s9.121-.618,11.686-5.5,1.492-10.334-2.4-12.179S494.414,212.749,491.849,217.632Z" transform="translate(-490.455 -211.519)" fill="#eb9f86"/>
                      <path id="Trazado_53059" data-name="Trazado 53059" d="M491.919,224.737c.015-.2.052-.366.072-.555-.027.137-.047.251-.057.344a7.1,7.1,0,0,1,.423-2.415,12.411,12.411,0,0,1,9.791-9.278,26.792,26.792,0,0,0-7.909,7.281c2.789-1.213,7.1.984,7.1.984-5.12-1.141-7.448.042-8.516,1.352A11.281,11.281,0,0,0,491.919,224.737Z" transform="translate(-488.274 -209.562)" fill="#fd5f44"/>
                    </g>
                    <g id="Grupo_25381" data-name="Grupo 25381" transform="translate(3.581 22.789)">
                      <path id="Trazado_53060" data-name="Trazado 53060" d="M479.073,220.974c0,1.743,1.061,3.13,2.368,3.1s2.371-1.474,2.371-3.217-1.061-6.362-2.371-6.327S479.073,219.23,479.073,220.974Z" transform="translate(-471.486 -202.553)" fill="#fd5f44"/>
                      <g id="Grupo_25375" data-name="Grupo 25375" transform="translate(0 0.607)">
                        <g id="Grupo_25374" data-name="Grupo 25374" transform="translate(1.829 8.366)">
                          <path id="Trazado_53061" data-name="Trazado 53061" d="M476.809,216.276c.2,1.516.919,2.652,1.611,2.537s1.1-1.432.9-2.946-.919-2.652-1.611-2.54S476.615,214.762,476.809,216.276Z" transform="translate(-476.76 -213.32)" fill="#291018"/>
                        </g>
                        <path id="Trazado_53062" data-name="Trazado 53062" d="M476.026,211.469a9.5,9.5,0,0,1,1.347-.807c4.97-2.425,6,2.216,6,2.216a29.767,29.767,0,0,0-7.346,3.021Z" transform="translate(-476.026 -209.96)" fill="#200f21"/>
                      </g>
                      <g id="Grupo_25377" data-name="Grupo 25377" transform="translate(15.12)">
                        <g id="Grupo_25376" data-name="Grupo 25376" transform="translate(2.825 7.887)">
                          <path id="Trazado_53063" data-name="Trazado 53063" d="M485.779,215.793c.129,1.681-.334,3.11-1.031,3.187s-1.365-1.22-1.494-2.9.334-3.11,1.031-3.19S485.652,214.11,485.779,215.793Z" transform="translate(-483.233 -212.884)" fill="#291018"/>
                        </g>
                        <path id="Trazado_53064" data-name="Trazado 53064" d="M492.828,217.069s-6.982-3.693-10.73-4.039c0,0,.682-4.838,5.675-2.821A7.9,7.9,0,0,1,492.828,217.069Z" transform="translate(-482.098 -209.716)" fill="#200f21"/>
                      </g>
                      <g id="Grupo_25378" data-name="Grupo 25378" transform="translate(19.936 16.319)">
                        <path id="Trazado_53065" data-name="Trazado 53065" d="M486.368,221.077a.542.542,0,0,0,.244-.065.578.578,0,0,0,.261-.764l-1.773-3.626a.546.546,0,0,0-.749-.237.579.579,0,0,0-.262.764l1.773,3.626A.536.536,0,0,0,486.368,221.077Z" transform="translate(-484.032 -216.194)" fill="#fd5f44"/>
                        <path id="Trazado_53066" data-name="Trazado 53066" d="M487.793,221.026a.637.637,0,0,0,.244-.065.584.584,0,0,0,.261-.764l-1.775-3.628a.547.547,0,0,0-.749-.234.583.583,0,0,0-.262.764l1.773,3.626A.543.543,0,0,0,487.793,221.026Z" transform="translate(-481.909 -216.27)" fill="#fd5f44"/>
                      </g>
                      <g id="Grupo_25380" data-name="Grupo 25380" transform="translate(0.393 17.092)">
                        <g id="Grupo_25379" data-name="Grupo 25379">
                          <path id="Trazado_53067" data-name="Trazado 53067" d="M476.747,221.465a.591.591,0,0,0,.508-.339l1.773-3.755a.551.551,0,0,0-.264-.745.579.579,0,0,0-.75.291l-1.773,3.755a.547.547,0,0,0,.262.745A.554.554,0,0,0,476.747,221.465Z" transform="translate(-476.184 -216.58)" fill="#fd5f44"/>
                        </g>
                      </g>
                    </g>
                  </g>
                </g>
              </g>
              <g id="Grupo_25389" data-name="Grupo 25389" transform="translate(0 135.625)">
                <g id="Grupo_25385" data-name="Grupo 25385" transform="translate(22.72)">
                  <path id="Trazado_53068" data-name="Trazado 53068" d="M527.767,248.822s-53.64,1.193-60.37,7.463c-4.831,4.5-5.74,8.82-5.64,12.057h0L460.5,319.935l7.391.276,13.454-30.581c.63-1.432,4.427-8.944,5.067-14.824,18.031-.214,37.8-4.221,39.8-8.073C529.31,260.765,527.767,248.822,527.767,248.822Z" transform="translate(-460.496 -248.822)" fill="#04070f"/>
                </g>
                <g id="Grupo_25388" data-name="Grupo 25388" transform="translate(0 60.769)">
                  <g id="Grupo_25387" data-name="Grupo 25387" transform="translate(0)">
                    <g id="Grupo_25386" data-name="Grupo 25386">
                      <path id="Trazado_53069" data-name="Trazado 53069" d="M484.533,276.757c.042-.433-.637-.667-.944-.321a3.457,3.457,0,0,1-2.027,1.28c-2.928.521-4.412-3.078-6.95-4.293s-4.9,3.591-4.9,3.591c-.219-.01-.453-.03-.685-.05l.01.05c-4.574-1.043-11.669-1.736-15.887,2.993-1.539,1.723-2.154,5.68-1.546,8.892,0,0,20.063,4.769,31.662-1.437a2.409,2.409,0,0,0,1.372-1.85Z" transform="translate(-451.372 -273.226)" fill="#24799e"/>
                    </g>
                  </g>
                  <path id="Trazado_53070" data-name="Trazado 53070" d="M484.63,282.972a73.788,73.788,0,0,1-20.882,2.338c.284-5.548-1.982-8.875-4.149-10.75a11.111,11.111,0,0,0-6.449,3.459c-1.15,1.287-1.783,3.822-1.778,6.36h0c0,.431.02.859.06,1.282v0c.037.423.095.842.172,1.247,0,0,20.063,4.769,31.662-1.437a2.409,2.409,0,0,0,1.372-1.85Z" transform="translate(-451.372 -271.238)" fill="#fff"/>
                </g>
              </g>
              <g id="Grupo_25394" data-name="Grupo 25394" transform="translate(37.118 133.92)">
                <g id="Grupo_25390" data-name="Grupo 25390" transform="translate(7.374)">
                  <path id="Trazado_53071" data-name="Trazado 53071" d="M529.878,248.137s-53.057,5.182-58.256,11.913c-3.571,4.619-2.293,9.452-1.457,13.352l16.724,51.453h7.433l2.082-31.4c.157-2.371.892-7.089-.57-9.462l-2.286-6.4c16.318.1,35.2-1.178,38.744-6.933C537.468,262.268,529.878,248.137,529.878,248.137Z" transform="translate(-469.239 -248.137)" fill="#12214a"/>
                </g>
                <g id="Grupo_25393" data-name="Grupo 25393" transform="translate(0 63.274)">
                  <g id="Grupo_25392" data-name="Grupo 25392" transform="translate(0)">
                    <g id="Grupo_25391" data-name="Grupo 25391">
                      <path id="Trazado_53072" data-name="Trazado 53072" d="M499.439,277.078c.042-.433-.638-.665-.944-.321a3.447,3.447,0,0,1-2.024,1.28c-2.928.52-4.415-3.078-6.953-4.293s-4.9,3.593-4.9,3.593c-.219-.012-.451-.032-.685-.052l.01.05c-4.574-1.043-11.669-1.736-15.887,2.993-1.539,1.723-2.154,5.683-1.546,8.895,0,0,20.065,4.766,31.662-1.439a2.4,2.4,0,0,0,1.372-1.85Z" transform="translate(-466.278 -273.547)" fill="#62accc"/>
                    </g>
                  </g>
                  <path id="Trazado_53073" data-name="Trazado 53073" d="M499.536,283.293a73.775,73.775,0,0,1-20.88,2.341c.281-5.55-1.982-8.877-4.148-10.752a11.123,11.123,0,0,0-6.452,3.459c-1.148,1.287-1.783,3.822-1.778,6.36h0v0c0,.428.02.857.06,1.282h0a12.572,12.572,0,0,0,.172,1.25S486.575,292,498.171,285.8a2.4,2.4,0,0,0,1.372-1.85Z" transform="translate(-466.278 -271.56)" fill="#fff"/>
                </g>
              </g>
              <path id="Trazado_53074" data-name="Trazado 53074" d="M493.165,257.161h28.183a10.889,10.889,0,0,0,10.887-10.887H482.278A10.887,10.887,0,0,0,493.165,257.161Z" transform="translate(-405.318 -116.994)" fill="#5656ac"/>
              <g id="Grupo_25396" data-name="Grupo 25396" transform="translate(61.443 75.965)">
                <g id="Grupo_25395" data-name="Grupo 25395" transform="translate(0 46.035)">
                  <path id="Trazado_53075" data-name="Trazado 53075" d="M486.594,248.749a20.948,20.948,0,0,1-3.078.8,24.791,24.791,0,0,1-5.8-3.471,2.373,2.373,0,0,1-.436-2.724s4.923,1.153,8.451,1.992a7.846,7.846,0,0,0,1.258.179A5.892,5.892,0,0,0,486.594,248.749Z" transform="translate(-474.583 -243.35)" fill="#fd5f44"/>
                  <path id="Trazado_53076" data-name="Trazado 53076" d="M486.835,244.183l-.01.017a6.332,6.332,0,0,0-5.946,1.213c-5.419,5.057-5.321,10.421-4.253,11.1,1.571.991,5.389-5.386,6.661-6.858-1.183,1.514-3.088,6.589-1.673,8.058,1.487,1.447,3.344-3.075,4.726-5.334-.867,1.937-1.345,6.3.247,7.346,1.477.886,3.982-5.839,4.034-5.78-.052-.055-1.546,5.936.022,7.321,1.482,1.277,2.911-3.416,3.446-4.587l.869.142a5.288,5.288,0,0,0,6.014-4.086l.782-3.576Z" transform="translate(-476.047 -242.485)" fill="#eb9f86"/>
                </g>
                <path id="Trazado_53077" data-name="Trazado 53077" d="M483.457,278.184s19.336-8.653,29.3-13.394c-1.556-2.2-8.994-18.738-11.4-24.719-1.648-4.1-.58-8.578,2.151-12.052,13.076-16.624,25.76,37.683,25.768,41.391.01,5.135-5.192,7.485-6.365,8.332-8.145,5.892-39.573,7.1-39.573,7.1Z" transform="translate(-465.191 -224.863)" fill="#eb9f86"/>
                <path id="Trazado_53078" data-name="Trazado 53078" d="M493.188,228.018c-2.732,3.474-3.8,7.953-2.151,12.052,1.382,3.434,4.422,10.344,7.055,16.024a38.5,38.5,0,0,1,15.865-6.7C509.065,234.275,501.2,217.833,493.188,228.018Z" transform="translate(-454.877 -224.863)" fill="#62cca2"/>
                <path id="Trazado_53079" data-name="Trazado 53079" d="M501.054,249.988a5.352,5.352,0,0,1,2.829-8.008,12.241,12.241,0,0,1,.271,1.922A7.9,7.9,0,0,1,501.054,249.988Z" transform="translate(-440.075 -199.357)" fill="#fd7e6a"/>
              </g>
            </g>
          </g>
          <g id="Grupo_25410" data-name="Grupo 25410" transform="translate(105.534)">
            <g id="Grupo_25407" data-name="Grupo 25407" transform="translate(32.547)">
              <g id="Grupo_25403" data-name="Grupo 25403" transform="translate(18.095)">
                <path id="Trazado_53080" data-name="Trazado 53080" d="M568.525,201.346H544.234v-19.1a1.6,1.6,0,1,0-3.2,0v19.1H516.377a1.6,1.6,0,0,0,0,3.2h24.657V399.9l-19.809,20.165a1.6,1.6,0,0,0,2.283,2.241l18.81-19.149a1.638,1.638,0,0,0,.314.032,1.679,1.679,0,0,0,.356-.042l18.427,18.088a1.6,1.6,0,1,0,2.241-2.283l-19.423-19.069V204.546h24.291a1.6,1.6,0,1,0,0-3.2Z" transform="translate(-513.065 -180.648)" fill="#dbf9ff"/>
                <g id="Grupo_25400" data-name="Grupo 25400" transform="translate(0 230.667)">
                  <g id="Grupo_25399" data-name="Grupo 25399" transform="translate(1.989 1.822)">
                    <path id="Trazado_53081" data-name="Trazado 53081" d="M516.334,281.339c-1.235-2.555-.662-5.389,1.282-6.33s4.522.366,5.76,2.921.665,5.389-1.28,6.33S517.571,283.894,516.334,281.339Z" transform="translate(-513.707 -272.984)" fill="#6b6bd6"/>
                    <path id="Trazado_53082" data-name="Trazado 53082" d="M519.177,276.822c1.721-.834,3.949.212,4.975,2.333s.466,4.517-1.255,5.349-3.947-.209-4.975-2.333-.466-4.517,1.255-5.349m-1.1-2.276c-2.973,1.439-4.061,5.354-2.428,8.728s5.379,4.945,8.352,3.506,4.062-5.354,2.428-8.728-5.381-4.945-8.352-3.506Z" transform="translate(-514.889 -274.013)" fill="#28287d"/>
                  </g>
                  <path id="Trazado_53083" data-name="Trazado 53083" d="M514.09,279.984l15.528.523s-1.825-7.269-8.24-7.226C515.865,273.316,514.09,279.984,514.09,279.984Z" transform="translate(-514.09 -273.281)" fill="#dbf9ff"/>
                </g>
                <g id="Grupo_25402" data-name="Grupo 25402" transform="translate(41.53 230.667)">
                  <g id="Grupo_25401" data-name="Grupo 25401" transform="translate(1.243 1.822)">
                    <path id="Trazado_53084" data-name="Trazado 53084" d="M539.754,281.339c1.237-2.555.665-5.389-1.28-6.33s-4.522.366-5.76,2.921-.665,5.389,1.28,6.33S538.518,283.894,539.754,281.339Z" transform="translate(-530.085 -272.984)" fill="#6b6bd6"/>
                    <path id="Trazado_53085" data-name="Trazado 53085" d="M539.277,276.822c1.721.832,2.281,3.227,1.255,5.349s-3.257,3.167-4.978,2.333-2.281-3.227-1.253-5.349,3.255-3.167,4.975-2.333m1.1-2.276c-2.971-1.439-6.718.135-8.352,3.506s-.543,7.289,2.428,8.728,6.718-.135,8.352-3.506.545-7.289-2.428-8.728Z" transform="translate(-531.267 -274.013)" fill="#28287d"/>
                  </g>
                  <path id="Trazado_53086" data-name="Trazado 53086" d="M546.3,279.984l-15.531.523s1.828-7.269,8.242-7.226C544.523,273.316,546.3,279.984,546.3,279.984Z" transform="translate(-530.768 -273.281)" fill="#dbf9ff"/>
                </g>
              </g>
              <g id="Grupo_25406" data-name="Grupo 25406" transform="translate(0 18.225)">
                <g id="Grupo_25405" data-name="Grupo 25405">
                  <path id="Rect치ngulo_5082" data-name="Rect치ngulo 5082" d="M2.285,0H9.093a2.285,2.285,0,0,1,2.285,2.285V9.956a0,0,0,0,1,0,0H0a0,0,0,0,1,0,0V2.285A2.285,2.285,0,0,1,2.285,0Z" transform="translate(14.858)" fill="#b1c0e9"/>
                  <g id="Grupo_25404" data-name="Grupo 25404" transform="translate(0 8.621)">
                    <path id="Trazado_53087" data-name="Trazado 53087" d="M535.16,238.622H519.221a10.462,10.462,0,0,1-10.434-9.694l-1.935-26.266a10.462,10.462,0,0,1,10.434-11.233H537.1a10.464,10.464,0,0,1,10.434,11.233L545.6,228.928A10.464,10.464,0,0,1,535.16,238.622Z" transform="translate(-506.823 -191.429)" fill="#c8d1e9"/>
                    <path id="Trazado_53088" data-name="Trazado 53088" d="M516.736,226.971h15.939a6.493,6.493,0,0,0,6.447-5.989l1.534-20.812a97.919,97.919,0,0,1-32.165-3.606l1.8,24.418A6.489,6.489,0,0,0,516.736,226.971Z" transform="translate(-504.338 -183.777)" fill="#a80a71"/>
                    <path id="Trazado_53089" data-name="Trazado 53089" d="M516.736,226.971h15.939a6.493,6.493,0,0,0,6.447-5.989l1.534-20.812a97.919,97.919,0,0,1-32.165-3.606l1.8,24.418A6.489,6.489,0,0,0,516.736,226.971Z" transform="translate(-504.338 -183.777)" fill="#e33e4e"/>
                    <path id="Trazado_53090" data-name="Trazado 53090" d="M509.944,194.968a7.977,7.977,0,0,0-2.134,6.081l1.519,20.631c9.169-5.07,19.542-14.151,19.582-29.286H515.85A7.977,7.977,0,0,0,509.944,194.968Z" transform="translate(-505.388 -189.993)" fill="#fff" opacity="0.32"/>
                  </g>
                </g>
                <rect id="Rect치ngulo_5083" data-name="Rect치ngulo 5083" width="21.731" height="5.954" transform="translate(9.229 30.285)" fill="#fff"/>
              </g>
            </g>
            <g id="Grupo_25409" data-name="Grupo 25409" transform="translate(0 66.783)">
              <g id="Grupo_25408" data-name="Grupo 25408">
                <path id="Trazado_53091" data-name="Trazado 53091" d="M530.081,316.943c-.378,0-.754-.017-1.128-.055-6.422-.615-11.106-6.325-16.066-12.371-5.008-6.106-10.187-12.418-17.376-13.479l.232-1.581c7.8,1.148,13.18,7.7,18.382,14.047,4.741,5.78,9.221,11.24,14.983,11.791,3.623.351,7.54-1.267,11.968-4.938,17.062-14.154,2.234-101.729,2.064-102.58l1.571-.309c.692,3.511,15.175,89.363-2.615,104.119C537.763,315.182,533.819,316.943,530.081,316.943Z" transform="translate(-491.133 -207.467)" fill="#e33e4e"/>
                <path id="Trazado_53092" data-name="Trazado 53092" d="M494.034,243.749a1.6,1.6,0,0,1,.413-2.224,6.889,6.889,0,0,1,5.222-1.377,5.674,5.674,0,0,1,3.476,2.2,1.6,1.6,0,0,1-2.63,1.823c-.339-.463-1.639-1.808-4.258-.01A1.6,1.6,0,0,1,494.034,243.749Z" transform="translate(-493.753 -158.91)" fill="#e33e4e"/>
              </g>
            </g>
          </g>
        </g>
      </g>
      <g id="Grupo_25453" data-name="Grupo 25453" transform="translate(528.338 210.364)">
        <ellipse id="Elipse_1355" data-name="Elipse 1355" cx="46.779" cy="6.084" rx="46.779" ry="6.084" transform="translate(9.303 233.467)" fill="#85a0e9"/>
        <g id="Grupo_25452" data-name="Grupo 25452">
          <g id="Grupo_25432" data-name="Grupo 25432" transform="translate(0 43.043)">
            <g id="Grupo_25415" data-name="Grupo 25415" transform="translate(52.401)">
              <path id="Trazado_53093" data-name="Trazado 53093" d="M469.284,212.984c-.672-3.76-5.486-4.051-6.748-.314-6.731,19.941-10.439,29.538-10.439,29.538S439.191,220.8,435.491,217.7c-7.244-6.071-15.018,3.825-15.673,11.255-.852,9.659,17.555,23.021,27.165,28.462,1.1.622,7.66,3.623,10.712,2.674,5.219-1.377,8.335-7.567,8.75-9.106C468.849,242.128,471.5,225.43,469.284,212.984Z" transform="translate(-419.79 -186.176)" fill="#ff8a64"/>
              <path id="Trazado_53094" data-name="Trazado 53094" d="M442.668,229.012a6.235,6.235,0,0,0-8.984,3.865,7.289,7.289,0,0,0,3.307.02A11.57,11.57,0,0,0,442.668,229.012Z" transform="translate(-399.085 -158.979)" fill="#e05426" opacity="0.33"/>
              <path id="Trazado_53095" data-name="Trazado 53095" d="M435.491,214.227c-7.244-6.071-15.018,3.825-15.673,11.255-.593,6.721,8.135,15.23,16.739,21.619.685-5.033,3.367-10.959,10.648-16.28C443.143,224.382,437.69,216.07,435.491,214.227Z" transform="translate(-419.79 -182.702)" fill="#fff"/>
              <g id="Grupo_25414" data-name="Grupo 25414" transform="translate(35.097)">
                <path id="Trazado_53096" data-name="Trazado 53096" d="M434.158,217.1l0,.02,0,0-.274,6.123c-.035.757,2.647,6.636,4.761,8.349a15.348,15.348,0,0,0,5.468,1.519c1.155.125,1.35,1.539,2.386,1.36,1.633-.281,3.705-2.388,4.208-3.506.645-1.429,1.357-3.26,1.93-4.731.508-1.3,1.031-2.652,1.2-2.884l5.72-8.76-.284-.217a2.752,2.752,0,0,0-2.084-.356c-1.668.289-3.426,1.663-5.242,4.089l1.146-5.359a5.276,5.276,0,0,0-.388-3.337l-3.379-7.122-.3.062a1.7,1.7,0,0,0-1.046.921c-.588,1.1-.849,3.524,1.24,8.862l-.993,3.765-.167-3.867a6,6,0,0,0-.508-2.49l-4.059-9.109-.376.242c-.147.095-3.538,2.41.844,11.278l.042,4.1c-.861-1.3-1.863-3.73-2.463-4.119-1.123-.727-3.964-.867-5.13-.035-1.061.76-2.067,4.485-2.209,5.025l-.035-.007Zm1.833.61a6.594,6.594,0,0,0,2.545-1.7l.931,1.942a1.343,1.343,0,0,1,.07.936l-.889,3.128-1.35-.956A4.258,4.258,0,0,0,435.991,217.71Z" transform="translate(-433.884 -200.439)" fill="#ff8a64"/>
                <g id="Grupo_25413" data-name="Grupo 25413" transform="translate(7.229 20.028)">
                  <path id="Trazado_53097" data-name="Trazado 53097" d="M443.58,209.383a4.247,4.247,0,0,0-3.718,3.06l-3.075-3.962Z" transform="translate(-436.787 -208.482)" fill="#e05426"/>
                </g>
              </g>
            </g>
            <g id="Grupo_25422" data-name="Grupo 25422" transform="translate(15.429 89.602)">
              <g id="Grupo_25418" data-name="Grupo 25418" transform="translate(3.182)">
                <g id="Grupo_25416" data-name="Grupo 25416" transform="translate(0 2.092)">
                  <path id="Trazado_53098" data-name="Trazado 53098" d="M406.22,319.277a18.48,18.48,0,0,0,1.643-1.554l.134-.174,0,0c0-.067.057-.139.164-.212l28.724-38.485-6.39-41.585h28.584s5.667,44.165-.117,56.09S428.043,315.287,416.718,323h-8.835C407.37,321.734,406.823,320.494,406.22,319.277Z" transform="translate(-406.22 -237.262)" fill="#4444d6"/>
                </g>
                <g id="Grupo_25417" data-name="Grupo 25417" transform="translate(7.899)">
                  <path id="Trazado_53099" data-name="Trazado 53099" d="M456.363,332.531l-12.956.02c.12-.266-7.662-37.163-7.662-37.163a23.931,23.931,0,0,0-4.684-10.917L415.45,264.209c-3.245-4.211-6.058-9.716-6.058-15.033v-7.291l27.635-5.463s15.685,27.185,20.16,42.648c2.659,9.2-.117,36.293-1.375,52.519C455.98,331.911,456.166,332.222,456.363,332.531Z" transform="translate(-409.392 -236.422)" fill="#6b6bd6"/>
                </g>
              </g>
              <g id="Grupo_25420" data-name="Grupo 25420" transform="translate(44.244 89.665)">
                <g id="Grupo_25419" data-name="Grupo 25419">
                  <path id="Trazado_53100" data-name="Trazado 53100" d="M422.718,277.273c-.095-.533.675-.849,1.071-.438a4.278,4.278,0,0,0,2.505,1.479c3.481.5,4.831-3.992,7.667-5.6s6.116,4.188,6.116,4.188c.257-.025.525-.06.794-.095l0,.062c5.237-1.494,11.818-2.61,17.259,3.008,1.985,2.047,3.1,6.068,2.734,10.045,0,0-.837,1.763-11.415,2.468a49.508,49.508,0,0,1-23.417-4.305,3.078,3.078,0,0,1-1.8-2.209Z" transform="translate(-422.71 -272.43)" fill="#252525"/>
                </g>
              </g>
              <g id="Grupo_25421" data-name="Grupo 25421" transform="translate(0 81.05)">
                <path id="Trazado_53101" data-name="Trazado 53101" d="M404.945,277.331l0-.01h0a2.339,2.339,0,0,1,.025-.266l-.012-.037.017-.015a1.9,1.9,0,0,1,.219-.727l4.131-7.132c.2-.356.847-.12.9.326a3.634,3.634,0,0,0,.872,2.2c1.972,2.164,5.04.324,7.642.934,2.246.528,2.062,5.406,1.97,6.726,3.782.408,10.688,2.221,13.255,5.533,1.544,1.643,2.261,4.724,1.748,7.7,0,0-.949,1.96-9.8,1.942a51.558,51.558,0,0,1-13.068-1.29,2.614,2.614,0,0,1-1.267-.752c-4.432-4.828-6.1-12.231-6.512-14.473A2.546,2.546,0,0,1,404.945,277.331Z" transform="translate(-404.942 -268.971)" fill="#252525"/>
              </g>
            </g>
            <g id="Grupo_25427" data-name="Grupo 25427" transform="translate(26.51 12.784)">
              <g id="Grupo_25423" data-name="Grupo 25423">
                <path id="Trazado_53102" data-name="Trazado 53102" d="M416.22,219.924l-.244-11.512-.827-2.839,18.977,9.632-.8,3.735a20.255,20.255,0,0,1,5.655,2.107c2.293,3.1,2.874,8.529-1.9,9.492-7.2,1.459-9.081-5.187-22.673-9.8C415,220.449,415.6,220.18,416.22,219.924Z" transform="translate(-401.912 -205.573)" fill="#e05426"/>
                <path id="Trazado_53103" data-name="Trazado 53103" d="M424.96,240.834,412,216.518a41.827,41.827,0,0,1,6.024-3.646l-.015,0c.077-.037.162-.07.239-.107.139-.067.271-.142.416-.207l.027.007c.373-.172.742-.346,1.125-.505l-.025-1.2a97.777,97.777,0,0,1,19.338,6.5l1.673-5.035a17.062,17.062,0,0,1,1.775.864,12.343,12.343,0,0,1,5.563,6.392c1.656,4.283,3.561,17.712,3.785,19.313Z" transform="translate(-405.507 -197.705)" fill="#4eb2d9"/>
                <path id="Trazado_53104" data-name="Trazado 53104" d="M430.561,225.952l-9.484-1.173,4.525-11.318,5.9,5.527Z" transform="translate(-391.981 -193.817)" fill="#fff"/>
                <path id="Trazado_53105" data-name="Trazado 53105" d="M409.392,278.968l2.732-15.1a71.476,71.476,0,0,0,1.093-15.354l-1.071-29.09.436-1.3a43.323,43.323,0,0,1,9.965-6.589c11.166,2.617,23.915,12.993,23.915,12.993.712-10.259,0-12.368,0-12.368a12.343,12.343,0,0,1,5.563,6.392c1.763,4.557,3.807,19.473,3.807,19.473.695,6.975-1.086,40.942-1.086,40.942C448.554,290.269,409.392,278.968,409.392,278.968Z" transform="translate(-409.392 -196.687)" fill="#fff"/>
                <path id="Trazado_53106" data-name="Trazado 53106" d="M454.747,255.758s.613-11.709.979-22.79c-17.428,5.164-33.37-.911-42.466-5.857a71.445,71.445,0,0,1-1.135,13.546l-2.732,15.1S448.554,267.059,454.747,255.758Z" transform="translate(-409.392 -173.477)" fill="#b1c0e9" opacity="0.43"/>
              </g>
              <g id="Grupo_25426" data-name="Grupo 25426" transform="translate(32.58 18.741)" opacity="0.28">
                <g id="Grupo_25425" data-name="Grupo 25425">
                  <path id="Trazado_53107" data-name="Trazado 53107" d="M423.479,213.512l1.016-.413c.075.229,6.716,21.159-.929,69.36-.363.055-.722.117-1.091.157C430.136,234.556,423.554,213.739,423.479,213.512Z" transform="translate(-422.475 -213.099)" fill="#6b6bd6"/>
                  <g id="Grupo_25424" data-name="Grupo 25424" transform="translate(0 13.745)">
                    <path id="Trazado_53108" data-name="Trazado 53108" d="M424.174,220.494c-.07,1.043-.461,1.895-.874,1.9s-.692-.832-.622-1.875.461-1.9.874-1.9S424.244,219.451,424.174,220.494Z" transform="translate(-422.191 -218.619)" fill="#6b6bd6"/>
                    <path id="Trazado_53109" data-name="Trazado 53109" d="M424.395,226.2c-.07,1.043-.461,1.9-.874,1.9s-.69-.829-.622-1.873.461-1.9.874-1.9S424.464,225.152,424.395,226.2Z" transform="translate(-421.861 -210.119)" fill="#6b6bd6"/>
                    <path id="Trazado_53110" data-name="Trazado 53110" d="M424.189,231.91c-.07,1.043-.461,1.895-.874,1.9s-.692-.832-.622-1.875.461-1.9.874-1.9S424.256,230.867,424.189,231.91Z" transform="translate(-422.169 -201.608)" fill="#6b6bd6"/>
                    <path id="Trazado_53111" data-name="Trazado 53111" d="M423.983,237.621c-.07,1.043-.461,1.9-.874,1.9s-.692-.829-.622-1.873.461-1.9.874-1.9S424.05,236.577,423.983,237.621Z" transform="translate(-422.476 -193.095)" fill="#6b6bd6"/>
                  </g>
                </g>
              </g>
            </g>
            <g id="Grupo_25431" data-name="Grupo 25431" transform="translate(0 28.238)">
              <g id="Grupo_25428" data-name="Grupo 25428" transform="translate(14.361)">
                <path id="Trazado_53112" data-name="Trazado 53112" d="M428.637,211.779s-6.646.54-9.557,3.967-20.006,34.877-12.817,46.062c0,0,9.946,9.328,17.164-12.4C435.888,211.889,428.637,211.779,428.637,211.779Z" transform="translate(-404.513 -211.779)" fill="#ff8452"/>
                <path id="Trazado_53113" data-name="Trazado 53113" d="M415.614,215.746c2.911-3.426,9.557-3.967,9.557-3.967s5.966.095-2.231,28.126a42.144,42.144,0,0,0-16.1-7.54C410.33,224.15,414.337,217.252,415.614,215.746Z" transform="translate(-401.048 -211.779)" fill="#fff"/>
              </g>
              <g id="Grupo_25429" data-name="Grupo 25429" transform="translate(1.652 11.366)">
                <path id="Trazado_53114" data-name="Trazado 53114" d="M401.387,234.921h57.258a5.319,5.319,0,0,0-5.172-4.086H401.387Z" transform="translate(-396.463 -194.749)" fill="#6b6bd6"/>
                <path id="Rect치ngulo_5084" data-name="Rect치ngulo 5084" d="M5.215,0h46a5.215,5.215,0,0,1,5.215,5.215V40.172a0,0,0,0,1,0,0H0a0,0,0,0,1,0,0V5.215A5.215,5.215,0,0,1,5.215,0Z" fill="#dbf9ff"/>
                <path id="Trazado_53115" data-name="Trazado 53115" d="M416.864,229.354a4.15,4.15,0,0,1-8.3,0c0-2.291,4.149-7.229,4.149-7.229S416.864,227.063,416.864,229.354Z" transform="translate(-385.768 -207.728)" fill="#fff"/>
              </g>
              <g id="Grupo_25430" data-name="Grupo 25430" transform="translate(0 40.395)">
                <path id="Trazado_53116" data-name="Trazado 53116" d="M412.071,235.62a24.63,24.63,0,0,0-2.552-2.836c-2.1-.361-6.153-.951-8.377-.6a2.836,2.836,0,0,0-2.4,2.308s6.808,2.493,10.994,4.069C410.238,238.753,411.1,236.527,412.071,235.62Z" transform="translate(-398.746 -221.924)" fill="#e05426"/>
                <path id="Trazado_53117" data-name="Trazado 53117" d="M403.547,242.673a2.194,2.194,0,0,0,.344.289,24.141,24.141,0,0,0,3.023,1.681c3.927,1.748,14.333,5.533,18.265-1.34a3.3,3.3,0,0,0-1.79-4.676l-.025-.01-1.011-.319c.09-1.464,1.218-9.276-1.088-8.78-2.463.558-4.256,7.381-4.169,7.351-.09.032,1.038-8.066-1.043-7.961-2.293.2-4.251,4.848-4.422,7.259-.2-3.008.373-8.546-2.034-7.881-2.343.725-3.18,6.843-2.769,8.994-.528-2.156-1-9.438-3.242-9.276-1.529.11-4.667,4.288-1.733,12.261A7.427,7.427,0,0,0,403.547,242.673Z" transform="translate(-395.92 -228.001)" fill="#ff8a64"/>
              </g>
            </g>
          </g>
          <g id="Grupo_25451" data-name="Grupo 25451" transform="translate(19.238)">
            <path id="Trazado_53118" data-name="Trazado 53118" d="M425.9,204.947c-1.661,4.7.012,9.572,3.738,10.889s8.09-1.422,9.751-6.118-.012-9.572-3.738-10.889S427.565,200.253,425.9,204.947Z" transform="translate(-378.471 -160.288)" fill="#e05426"/>
            <g id="Grupo_25450" data-name="Grupo 25450">
              <g id="Grupo_25449" data-name="Grupo 25449">
                <path id="Trazado_53119" data-name="Trazado 53119" d="M468.825,194.44c-13.78-18.561-40.315-11.283-43.739.794-2.341-1.011-8.235-2.475-13.741,4.945-3.912,5.274-5.214,13.14-4.8,20.242a15.1,15.1,0,0,0,13.372,13.97l9.146,1.088,9.323-22.939-1.414-1.937,23.878,8.088S483.3,213.942,468.825,194.44Z" transform="translate(-406.472 -183.154)" fill="#371510"/>
                <path id="Trazado_53120" data-name="Trazado 53120" d="M409.393,210.885s-.69,20.628,20.959,12.473l-3.6-24.859Z" transform="translate(-402.121 -160.287)" fill="#371510"/>
                <g id="Grupo_25447" data-name="Grupo 25447" transform="translate(15.163 22.208)">
                  <path id="Trazado_53121" data-name="Trazado 53121" d="M423.448,192.072a22.666,22.666,0,0,1-10.869,23.467l-.017,1.33c.239,20.561,18.108,24.655,26.37,23.36,14.769-2.311,19.747-13.091,15.571-26.037-1.173-3.641.613-13.5.613-13.5C455.115,200.133,438.535,203.5,423.448,192.072Z" transform="translate(-412.561 -192.072)" fill="#ff8a64"/>
                  <path id="Trazado_53122" data-name="Trazado 53122" d="M420.9,207.1s3.86,3.628,8.686,1.992C429.588,209.091,422.767,213.232,420.9,207.1Z" transform="translate(-400.132 -169.68)" fill="#e05426" opacity="0.45"/>
                  <path id="Trazado_53123" data-name="Trazado 53123" d="M453.16,205.593S448.535,215.3,439,217.516c-12.393,2.876-24.316-6.275-24.754-6.507,5.849,8.225,16.37,9.98,22.167,9.071,10.045-1.571,15.556-7.062,16.744-14.487Z" transform="translate(-410.046 -171.924)" fill="#ffa88c"/>
                  <g id="Grupo_25433" data-name="Grupo 25433" transform="translate(20.185 30.063)">
                    <path id="Trazado_53124" data-name="Trazado 53124" d="M421.065,204.145a6.546,6.546,0,0,0-.4,2.264,6.285,6.285,0,0,0,12.463,1.312Z" transform="translate(-420.667 -204.145)" fill="#230f0b"/>
                    <path id="Trazado_53125" data-name="Trazado 53125" d="M426.883,211.054a6.144,6.144,0,0,0,2.973-.769,6.409,6.409,0,0,0-6.39-4.923,6.858,6.858,0,0,0-2.744.573A6.339,6.339,0,0,0,426.883,211.054Z" transform="translate(-420.585 -202.332)" fill="#e8132c"/>
                  </g>
                  <g id="Grupo_25446" data-name="Grupo 25446" transform="translate(11.62 10.68)">
                    <g id="Grupo_25435" data-name="Grupo 25435" transform="translate(20.6 0.782)">
                      <g id="Grupo_25434" data-name="Grupo 25434" transform="translate(2.099 6.095)">
                        <path id="Trazado_53126" data-name="Trazado 53126" d="M428.978,202.094c.052,1.666-.5,3.031-1.223,3.053s-1.357-1.307-1.409-2.971.5-3.03,1.225-3.053S428.928,200.43,428.978,202.094Z" transform="translate(-426.343 -199.123)" fill="#240912"/>
                      </g>
                      <path id="Trazado_53127" data-name="Trazado 53127" d="M433.71,202.006s-3.895-3.5-8.21-3.073c0,0,1.183-3.394,5-1.86A4.6,4.6,0,0,1,433.71,202.006Z" transform="translate(-425.5 -196.675)" fill="#371510"/>
                    </g>
                    <g id="Grupo_25437" data-name="Grupo 25437" transform="translate(0.476)">
                      <g id="Grupo_25436" data-name="Grupo 25436" transform="translate(5.322 7.393)">
                        <path id="Trazado_53128" data-name="Trazado 53128" d="M419.559,202.381c.05,1.663.682,3,1.407,2.973s1.275-1.39,1.225-3.053-.68-2.993-1.407-2.971S419.509,200.717,419.559,202.381Z" transform="translate(-419.556 -199.33)" fill="#240912"/>
                      </g>
                      <path id="Trazado_53129" data-name="Trazado 53129" d="M417.42,203.391s6.646-3.84,10.259-4.4a4.065,4.065,0,0,0-5.563-2.239A7.136,7.136,0,0,0,417.42,203.391Z" transform="translate(-417.419 -196.361)" fill="#371510"/>
                    </g>
                    <g id="Grupo_25445" data-name="Grupo 25445" transform="translate(0 10.525)">
                      <path id="Trazado_53130" data-name="Trazado 53130" d="M428.584,206.968a2.78,2.78,0,1,1-5.5.167c-.052-1.763,1.033-6.5,2.552-6.547S428.529,205.2,428.584,206.968Z" transform="translate(-408.497 -200.588)" fill="#e05426"/>
                      <g id="Grupo_25444" data-name="Grupo 25444" transform="translate(0 4.423)">
                        <g id="Grupo_25438" data-name="Grupo 25438" transform="translate(0 0.973)">
                          <path id="Trazado_53131" data-name="Trazado 53131" d="M419.3,207.564a.572.572,0,0,1-.254-.05.545.545,0,0,1-.294-.735l1.726-3.693a.6.6,0,0,1,.772-.284.545.545,0,0,1,.294.735l-1.728,3.7A.588.588,0,0,1,419.3,207.564Z" transform="translate(-415.028 -202.755)" fill="#e05426"/>
                          <path id="Trazado_53132" data-name="Trazado 53132" d="M417.826,207.609a.608.608,0,0,1-.254-.05.545.545,0,0,1-.294-.735l1.728-3.7a.594.594,0,0,1,.769-.281.545.545,0,0,1,.294.735l-1.726,3.7A.6.6,0,0,1,417.826,207.609Z" transform="translate(-417.227 -202.688)" fill="#e05426"/>
                        </g>
                        <g id="Grupo_25443" data-name="Grupo 25443" transform="translate(23.814)">
                          <g id="Grupo_25440" data-name="Grupo 25440" transform="translate(0 0.412)">
                            <g id="Grupo_25439" data-name="Grupo 25439">
                              <path id="Trazado_53133" data-name="Trazado 53133" d="M429.341,207.227a.591.591,0,0,1-.535-.3l-1.95-3.581a.547.547,0,0,1,.249-.752.6.6,0,0,1,.787.237l1.947,3.581a.545.545,0,0,1-.249.752A.6.6,0,0,1,429.341,207.227Z" transform="translate(-426.791 -202.53)" fill="#e05426"/>
                            </g>
                          </g>
                          <g id="Grupo_25442" data-name="Grupo 25442" transform="translate(2.885)">
                            <g id="Grupo_25441" data-name="Grupo 25441">
                              <path id="Trazado_53134" data-name="Trazado 53134" d="M430.5,207.06a.584.584,0,0,1-.535-.3l-1.947-3.581a.548.548,0,0,1,.249-.754.6.6,0,0,1,.784.237l1.95,3.583a.547.547,0,0,1-.249.752A.6.6,0,0,1,430.5,207.06Z" transform="translate(-427.949 -202.364)" fill="#e05426"/>
                            </g>
                          </g>
                        </g>
                      </g>
                    </g>
                  </g>
                </g>
                <g id="Grupo_25448" data-name="Grupo 25448" transform="translate(4.353 39.13)">
                  <path id="Trazado_53135" data-name="Trazado 53135" d="M424.164,203.838c3.4,4.724,3.115,10.74-.633,13.434s-9.54,1.051-12.936-3.673-3.118-10.74.63-13.437S420.765,199.115,424.164,203.838Z" transform="translate(-408.22 -198.868)" fill="#ff8a64"/>
                  <path id="Trazado_53136" data-name="Trazado 53136" d="M421.663,211.361c-.045-.207-.11-.381-.162-.578.052.142.087.259.112.354a7.532,7.532,0,0,0-.807-2.493,12.507,12.507,0,0,0-11.547-8.058,26.959,26.959,0,0,1,9.3,6.28c-3.075-.769-7.209,2.378-7.209,2.378,5.127-2.174,7.717-1.35,9.024-.152A12,12,0,0,1,421.663,211.361Z" transform="translate(-406.67 -196.309)" fill="#e05426"/>
                </g>
              </g>
            </g>
          </g>
        </g>
      </g>
    </g>
  </g>
</svg>
