<svg xmlns="http://www.w3.org/2000/svg" xmlns:xlink="http://www.w3.org/1999/xlink" width="142.709" height="154.095" viewBox="0 0 142.709 154.095">
  <defs>
    <clipPath id="clip-path">
      <circle id="Elipse_1381" data-name="Elipse 1381" cx="71.355" cy="71.355" r="71.355" transform="translate(184.169 -168.328)" fill="none"/>
    </clipPath>
  </defs>
  <g id="Grupo_25694" data-name="Grupo 25694" transform="translate(-184.169 179.714)">
    <g id="Grupo_25693" data-name="Grupo 25693">
      <g id="Grupo_25692" data-name="Grupo 25692" clip-path="url(#clip-path)">
        <circle id="Elipse_1381-2" data-name="Elipse 1381" cx="76.131" cy="76.131" r="76.131" transform="translate(178.897 -173.548)" fill="#ffbbc2"/>
        <g id="Grupo_25697" data-name="Grupo 25697">
          <path id="Trazado_53679" data-name="Trazado 53679" d="M272.857-133.739l-12.317-7.11a1.416,1.416,0,0,1-.518-1.934h0l8.88-15.385a1.416,1.416,0,0,1,1.935-.519h0l12.317,7.111a1.416,1.416,0,0,1,.517,1.935l-8.882,15.384A1.415,1.415,0,0,1,272.857-133.739Z" fill="#ffca28"/>
          <path id="Trazado_53680" data-name="Trazado 53680" d="M287.625-125.212l-12.315-7.111a1.417,1.417,0,0,1-.519-1.935l8.882-15.384a1.418,1.418,0,0,1,1.935-.52l12.316,7.112a1.418,1.418,0,0,1,.52,1.935l-8.884,15.381A1.418,1.418,0,0,1,287.625-125.212Z" fill="#ffca28"/>
          <path id="Trazado_53681" data-name="Trazado 53681" d="M283.157-151.577l-12.317-7.111a1.416,1.416,0,0,0-1.935.519h0l-1.339,2.316,4.923,2.842a4.275,4.275,0,0,1,1.564,5.839l-6.111,10.6,4.915,2.838a1.417,1.417,0,0,0,1.935-.519l8.882-15.384A1.416,1.416,0,0,0,283.157-151.577Z" fill="#ffa000"/>
          <path id="Trazado_53682" data-name="Trazado 53682" d="M297.924-143.05l-12.315-7.111a1.418,1.418,0,0,0-1.935.52l-1.339,2.315,4.923,2.842a4.277,4.277,0,0,1,1.564,5.839l-6.113,10.6,4.917,2.838a1.417,1.417,0,0,0,1.935-.52h0l8.883-15.384A1.418,1.418,0,0,0,297.924-143.05Z" fill="#ffa000"/>
          <path id="Trazado_53683" data-name="Trazado 53683" d="M273.338-133.461l-13.278-7.665a.856.856,0,0,0-1.171.31l0,0-2.266,3.926a.861.861,0,0,0,.315,1.176l13.278,7.668a.862.862,0,0,0,1.176-.316l2.264-3.926a.858.858,0,0,0-.311-1.175Z" fill="#e0e0e0"/>
          <path id="Trazado_53684" data-name="Trazado 53684" d="M288.107-124.933,274.829-132.6a.862.862,0,0,0-1.176.315l-2.264,3.926a.86.86,0,0,0,.314,1.174h0l13.276,7.665a.862.862,0,0,0,1.176-.315l2.264-3.927A.859.859,0,0,0,288.107-124.933Z" fill="#e0e0e0"/>
          <path id="Trazado_53685" data-name="Trazado 53685" d="M286.764-156.708l-13.278-7.671a.86.86,0,0,0-1.176.315l-2.264,3.926a.86.86,0,0,0,.313,1.175h0l13.276,7.665a.86.86,0,0,0,1.175-.313v0l2.266-3.926A.862.862,0,0,0,286.764-156.708Z" fill="#e0e0e0"/>
          <path id="Trazado_53686" data-name="Trazado 53686" d="M301.531-148.187l-13.278-7.665a.857.857,0,0,0-1.172.312l0,0-2.266,3.926a.862.862,0,0,0,.315,1.176l13.278,7.666a.86.86,0,0,0,1.175-.314h0l2.264-3.927a.86.86,0,0,0-.313-1.175Z" fill="#e0e0e0"/>
          <path id="Trazado_53687" data-name="Trazado 53687" d="M291.262-128.676l-7.385-4.263a2.049,2.049,0,0,1-.75-2.8,2.047,2.047,0,0,1,2.8-.749l7.386,4.264Zm-1.9-13.755a2.048,2.048,0,0,0-2.8.748,2.048,2.048,0,0,0,.749,2.8l7.383,4.263,2.048-3.546Z" fill="#ff8f00"/>
          <path id="Trazado_53688" data-name="Trazado 53688" d="M276.492-137.2l-7.383-4.262a2.047,2.047,0,0,1-.75-2.8,2.047,2.047,0,0,1,2.8-.749l7.384,4.263Zm-1.9-13.753a2.047,2.047,0,0,0-2.8.749,2.049,2.049,0,0,0,.75,2.8l7.383,4.263,2.048-3.547Z" fill="#ff8f00"/>
          <g id="Grupo_25693-2" data-name="Grupo 25693">
            <path id="Trazado_53689" data-name="Trazado 53689" d="M254.466-149.266a2.047,2.047,0,0,1-2.044-2.051,2.058,2.058,0,0,1,.274-1.021l10.411-18.034a2.048,2.048,0,0,1,2.8-.749,2.047,2.047,0,0,1,.749,2.8h0L256.24-150.29A2.042,2.042,0,0,1,254.466-149.266Z" fill="#424242"/>
          </g>
          <g id="Grupo_25694-2" data-name="Grupo 25694">
            <path id="Trazado_53690" data-name="Trazado 53690" d="M304.267-144.719a3.092,3.092,0,0,1-1.542-.413l-42.964-24.807a3.093,3.093,0,0,1-1.135-4.224l0,0,2.311-4a3.093,3.093,0,0,1,4.222-1.131l42.966,24.81h0a3.1,3.1,0,0,1,1.132,4.228l-2.31,4A3.1,3.1,0,0,1,304.267-144.719Z" fill="#6b6bd6"/>
          </g>
          <g id="Grupo_25695" data-name="Grupo 25695">
            <path id="Trazado_53691" data-name="Trazado 53691" d="M251.5-136.8a2.049,2.049,0,0,1-1.024-.275l-6.342-3.664a2.046,2.046,0,0,1-.753-2.793l0,0,6.141-10.633a2.049,2.049,0,0,1,2.8-.751l6.342,3.664a2.046,2.046,0,0,1,.752,2.795h0l-6.141,10.635a2.047,2.047,0,0,1-1.244.953A1.979,1.979,0,0,1,251.5-136.8Z" fill="#e0e0e0"/>
          </g>
          <rect id="Rectángulo_5166" data-name="Rectángulo 5166" width="6.864" height="7.326" transform="translate(234.618 -124.263) rotate(-59.999)" fill="#e0e0e0"/>
          <path id="Trazado_53692" data-name="Trazado 53692" d="M242.546-119.685l-9.51-5.49a2.348,2.348,0,0,0-3.208.859l-2.237,3.876a.04.04,0,0,0,.014.054l13.51,7.8a.039.039,0,0,0,.054-.014l2.237-3.876A2.35,2.35,0,0,0,242.546-119.685Z" fill="#bdbdbd"/>
          <path id="Trazado_53693" data-name="Trazado 53693" d="M230.819-94.752l-13.511-7.8a.038.038,0,0,0-.053.014h0l-2.239,3.876a2.349,2.349,0,0,0,.861,3.208l9.508,5.49a2.348,2.348,0,0,0,3.209-.86l2.239-3.876A.039.039,0,0,0,230.819-94.752Z" fill="#bdbdbd"/>
          <path id="Trazado_53694" data-name="Trazado 53694" d="M239.115-113.74l-9.51-5.49a2.347,2.347,0,0,0-3.208.859l-1.089,1.874a2.352,2.352,0,0,0,.859,3.209l9.51,5.49a2.349,2.349,0,0,0,3.209-.858h0l1.082-1.875A2.349,2.349,0,0,0,239.115-113.74Z" fill="#6b6bd6"/>
          <path id="Trazado_53695" data-name="Trazado 53695" d="M235.683-107.8l-9.51-5.49a2.349,2.349,0,0,0-3.208.86l-1.084,1.872a2.352,2.352,0,0,0,.859,3.209l9.51,5.489a2.349,2.349,0,0,0,3.209-.858l1.082-1.877A2.348,2.348,0,0,0,235.683-107.8Z" fill="#6b6bd6"/>
          <path id="Trazado_53696" data-name="Trazado 53696" d="M232.25-101.852l-9.51-5.49a2.348,2.348,0,0,0-3.206.858l-1.085,1.877a2.351,2.351,0,0,0,.861,3.209l9.508,5.489a2.348,2.348,0,0,0,3.209-.86l1.083-1.875a2.349,2.349,0,0,0-.86-3.208Z" fill="#6b6bd6"/>
          <g id="Grupo_25696" data-name="Grupo 25696">
            <path id="Trazado_53697" data-name="Trazado 53697" d="M282.552-108.563a4.49,4.49,0,0,1-2.262-.6l-25.05-14.467a.138.138,0,0,0-.1-.012.137.137,0,0,0-.086.065l-.569.986a3.67,3.67,0,0,1-5.012,1.347l0,0-17.317-10a3.673,3.673,0,0,1-1.343-5.015l5.772-10a3.094,3.094,0,0,1,4.222-1.132l47.419,27.378h0a3.1,3.1,0,0,1,1.131,4.222l-2.862,4.956A4.543,4.543,0,0,1,282.552-108.563Z" fill="#6b6bd6"/>
          </g>
          <path id="Trazado_53698" data-name="Trazado 53698" d="M217.426-94.559l-2.252,3.9a3.389,3.389,0,0,1-.276,4.784,3.389,3.389,0,0,1-2.945.787l-1.511,2.618a16.646,16.646,0,0,0-2.026,10.909,16.637,16.637,0,0,0,8.437-7.208l6.978-12.09Z" fill="#e0e0e0"/>
          <path id="Trazado_53699" data-name="Trazado 53699" d="M321.167-71.872h0a5.977,5.977,0,0,0-5.976-5.976h-2.156a5.977,5.977,0,0,0,5.976-5.974h0a5.976,5.976,0,0,0-5.974-5.977H297.928v-5.975a5.975,5.975,0,0,0-5.974-5.976H283.2a29.765,29.765,0,0,0-19.577,7.308,11.258,11.258,0,0,1-7.4,2.708H229.12l-.526.907a2.348,2.348,0,0,1-3.208.858l-1.55-.895-6.983,12.1a16.637,16.637,0,0,1-8.437,7.208,16.646,16.646,0,0,1,2.026-10.909l1.511-2.618a3.391,3.391,0,0,0,4.008-2.632,3.393,3.393,0,0,0-.787-2.941l.619-1.077H183.13A1.735,1.735,0,0,0,181.4-90h0v36.251a1.736,1.736,0,0,0,1.735,1.734h73.091a11.271,11.271,0,0,1,7.394,2.708A29.759,29.759,0,0,0,283.194-42H307.5a5.977,5.977,0,0,0,5.977-5.975h0a5.976,5.976,0,0,0-5.975-5.976h5.975a5.976,5.976,0,0,0,5.976-5.976h0a5.977,5.977,0,0,0-5.976-5.976h1.711A5.975,5.975,0,0,0,321.167-71.872Z" fill="#f4a56d"/>
          <path id="Trazado_53700" data-name="Trazado 53700" d="M298.555-89.8a8.016,8.016,0,0,0-.643,11.318,8.014,8.014,0,0,0,1.911,1.569,8.014,8.014,0,0,0-.834,8.834,2.2,2.2,0,0,1-.393,2.57,8.022,8.022,0,0,0-2.031,7.56,2.237,2.237,0,0,1-1.32,2.6,8.053,8.053,0,0,0-4.775,6.019,2.239,2.239,0,0,1-2.2,1.883H272.279a29.922,29.922,0,0,1-7.609-.98,29.756,29.756,0,0,0,18.524,6.444H307.5a5.977,5.977,0,0,0,5.977-5.974v0h0a5.977,5.977,0,0,0-5.965-5.985h5.825a6.07,6.07,0,0,0,6.116-5.758,5.976,5.976,0,0,0-5.757-6.188c-.072,0-.144,0-.216,0h1.711a5.977,5.977,0,0,0,5.976-5.976h0a5.978,5.978,0,0,0-5.976-5.976h-2.158a5.976,5.976,0,0,0,5.976-5.974h0a5.976,5.976,0,0,0-5.974-5.977h-14.48Zm7.394,0h0" fill="#e7985b"/>
          <path id="Trazado_53701" data-name="Trazado 53701" d="M253.877-53.792a20.148,20.148,0,0,0-10.619-3.677H181.4v3.725a1.736,1.736,0,0,0,1.735,1.734h73.287A29.606,29.606,0,0,1,253.877-53.792Z" fill="#e7985b"/>
          <path id="Trazado_53702" data-name="Trazado 53702" d="M230.371-71.528a.443.443,0,0,1-.064-.623.43.43,0,0,1,.064-.064,8.019,8.019,0,0,0,1.216-11.274A8.018,8.018,0,0,0,220.313-84.7l-.055.044-3.4,5.891a16.637,16.637,0,0,1-8.416,7.2,3,3,0,0,0,.89,1.849l10.3,10.076h0a8.019,8.019,0,0,0,11.34.081,8.019,8.019,0,0,0,.082-11.34,8.1,8.1,0,0,0-.688-.621Z" fill="#e33e4e"/>
          <path id="Trazado_53703" data-name="Trazado 53703" d="M297.926-89.8v-5.975a5.956,5.956,0,0,0-2.046-4.5v24.7a3.926,3.926,0,0,1-3.933,3.919,3.925,3.925,0,0,1-3.919-3.919v-13.3a2.049,2.049,0,0,0-2.044-2.052,2.048,2.048,0,0,0-2.052,2.044v.008a5.991,5.991,0,0,1-5.88,6.1,5.991,5.991,0,0,1-6.1-5.88c0-.074,0-.147,0-.22a2.048,2.048,0,0,0-2.044-2.052,2.048,2.048,0,0,0-2.052,2.044v.008a10.083,10.083,0,0,0,10.079,10.086,10.078,10.078,0,0,0,6-1.977v5.192a8.024,8.024,0,0,0,7.933,8.112,8.023,8.023,0,0,0,8.112-7.933c0-.06,0-.119,0-.179V-89.8Z" fill="#e7985b"/>
          <path id="Trazado_53704" data-name="Trazado 53704" d="M313.036-77.848H303.9a5.976,5.976,0,0,1-5.976-5.974h0A5.977,5.977,0,0,1,303.9-89.8h9.134a5.976,5.976,0,0,1,5.974,5.977h0A5.976,5.976,0,0,1,313.036-77.848Z" fill="#f4a56d"/>
          <path id="Trazado_53705" data-name="Trazado 53705" d="M313.475-53.944h-9.132a5.976,5.976,0,0,1-5.976-5.976h0a5.977,5.977,0,0,1,5.976-5.976h9.132a5.975,5.975,0,0,1,5.976,5.974v0h0a5.975,5.975,0,0,1-5.974,5.976Z" fill="#f4a56d"/>
          <path id="Trazado_53706" data-name="Trazado 53706" d="M307.508-41.993h-9.133A5.977,5.977,0,0,1,292.4-47.97h0a5.976,5.976,0,0,1,5.976-5.974h9.133a5.976,5.976,0,0,1,5.975,5.974h0A5.977,5.977,0,0,1,307.508-41.993Z" fill="#f4a56d"/>
          <path id="Trazado_53707" data-name="Trazado 53707" d="M315.19-65.9h-9.131a5.976,5.976,0,0,1-5.976-5.976h0a5.976,5.976,0,0,1,5.976-5.976h9.131a5.974,5.974,0,0,1,5.976,5.974v0h0a5.975,5.975,0,0,1-5.974,5.976Z" fill="#f4a56d"/>
          <path id="Trazado_53708" data-name="Trazado 53708" d="M315.668-89.187a5.949,5.949,0,0,1,.611,2.633h0a5.974,5.974,0,0,1-5.974,5.976h-9.133a5.956,5.956,0,0,1-2.634-.611,5.973,5.973,0,0,0,5.363,3.341h9.134a5.976,5.976,0,0,0,5.974-5.976h0A5.974,5.974,0,0,0,315.668-89.187Z" fill="#e7985b"/>
          <path id="Trazado_53709" data-name="Trazado 53709" d="M316.108-65.285a5.939,5.939,0,0,1,.613,2.634h0a5.975,5.975,0,0,1-5.974,5.976h-9.135a5.97,5.97,0,0,1-2.634-.611,5.972,5.972,0,0,0,5.363,3.34h9.134a5.975,5.975,0,0,0,5.976-5.974h0A5.972,5.972,0,0,0,316.108-65.285Z" fill="#e7985b"/>
          <path id="Trazado_53710" data-name="Trazado 53710" d="M310.143-53.334a5.978,5.978,0,0,1-2.733,8,5.975,5.975,0,0,1-2.632.611h-9.131a5.962,5.962,0,0,1-2.636-.611,5.978,5.978,0,0,0,5.365,3.341h9.133a5.978,5.978,0,0,0,5.974-5.98,5.979,5.979,0,0,0-3.34-5.36Z" fill="#e7985b"/>
          <path id="Trazado_53711" data-name="Trazado 53711" d="M317.824-77.235a5.939,5.939,0,0,1,.613,2.634h0a5.976,5.976,0,0,1-5.974,5.976h-9.136a5.937,5.937,0,0,1-2.633-.613,5.973,5.973,0,0,0,5.365,3.342h9.131a5.974,5.974,0,0,0,5.976-5.974v0h0A5.975,5.975,0,0,0,317.824-77.235Z" fill="#e7985b"/>
        </g>
      </g>
    </g>
    <g id="Grupo_25694-3" data-name="Grupo 25694">
      <path id="Trazado_53690-2" data-name="Trazado 53690" d="M304.267-144.719a3.092,3.092,0,0,1-1.542-.413l-42.964-24.807a3.093,3.093,0,0,1-1.135-4.224l0,0,2.311-4a3.093,3.093,0,0,1,4.222-1.131l42.966,24.81h0a3.1,3.1,0,0,1,1.132,4.228l-2.31,4A3.1,3.1,0,0,1,304.267-144.719Z" fill="#6b6bd6"/>
    </g>
    <path id="Trazado_53704-2" data-name="Trazado 53704" d="M313.036-77.848H303.9a5.976,5.976,0,0,1-5.976-5.974h0A5.977,5.977,0,0,1,303.9-89.8h9.134a5.976,5.976,0,0,1,5.974,5.977h0A5.976,5.976,0,0,1,313.036-77.848Z" fill="#f4a56d"/>
    <path id="Trazado_53705-2" data-name="Trazado 53705" d="M313.475-53.944h-9.132a5.976,5.976,0,0,1-5.976-5.976h0a5.977,5.977,0,0,1,5.976-5.976h9.132a5.975,5.975,0,0,1,5.976,5.974v0h0a5.975,5.975,0,0,1-5.974,5.976Z" fill="#f4a56d"/>
    <path id="Trazado_53706-2" data-name="Trazado 53706" d="M307.508-41.993h-9.133A5.977,5.977,0,0,1,292.4-47.97h0a5.976,5.976,0,0,1,5.976-5.974h9.133a5.976,5.976,0,0,1,5.975,5.974h0A5.977,5.977,0,0,1,307.508-41.993Z" fill="#f4a56d"/>
    <path id="Trazado_53707-2" data-name="Trazado 53707" d="M315.19-65.9h-9.131a5.976,5.976,0,0,1-5.976-5.976h0a5.976,5.976,0,0,1,5.976-5.976h9.131a5.974,5.974,0,0,1,5.976,5.974v0h0a5.975,5.975,0,0,1-5.974,5.976Z" fill="#f4a56d"/>
    <path id="Trazado_53708-2" data-name="Trazado 53708" d="M315.668-89.187a5.949,5.949,0,0,1,.611,2.633h0a5.974,5.974,0,0,1-5.974,5.976h-9.133a5.956,5.956,0,0,1-2.634-.611,5.973,5.973,0,0,0,5.363,3.341h9.134a5.976,5.976,0,0,0,5.974-5.976h0A5.974,5.974,0,0,0,315.668-89.187Z" fill="#e7985b"/>
    <path id="Trazado_53709-2" data-name="Trazado 53709" d="M316.108-65.285a5.939,5.939,0,0,1,.613,2.634h0a5.975,5.975,0,0,1-5.974,5.976h-9.135a5.97,5.97,0,0,1-2.634-.611,5.972,5.972,0,0,0,5.363,3.34h9.134a5.975,5.975,0,0,0,5.976-5.974h0A5.972,5.972,0,0,0,316.108-65.285Z" fill="#e7985b"/>
    <path id="Trazado_53710-2" data-name="Trazado 53710" d="M310.143-53.334a5.978,5.978,0,0,1-2.733,8,5.975,5.975,0,0,1-2.632.611h-9.131a5.962,5.962,0,0,1-2.636-.611,5.978,5.978,0,0,0,5.365,3.341h9.133a5.978,5.978,0,0,0,5.974-5.98,5.979,5.979,0,0,0-3.34-5.36Z" fill="#e7985b"/>
    <path id="Trazado_53711-2" data-name="Trazado 53711" d="M317.824-77.235a5.939,5.939,0,0,1,.613,2.634h0a5.976,5.976,0,0,1-5.974,5.976h-9.136a5.937,5.937,0,0,1-2.633-.613,5.973,5.973,0,0,0,5.365,3.342h9.131a5.974,5.974,0,0,0,5.976-5.974v0h0A5.975,5.975,0,0,0,317.824-77.235Z" fill="#e7985b"/>
  </g>
</svg>
