<svg xmlns="http://www.w3.org/2000/svg" width="76.084" height="76.084" viewBox="0 0 76.084 76.084">
  <g id="Grupo_25718" data-name="Grupo 25718" transform="translate(-689.281 -277.551)">
    <circle id="Elipse_1362" data-name="Elipse 1362" cx="38.042" cy="38.042" r="38.042" transform="translate(689.281 277.551)" fill="#f2f2f2"/>
    <g id="flat">
      <path id="Trazado_53679" data-name="Trazado 53679" d="M755.861,329.147l-.118-.118a11.324,11.324,0,0,0-16.013,0l-.117.118H728.007a3.482,3.482,0,0,0-3.375,4.338l-11.686-3.9a3.548,3.548,0,0,0-4.669,3.366v.077a3.553,3.553,0,0,0,1.643,3.011l20.145,12.82a10.158,10.158,0,0,0,8.037,1.253l17.759-4.673h5.8v-16.3Z" fill="#f4a56d"/>
      <path id="Trazado_53680" data-name="Trazado 53680" d="M728.007,336.11a3.483,3.483,0,0,1-3.376-2.624l-11.684-3.9a3.517,3.517,0,0,0-1.51-.162l15.409,8.655h12.767V336.11Z" fill="#e7985b"/>
      <path id="Trazado_53681" data-name="Trazado 53681" d="M721.939,307.9l-2.713.461a2.909,2.909,0,0,1-3.356-2.38,2.955,2.955,0,0,1-.041-.531,2.91,2.91,0,0,1,2.422-2.825l3.775-.642Z" fill="#e7985b"/>
      <path id="Trazado_53682" data-name="Trazado 53682" d="M727.856,307.985l-4.491.763a2.569,2.569,0,0,1-1.3-4.949l7.26-2.622Z" fill="#e7985b"/>
      <path id="Trazado_53683" data-name="Trazado 53683" d="M722.916,303.65l.977-4.538,11.346,2.442,1.161-5.389a5.223,5.223,0,0,0-1.163-4.524l-4.3-4.947a5.224,5.224,0,0,0-4.042-1.8l-17.824.339L694.35,277.9V295.3l9.278,4.192,1.917,2.35a12.537,12.537,0,0,0,7.079,4.335,10.617,10.617,0,0,0,6.975-.878Z" fill="#f4a56d"/>
      <g id="Grupo_25716" data-name="Grupo 25716">
        <path id="Trazado_53684" data-name="Trazado 53684" d="M734.216,304.958l-.611,2.836a2.9,2.9,0,0,1-3.447,2.226h0a2.9,2.9,0,0,1-2.226-3.447h0l.611-2.836Z" fill="#e7985b"/>
        <path id="Trazado_53685" data-name="Trazado 53685" d="M730.3,298.09a1.162,1.162,0,0,1-1.161-1.163,1.147,1.147,0,0,1,.025-.242l.489-2.269a1.16,1.16,0,1,1,2.269.488l-.488,2.269A1.161,1.161,0,0,1,730.3,298.09Z" fill="#e7985b"/>
        <path id="Trazado_53686" data-name="Trazado 53686" d="M727.441,298.739a1.162,1.162,0,0,1-1.08-.735l-2.082-5.274a1.161,1.161,0,0,1,2.16-.852h0l2.081,5.274a1.162,1.162,0,0,1-1.079,1.587Z" fill="#e7985b"/>
      </g>
      <path id="Trazado_53687" data-name="Trazado 53687" d="M739.613,337.1a.987.987,0,0,1-.987.987h-7a18.258,18.258,0,0,1-8.939-2.34l-11.246-6.316a3.517,3.517,0,0,1,1.51.162l11.684,3.9a3.483,3.483,0,0,0,3.376,2.624h10.619a.988.988,0,0,1,.987.986Z" fill="#e7985b"/>
      <g id="Grupo_25717" data-name="Grupo 25717">
        <path id="Trazado_53299" data-name="Trazado 53299" d="M738.757,307.374c-1.994-3.058-3.958-5.486-4.04-5.588a1.394,1.394,0,0,0-1.961-.2,1.454,1.454,0,0,0-.207.208c-.082.1-2.045,2.555-4.037,5.619-2.814,4.329-4.181,7.521-4.181,9.755a9.3,9.3,0,0,0,18.607,0C742.939,314.924,741.532,311.629,738.757,307.374Z" fill="#e33e4e"/>
        <path id="Trazado_53300" data-name="Trazado 53300" d="M742.939,317.165a9.315,9.315,0,0,1-9.268,9.3v-25.2a1.382,1.382,0,0,1,1.046.515c.082.1,2.046,2.53,4.041,5.588,2.774,4.254,4.18,7.55,4.18,9.794Z" fill="#bf2e43"/>
        <path id="Trazado_53305" data-name="Trazado 53305" d="M735.939,315.823h-.876v-.887a1.394,1.394,0,0,0-2.787-.01v.9H731.4a1.393,1.393,0,1,0,0,2.787h.877v.886a1.394,1.394,0,0,0,2.787.011v-.9h.876a1.393,1.393,0,0,0,0-2.787Z" fill="#e4edef"/>
        <path id="Trazado_53306" data-name="Trazado 53306" d="M737.332,317.215a1.394,1.394,0,0,1-1.394,1.393h-.877v.886a1.394,1.394,0,0,1-1.393,1.394v-7.341a1.393,1.393,0,0,1,1.393,1.393v.888h.877A1.394,1.394,0,0,1,737.332,317.215Z" fill="#bfdfe7"/>
      </g>
      <path id="Trazado_53688" data-name="Trazado 53688" d="M712.862,306.234a9.929,9.929,0,0,0,6.52-.821l3.534-1.763,9.425,1.15a3.64,3.64,0,0,0,1.208-7.171h0l-8.922-1.921-9.077-1.954Z" fill="#f4a56d"/>
    </g>
  </g>
</svg>
