<svg xmlns="http://www.w3.org/2000/svg" width="108.5" height="100.834" viewBox="0 0 108.5 100.834">
  <g id="Grupo_25837" data-name="Grupo 25837" transform="translate(-1014.931 -471.809)">
    <path id="Trazado_54283" data-name="Trazado 54283" d="M1037.021,553.342a48.727,48.727,0,0,0,45.875,0h-45.875Z" transform="translate(3.675 13.565)" fill="#fff"/>
    <path id="Trazado_54284" data-name="Trazado 54284" d="M1014.931,521.289a48.52,48.52,0,0,0,13.405,33.536V487.752A48.52,48.52,0,0,0,1014.931,521.289Z" transform="translate(0 2.652)" fill="#fff"/>
    <path id="Trazado_54285" data-name="Trazado 54285" d="M1087.414,488.24v65.934a48.678,48.678,0,0,0,0-65.934Z" transform="translate(12.059 2.734)" fill="#fff"/>
    <path id="Trazado_54286" data-name="Trazado 54286" d="M1034.782,471.809a8.368,8.368,0,0,0-8.358,8.358v77.31a48.835,48.835,0,0,0,12.36,9.43h23.3v-95.1Z" transform="translate(1.912 0)" fill="#bfdfe7"/>
    <path id="Trazado_54287" data-name="Trazado 54287" d="M1084.116,471.809H1057v95.1h22.573a48.833,48.833,0,0,0,12.9-10v-76.74A8.368,8.368,0,0,0,1084.116,471.809Z" transform="translate(6.999 0)" fill="#93cbd8"/>
    <path id="Trazado_54288" data-name="Trazado 54288" d="M1083.953,490.041a2.787,2.787,0,0,1-2.786,2.786H1039.56a2.786,2.786,0,0,1,0-5.572h41.606A2.787,2.787,0,0,1,1083.953,490.041Z" transform="translate(3.634 2.57)" fill="#425796"/>
    <path id="Trazado_54289" data-name="Trazado 54289" d="M1080.614,490.041a2.787,2.787,0,0,1-2.786,2.786H1056.84v-5.572h20.988A2.787,2.787,0,0,1,1080.614,490.041Z" transform="translate(6.973 2.57)" fill="#283758"/>
    <path id="Trazado_54290" data-name="Trazado 54290" d="M1075.037,502.781a2.787,2.787,0,0,1-2.786,2.786h-32.69a2.786,2.786,0,0,1,0-5.573h32.69A2.787,2.787,0,0,1,1075.037,502.781Z" transform="translate(3.634 4.689)" fill="#425796"/>
    <path id="Trazado_54291" data-name="Trazado 54291" d="M1071.7,502.781a2.787,2.787,0,0,1-2.786,2.786H1056.84v-5.573h12.072A2.787,2.787,0,0,1,1071.7,502.781Z" transform="translate(6.973 4.689)" fill="#283758"/>
    <path id="Trazado_54292" data-name="Trazado 54292" d="M1066.121,515.522a2.787,2.787,0,0,1-2.785,2.785H1039.56a2.786,2.786,0,0,1,0-5.572h23.775A2.787,2.787,0,0,1,1066.121,515.522Z" transform="translate(3.634 6.809)" fill="#425796"/>
    <path id="Trazado_54293" data-name="Trazado 54293" d="M1062.783,515.522a2.787,2.787,0,0,1-2.785,2.785h-3.157v-5.572H1060A2.787,2.787,0,0,1,1062.783,515.522Z" transform="translate(6.973 6.809)" fill="#283758"/>
    <path id="Trazado_54294" data-name="Trazado 54294" d="M1114.587,509.229c-.348.587-1.508,1.779-9.288,9.456-4.508,4.449-11.239,11.077-21.32,21.03-.485.481.611-.106-16.541,7.9a2.789,2.789,0,0,1-3.7-3.7c8.016-17.175,7.415-16.061,7.91-16.551,10.048-10.048,16.723-16.728,21.161-21.165,8.623-8.628,8.792-8.791,8.813-8.769a5.577,5.577,0,0,1,7.455.383c5.033,5.034,4.791,4.772,5.033,5.075a5.586,5.586,0,0,1,.478,6.349Z" transform="translate(8.075 4.054)" fill="#ffe278"/>
    <path id="Trazado_54295" data-name="Trazado 54295" d="M1114.464,508.673c-.548.926-3.131,3.364-30.608,30.486-.485.481.611-.106-16.54,7.9a2.782,2.782,0,0,1-1.178.261,2.741,2.741,0,0,1-1.933-.78l47.019-47.018c2.686,2.684,2.561,2.555,2.762,2.805a5.586,5.586,0,0,1,.478,6.349Z" transform="translate(8.198 4.61)" fill="#ffb454"/>
    <path id="Trazado_54296" data-name="Trazado 54296" d="M1110.4,509.229c-.348.587-1.508,1.779-9.288,9.456l-.014-.013-6.267-6.267-6.211-6.21v0c8.623-8.628,8.792-8.791,8.813-8.769a5.577,5.577,0,0,1,7.455.383c.923.924,1.668,1.668,2.271,2.27,2.69,2.687,2.564,2.558,2.762,2.805a5.586,5.586,0,0,1,.478,6.349Z" transform="translate(12.26 4.054)" fill="#e33e4e"/>
    <path id="Trazado_54297" data-name="Trazado 54297" d="M1109.516,508.673c-.348.587-1.508,1.779-9.288,9.456l-.014-.013-6.267-6.267,12.328-12.33c2.69,2.687,2.564,2.558,2.762,2.805a5.586,5.586,0,0,1,.478,6.349Z" transform="translate(13.146 4.61)" fill="#bf2e43"/>
  </g>
</svg>
