<svg xmlns="http://www.w3.org/2000/svg" width="182.667" height="163.849" viewBox="0 0 182.667 163.849">
  <g id="Grupo_25795" data-name="Grupo 25795" transform="translate(-322.186 -493.104)">
    <path id="Trazado_53762" data-name="Trazado 53762" d="M331.352,562.243c10.787-35.687,58.049-76.131,115.6-63.869,16.661,3.55,27.054,10.31,33.422,24.932,10.642,24.44,1.023,46.08-7.43,55.625-8.2,9.26-20.892,13.519-28.387,23.4a30.044,30.044,0,0,0-5.982,19.095c.113,2.995.674,5.992.366,8.975-.612,5.923-4.748,10.875-9.577,14.16-13.177,8.96-46.1,13.617-72.032-3.944C326.056,619.432,327.01,576.6,331.352,562.243Z" transform="translate(10.133 4.421)" fill="#c5dbee"/>
    <path id="Trazado_53763" data-name="Trazado 53763" d="M341.651,510.3a17.172,17.172,0,0,1,2.149-2.046c3.147-2.112,6.961-.625,8.205,3.14a7.154,7.154,0,0,1-.964,6.147,23.768,23.768,0,0,1-6.545,6.722c-.772.571-1.576,1.1-2.385,1.613a.676.676,0,0,1-.585.062,28.012,28.012,0,0,1-8.8-8.035,7.562,7.562,0,0,1-1.365-5.869,5.466,5.466,0,0,1,9.946-2.314c.148.2.283.4.425.6C341.734,510.334,341.759,510.331,341.651,510.3Z" transform="translate(13.163 20.695)" fill="#e33e4e"/>
    <g id="Grupo_25792" data-name="Grupo 25792" transform="translate(348.635 495.007)">
      <g id="Grupo_25765" data-name="Grupo 25765" transform="translate(0 77.657)">
        <g id="Grupo_25760" data-name="Grupo 25760" transform="translate(22.886 15.84)">
          <g id="Grupo_25759" data-name="Grupo 25759">
            <path id="Trazado_53764" data-name="Trazado 53764" d="M373.283,531.9l-21.608,29.464-9.424-.307c1.706,3.108,3.4,6.221,5.262,9.238,1.375,2.228,2.835,4.359,4.192,6.545,1.055-.057,2.144-.143,3.125-.234a8.114,8.114,0,0,0,5.574-2.987l24.755-28Z" transform="translate(-342.251 -531.903)" fill="#eb9f86"/>
            <path id="Trazado_53765" data-name="Trazado 53765" d="M361.292,561.366l13.922-15.746L363.337,531.9l-14.268,19.456C352.939,552.758,357.286,555.66,361.292,561.366Z" transform="translate(-332.305 -531.903)" fill="#1d8f62"/>
          </g>
        </g>
        <g id="Grupo_25764" data-name="Grupo 25764">
          <g id="Grupo_25761" data-name="Grupo 25761" transform="translate(13.735 24.453)">
            <path id="Trazado_53766" data-name="Trazado 53766" d="M347.59,535.406l-9.061,2.424c1.431,5.992,4.62,18.982,7.224,24.654,3.806,8.291,10.5,10.58,15.146,8.557a4.909,4.909,0,0,0,.784-.418h0c1.608-1.04,1.163-1.256,1.488-3.656.615-4.524-1.136-10.735-5.363-15.488C354.811,548.108,350.221,539.7,347.59,535.406Z" transform="translate(-338.529 -535.406)" fill="#eb9f86"/>
          </g>
          <g id="Grupo_25763" data-name="Grupo 25763">
            <path id="Trazado_53767" data-name="Trazado 53767" d="M357.75,538.8l-.032.017c-.275-.479-2.186-3.774-3.393-4.227-1.323-.5-4,.364-4.883,1.345-.472.526-.8,3.1-1.3,4.559l-1.008-3.924c1.911-9.58-1.915-10.92-2.08-10.971l-.423-.135-1.537,9.727a5.846,5.846,0,0,0,.153,2.505l.831,3.73-1.91-3.337c.625-5.626-.246-7.875-1.089-8.771a1.675,1.675,0,0,0-1.229-.61l-.3.017-1.4,7.657a5.187,5.187,0,0,0,.482,3.28l2.464,4.817c-2.353-1.849-4.382-2.707-6.044-2.557a2.731,2.731,0,0,0-1.9.873l-.214.278,7.7,6.895c.214.177,1.06,1.328,1.879,2.442.922,1.256,2.07,2.82,3.051,4.02.765.937,3.28,2.415,4.91,2.265,1.033-.094.856-1.492,1.928-1.908a15.162,15.162,0,0,0,4.824-2.845c1.581-2.176,2.631-8.47,2.4-9.181l-1.827-5.771,0-.007-.01-.015Zm-1.93,4.748-1.043,1.257-1.647-2.754a1.321,1.321,0,0,1-.172-.912l.391-2.09a6.508,6.508,0,0,0,2.862.969A4.2,4.2,0,0,0,355.82,543.545Z" transform="translate(-332.943 -525.461)" fill="#eb9f86"/>
            <g id="Grupo_25762" data-name="Grupo 25762" transform="translate(12.84 18.492)">
              <path id="Trazado_53768" data-name="Trazado 53768" d="M338.165,535.578a4.2,4.2,0,0,1,4.327,1.967l1.92-4.564Z" transform="translate(-338.165 -532.982)" fill="#fd7e6a"/>
            </g>
          </g>
        </g>
      </g>
      <g id="Grupo_25770" data-name="Grupo 25770" transform="translate(50.719 74.116)">
        <g id="Grupo_25769" data-name="Grupo 25769">
          <g id="Grupo_25766" data-name="Grupo 25766" transform="translate(0 13.209)">
            <path id="Trazado_53769" data-name="Trazado 53769" d="M356.77,535.565c3.046-3.755,13.737-6.177,18.647-6.172,3.774,0,11.711,1.842,14.2,5.092,5.938,7.75,3.575,27.755,3.575,27.755l2.363,24.17a50.434,50.434,0,0,1-24.991,4.529c-3.9-.347-16.105-4.659-16.589-8.055-.5-3.519-.686-8.975.3-17.177C356.195,549.8,352.58,540.723,356.77,535.565Z" transform="translate(-353.571 -529.393)" fill="#62cca2"/>
          </g>
          <path id="Trazado_53770" data-name="Trazado 53770" d="M353.939,566.26c3.474,4.381,9.538,6.216,16.4,5.761a13.021,13.021,0,0,0,11.964-13.939l-1.436-21.365s3.617-2.449,8.237-5.488a5.845,5.845,0,0,1,.514.575c5.938,7.75,3.575,27.752,3.575,27.752l2.284,23.368h0l.079.8a50.434,50.434,0,0,1-24.991,4.529c-3.9-.347-16.105-4.659-16.589-8.055A61.032,61.032,0,0,1,353.939,566.26Z" transform="translate(-353.57 -513.505)" fill="#1d8f62"/>
          <g id="Grupo_25768" data-name="Grupo 25768" transform="translate(4.721)">
            <g id="Grupo_25767" data-name="Grupo 25767">
              <path id="Trazado_53771" data-name="Trazado 53771" d="M376.014,537.557l-.829-13.536L361.4,528.85l-.411,10.558a24.734,24.734,0,0,0-2.874,1.146c-1.96,4.185-4.8,12.205.052,13.13,7.531,1.438,8.675-9.361,21.271-15.36A20.981,20.981,0,0,0,376.014,537.557Z" transform="translate(-355.491 -524.021)" fill="#fd7e6a"/>
            </g>
          </g>
        </g>
      </g>
      <g id="Grupo_25784" data-name="Grupo 25784" transform="translate(29.472 15.712)">
        <path id="Trazado_53772" data-name="Trazado 53772" d="M361.291,524.094c2.2,4.357,1.281,9.213-2.07,10.868-3.368,1.667-7.932-.524-10.182-4.915-2.257-4.409-1.31-9.324,2.1-10.954C354.542,517.47,359.078,519.722,361.291,524.094Z" transform="translate(-340.725 -473.575)" fill="#fd5f44"/>
        <path id="Trazado_53773" data-name="Trazado 53773" d="M410.718,522.8c2.8,3.558-.75,16.476-6.036,27.064-2.2,4.436-6.11,7.266-9.668,7.113q-16.195-.671-32.39-1.345c-3.494-.148-6.592-2.963-8.045-7.032-.565-1.6-1.131-3.273-1.674-4.986-3.474-.14-6.024-.266-6.046-.334a46.881,46.881,0,0,1-1.406-6.828h0l-.01-.076c-.039-.283-.079-.565-.116-.858-.012-.1-.025-.209-.037-.312-.042-.352-.081-.708-.118-1.072-.03-.278-.059-.558-.084-.846-.012-.135-.022-.273-.032-.411-.027-.312-.049-.625-.069-.944-.007-.106-.012-.214-.02-.322a26.621,26.621,0,0,1,.123-4.323A29.879,29.879,0,0,1,367.9,501.773a52.672,52.672,0,0,1,8.618-1.387c11.106-.792,25.564,2.048,32.463,18.323q-.033-5.071-.31-10.133c.022-.01,4.126,4.551,3.078,10.526q1.855-2.648,3.723-5.326C415.522,513.772,415.414,521.254,410.718,522.8Z" transform="translate(-344.929 -500.268)" fill="#401f43"/>
        <g id="Grupo_25783" data-name="Grupo 25783" transform="translate(7.262 15.265)">
          <g id="Grupo_25782" data-name="Grupo 25782">
            <g id="Grupo_25771" data-name="Grupo 25771" transform="translate(3.536 4.666)">
              <path id="Trazado_53774" data-name="Trazado 53774" d="M371.275,564.769c-15.638,5.294-21.954-8.8-21.954-20.639V525.318A16.856,16.856,0,0,1,365.64,508.8l11.271-.411a15.445,15.445,0,0,1,16.319,15.34L391.243,542C391.243,553.84,378.472,562.333,371.275,564.769Z" transform="translate(-349.321 -508.373)" fill="#eb9f86"/>
            </g>
            <path id="Trazado_53775" data-name="Trazado 53775" d="M355.078,530.111s4.7.115,5.53-4.1C360.608,526.015,361.24,532.8,355.078,530.111Z" transform="translate(-337.387 -477.972)" fill="#fd7e6a"/>
            <path id="Trazado_53776" data-name="Trazado 53776" d="M371.173,535.883c-10.762,3.248-17.58-.806-21.249-7.157,2.673,8.323,9.11,14.713,20.472,10.868,5.252-1.778,13.469-6.786,17.529-13.961A41.253,41.253,0,0,1,371.173,535.883Z" transform="translate(-344.906 -478.531)" fill="#ebc0a0"/>
            <g id="Grupo_25772" data-name="Grupo 25772" transform="translate(13.135 41.918)">
              <path id="Trazado_53777" data-name="Trazado 53777" d="M361.538,523.524a6.688,6.688,0,0,1,.674,1.913c.6,3.1-1,6.019-3.568,6.513-2.245.433-4.49-1.126-5.419-3.6Z" transform="translate(-353.225 -523.524)" fill="#130604"/>
              <path id="Trazado_53778" data-name="Trazado 53778" d="M356.809,530.225a4.064,4.064,0,0,1-2.326-.246,5.044,5.044,0,0,1,3.892-5.193,4.521,4.521,0,0,1,2.127.108C360.549,527.522,359.049,529.794,356.809,530.225Z" transform="translate(-351.39 -521.798)" fill="#eb0a55"/>
            </g>
            <path id="Trazado_53779" data-name="Trazado 53779" d="M391.863,537.887s-8.377-.634-8.977-14.885c0,0-21.989-3.233-32.461,8.347l-2.542-11.013s15.79-13.72,16.272-13.85,21.426.969,21.426.969L398,514.172,400.24,524.7l-4.146,11.554Z" transform="translate(-347.883 -506.476)" fill="#401f43"/>
            <g id="Grupo_25773" data-name="Grupo 25773" transform="translate(39.014 26.934)">
              <path id="Trazado_53780" data-name="Trazado 53780" d="M365.126,523.466c-2.533,4.819-1.47,10.2,2.37,12.026s9.007-.61,11.539-5.432,1.47-10.206-2.37-12.026S367.659,518.645,365.126,523.466Z" transform="translate(-363.75 -517.43)" fill="#eb9f86"/>
              <path id="Trazado_53781" data-name="Trazado 53781" d="M365.214,530.5c.015-.194.052-.361.071-.548-.027.135-.047.248-.057.339a7.013,7.013,0,0,1,.418-2.385,12.253,12.253,0,0,1,9.665-9.161,26.474,26.474,0,0,0-7.807,7.19c2.754-1.2,7.015.969,7.015.969-5.055-1.124-7.354.042-8.409,1.338A11.144,11.144,0,0,0,365.214,530.5Z" transform="translate(-361.615 -515.514)" fill="#fd5f44"/>
            </g>
            <g id="Grupo_25781" data-name="Grupo 25781" transform="translate(3.536 22.502)">
              <path id="Trazado_53782" data-name="Trazado 53782" d="M352.368,526.8c0,1.721,1.047,3.091,2.338,3.056s2.341-1.456,2.341-3.177-1.047-6.282-2.341-6.248S352.368,525.082,352.368,526.8Z" transform="translate(-344.876 -508.614)" fill="#fd5f44"/>
              <g id="Grupo_25775" data-name="Grupo 25775" transform="translate(0 0.599)">
                <g id="Grupo_25774" data-name="Grupo 25774" transform="translate(1.805 8.261)">
                  <path id="Trazado_53783" data-name="Trazado 53783" d="M350.1,522.15c.194,1.495.907,2.618,1.591,2.505s1.082-1.414.888-2.909-.907-2.619-1.591-2.508S349.91,520.655,350.1,522.15Z" transform="translate(-350.055 -519.231)" fill="#291018"/>
                </g>
                <path id="Trazado_53784" data-name="Trazado 53784" d="M349.321,517.361a9.383,9.383,0,0,1,1.33-.8c4.908-2.395,5.923,2.186,5.923,2.186a29.5,29.5,0,0,0-7.253,2.985Z" transform="translate(-349.321 -515.871)" fill="#200f21"/>
              </g>
              <g id="Grupo_25777" data-name="Grupo 25777" transform="translate(14.93)">
                <g id="Grupo_25776" data-name="Grupo 25776" transform="translate(2.79 7.788)">
                  <path id="Trazado_53785" data-name="Trazado 53785" d="M359.041,521.667c.128,1.66-.329,3.071-1.018,3.147s-1.35-1.2-1.475-2.867.329-3.071,1.018-3.15S358.916,520.005,359.041,521.667Z" transform="translate(-356.528 -518.795)" fill="#291018"/>
                </g>
                <path id="Trazado_53786" data-name="Trazado 53786" d="M365.988,522.887s-6.894-3.646-10.595-3.991c0,0,.674-4.775,5.6-2.783A7.8,7.8,0,0,1,365.988,522.887Z" transform="translate(-355.393 -515.627)" fill="#200f21"/>
              </g>
              <g id="Grupo_25778" data-name="Grupo 25778" transform="translate(19.685 16.113)">
                <path id="Trazado_53787" data-name="Trazado 53787" d="M359.633,526.928a.537.537,0,0,0,.241-.064.572.572,0,0,0,.258-.755l-1.751-3.58a.54.54,0,0,0-.74-.234.572.572,0,0,0-.258.755l1.751,3.58A.529.529,0,0,0,359.633,526.928Z" transform="translate(-357.327 -522.106)" fill="#fd5f44"/>
                <path id="Trazado_53788" data-name="Trazado 53788" d="M361.06,526.878a.583.583,0,0,0,.5-.819l-1.753-3.582a.539.539,0,0,0-.74-.231.573.573,0,0,0-.258.755l1.751,3.58A.534.534,0,0,0,361.06,526.878Z" transform="translate(-355.249 -522.181)" fill="#fd5f44"/>
              </g>
              <g id="Grupo_25780" data-name="Grupo 25780" transform="translate(0.388 16.876)">
                <g id="Grupo_25779" data-name="Grupo 25779">
                  <path id="Trazado_53789" data-name="Trazado 53789" d="M350.035,527.315a.577.577,0,0,0,.5-.334l1.753-3.708a.545.545,0,0,0-.261-.735.57.57,0,0,0-.74.288l-1.751,3.708a.542.542,0,0,0,.258.735A.55.55,0,0,0,350.035,527.315Z" transform="translate(-349.479 -522.491)" fill="#fd5f44"/>
                </g>
              </g>
            </g>
          </g>
        </g>
      </g>
      <g id="Grupo_25786" data-name="Grupo 25786" transform="translate(40.32 90.72)">
        <g id="Grupo_25785" data-name="Grupo 25785" transform="translate(0 45.456)">
          <path id="Trazado_53790" data-name="Trazado 53790" d="M359.769,554.589a20.694,20.694,0,0,1-3.039.789A24.473,24.473,0,0,1,351,551.951a2.344,2.344,0,0,1-.43-2.69s4.861,1.139,8.345,1.967a7.759,7.759,0,0,0,1.242.177A5.807,5.807,0,0,0,359.769,554.589Z" transform="translate(-347.908 -549.261)" fill="#fd5f44"/>
          <path id="Trazado_53791" data-name="Trazado 53791" d="M359.995,550.092l-.01.015a6.26,6.26,0,0,0-5.872,1.2c-5.35,4.994-5.257,10.29-4.2,10.959,1.551.979,5.321-5.318,6.577-6.771-1.168,1.495-3.049,6.506-1.652,7.954,1.468,1.431,3.3-3.034,4.667-5.264-.856,1.913-1.328,6.223.243,7.253,1.458.875,3.932-5.766,3.983-5.707-.052-.054-1.529,5.862.022,7.229,1.463,1.259,2.872-3.373,3.4-4.531l.858.14a5.218,5.218,0,0,0,5.938-4.035l.772-3.528Z" transform="translate(-349.341 -548.415)" fill="#eb9f86"/>
        </g>
        <path id="Trazado_53792" data-name="Trazado 53792" d="M356.75,583.424s19.092-8.544,28.928-13.226c-1.537-2.173-8.881-18.5-11.259-24.408-1.628-4.05-.573-8.47,2.124-11.9,12.911-16.415,25.436,37.209,25.443,40.87.01,5.07-5.127,7.389-6.285,8.227-8.043,5.815-39.075,7.008-39.075,7.008Z" transform="translate(-338.713 -530.774)" fill="#eb9f86"/>
        <path id="Trazado_53793" data-name="Trazado 53793" d="M366.446,533.889c-2.7,3.43-3.752,7.851-2.124,11.9,1.365,3.391,4.367,10.214,6.966,15.822A38.012,38.012,0,0,1,386.952,555C382.123,540.068,374.356,523.831,366.446,533.889Z" transform="translate(-328.616 -530.774)" fill="#62cca2"/>
        <path id="Trazado_53794" data-name="Trazado 53794" d="M374.338,555.8a5.284,5.284,0,0,1,2.793-7.907,12.1,12.1,0,0,1,.268,1.9A7.8,7.8,0,0,1,374.338,555.8Z" transform="translate(-314.125 -505.804)" fill="#fd7e6a"/>
      </g>
      <g id="Grupo_25789" data-name="Grupo 25789" transform="translate(115.994)">
        <g id="Grupo_25788" data-name="Grupo 25788">
          <path id="Rect치ngulo_5180" data-name="Rect치ngulo 5180" d="M2.285,0H8.95a2.285,2.285,0,0,1,2.285,2.285V9.83a0,0,0,0,1,0,0H0a0,0,0,0,1,0,0V2.285A2.285,2.285,0,0,1,2.285,0Z" transform="translate(14.671)" fill="#dbf9ff"/>
          <g id="Grupo_25787" data-name="Grupo 25787" transform="translate(0 8.513)">
            <path id="Trazado_53795" data-name="Trazado 53795" d="M408.1,543.939H392.36a10.33,10.33,0,0,1-10.3-9.572l-1.911-25.935a10.33,10.33,0,0,1,10.3-11.092h19.562a10.332,10.332,0,0,1,10.3,11.092l-1.91,25.935A10.332,10.332,0,0,1,408.1,543.939Z" transform="translate(-380.118 -497.34)" fill="#dbf9ff"/>
            <path id="Trazado_53796" data-name="Trazado 53796" d="M389.927,532.5h15.739a6.411,6.411,0,0,0,6.366-5.913l1.512-20.551a96.6,96.6,0,0,1-31.758-3.563l1.778,24.113A6.407,6.407,0,0,0,389.927,532.5Z" transform="translate(-377.686 -489.851)" fill="#a80a71"/>
            <path id="Trazado_53797" data-name="Trazado 53797" d="M389.927,532.5h15.739a6.411,6.411,0,0,0,6.366-5.913l1.512-20.551a96.6,96.6,0,0,1-31.758-3.563l1.778,24.113A6.407,6.407,0,0,0,389.927,532.5Z" transform="translate(-377.686 -489.851)" fill="#e33e4e"/>
            <path id="Trazado_53798" data-name="Trazado 53798" d="M383.211,500.846a7.875,7.875,0,0,0-2.107,6l1.5,20.371c9.053-5.006,19.3-13.976,19.333-28.918H389.044A7.877,7.877,0,0,0,383.211,500.846Z" transform="translate(-378.713 -495.934)" fill="#fff" opacity="0.32"/>
          </g>
        </g>
        <rect id="Rect치ngulo_5181" data-name="Rect치ngulo 5181" width="21.457" height="5.879" transform="translate(9.113 29.904)" fill="#fff"/>
      </g>
      <g id="Grupo_25791" data-name="Grupo 25791" transform="translate(83.857 47.947)">
        <g id="Grupo_25790" data-name="Grupo 25790">
          <path id="Trazado_53799" data-name="Trazado 53799" d="M402.941,621.476c-.374,0-.745-.02-1.114-.054-6.341-.607-10.966-6.245-15.864-12.215-4.945-6.029-10.059-12.264-17.157-13.309l.229-1.561c7.7,1.134,13.014,7.607,18.151,13.867,4.682,5.709,9.1,11.1,14.794,11.645,3.575.347,7.445-1.251,11.817-4.876C430.644,601,416,514.524,415.835,513.683l1.551-.3c.684,3.467,14.984,88.238-2.582,102.809C410.527,619.737,406.632,621.476,402.941,621.476Z" transform="translate(-364.483 -513.378)" fill="#e33e4e"/>
          <path id="Trazado_53800" data-name="Trazado 53800" d="M367.326,549.613a1.578,1.578,0,0,1,.408-2.2,6.8,6.8,0,0,1,5.156-1.36,5.6,5.6,0,0,1,3.432,2.173,1.579,1.579,0,0,1-2.6,1.8c-.334-.455-1.618-1.783-4.2-.007A1.578,1.578,0,0,1,367.326,549.613Z" transform="translate(-367.048 -465.842)" fill="#e33e4e"/>
        </g>
      </g>
    </g>
    <g id="Grupo_25793" data-name="Grupo 25793" transform="translate(322.186 493.103)">
      <circle id="Elipse_1389" data-name="Elipse 1389" cx="6.853" cy="6.853" r="6.853" transform="translate(19.318 13.476) rotate(-79.481)" fill="#c5dbee"/>
      <path id="Trazado_53801" data-name="Trazado 53801" d="M330.752,512.185a4.283,4.283,0,1,1-4.283-4.286A4.283,4.283,0,0,1,330.752,512.185Z" transform="translate(-322.186 -471.52)" fill="#c5dbee"/>
    </g>
    <g id="Grupo_25794" data-name="Grupo 25794" transform="translate(471.169 604.665)">
      <path id="Trazado_53802" data-name="Trazado 53802" d="M389.087,551.092a6.308,6.308,0,1,1,6.309-6.309A6.316,6.316,0,0,1,389.087,551.092Zm0-10.157a3.849,3.849,0,1,0,3.85,3.848A3.853,3.853,0,0,0,389.087,540.935Z" transform="translate(-382.778 -538.476)" fill="#c5dbee"/>
    </g>
  </g>
</svg>
