<svg xmlns="http://www.w3.org/2000/svg" width="76.084" height="78.653" viewBox="0 0 76.084 78.653">
  <g id="Grupo_25498" data-name="Grupo 25498" transform="translate(-579.074 -107.069)">
    <circle id="Elipse_1360" data-name="Elipse 1360" cx="38.042" cy="38.042" r="38.042" transform="translate(579.074 109.639)" fill="#f2f2f2"/>
    <g id="Grupo_25497" data-name="Grupo 25497">
      <path id="Trazado_53299" data-name="Trazado 53299" d="M633.685,114.953c-2.576-3.95-5.112-7.087-5.219-7.219a1.8,1.8,0,0,0-2.8.006c-.106.133-2.641,3.3-5.215,7.258-3.634,5.592-5.4,9.715-5.4,12.6a12.017,12.017,0,1,0,24.035,0C639.087,124.705,637.27,120.449,633.685,114.953Z" fill="#e33e4e"/>
      <path id="Trazado_53300" data-name="Trazado 53300" d="M639.087,127.6a12.031,12.031,0,0,1-11.972,12.017V107.07a1.786,1.786,0,0,1,1.351.664c.107.132,2.643,3.268,5.22,7.219,3.583,5.495,5.4,9.752,5.4,12.65Z" fill="#bf2e43"/>
      <g id="Grupo_25495" data-name="Grupo 25495">
        <path id="Trazado_53301" data-name="Trazado 53301" d="M650,144.675c-2.03,2.531-11.818,14.729-15.1,18.822a3.586,3.586,0,0,1-2.8,1.343l-24.808,0V146.075l4.691-1.989a1.792,1.792,0,0,1,.7-.143H629.86a3.937,3.937,0,0,1,3.934,4.027,3.987,3.987,0,0,1-4.013,3.844h-5.853a2.363,2.363,0,0,0-2.362,2.45,2.4,2.4,0,0,0,2.42,2.278h5.655a2.394,2.394,0,0,0,1.773-.784l9.824-10.8a6.333,6.333,0,0,1,8.676-1.12.6.6,0,0,1,.089.839Z" fill="#f4a56d"/>
      </g>
      <g id="Grupo_25496" data-name="Grupo 25496">
        <path id="Trazado_53302" data-name="Trazado 53302" d="M629.781,151.814h-2.666v-7.871h2.745a3.937,3.937,0,0,1,3.934,4.027A3.987,3.987,0,0,1,629.781,151.814Z" fill="#e7985b"/>
        <path id="Trazado_53303" data-name="Trazado 53303" d="M629.641,156.542a2.394,2.394,0,0,0,1.773-.784l9.824-10.8a6.333,6.333,0,0,1,8.676-1.12.6.6,0,0,1,.089.839L634.9,163.5a3.591,3.591,0,0,1-2.8,1.343h-4.985v-8.3Z" fill="#e7985b"/>
      </g>
      <path id="Trazado_53304" data-name="Trazado 53304" d="M606.095,142.786h-12.7a1.8,1.8,0,0,0-1.8,1.8v22.054a1.8,1.8,0,0,0,1.8,1.8h12.7a1.8,1.8,0,0,0,1.8-1.8V144.584A1.8,1.8,0,0,0,606.095,142.786Z" fill="#6b6bd6"/>
      <path id="Trazado_53305" data-name="Trazado 53305" d="M630.045,125.866h-1.132v-1.145a1.8,1.8,0,1,0-3.6,0v1.145h-1.133a1.8,1.8,0,1,0,0,3.6h1.133v1.145a1.8,1.8,0,1,0,3.6,0v-1.145h1.132a1.8,1.8,0,1,0,0-3.6Z" fill="#e4edef"/>
      <path id="Trazado_53306" data-name="Trazado 53306" d="M631.844,127.664a1.8,1.8,0,0,1-1.8,1.8h-1.133v1.144a1.8,1.8,0,0,1-1.8,1.8v-9.482a1.8,1.8,0,0,1,1.8,1.8v1.146h1.133A1.8,1.8,0,0,1,631.844,127.664Z" fill="#bfdfe7"/>
    </g>
  </g>
</svg>
