<svg xmlns="http://www.w3.org/2000/svg" width="61" height="61" viewBox="0 0 61 61">
  <g id="Grupo_25921" data-name="Grupo 25921" transform="translate(-2112 -4220)">
    <rect id="Rect치ngulo_5210" data-name="Rect치ngulo 5210" width="61" height="61" transform="translate(2112 4220)" fill="none"/>
    <rect id="Rect치ngulo_5211" data-name="Rect치ngulo 5211" width="49" height="49" transform="translate(2118 4226)" fill="none"/>
    <g id="Grupo_25914" data-name="Grupo 25914" transform="translate(1721.068 4053.551)">
      <path id="Trazado_54301" data-name="Trazado 54301" d="M400.965,183.47a4.5,4.5,0,0,1,4.49-4.49h15.511a4.509,4.509,0,0,1,4.477,4.145l1.628-.124a6.148,6.148,0,0,0-6.105-5.653h-1.224a4.9,4.9,0,0,0-4.9-4.9h-3.265a4.9,4.9,0,0,0-4.9,4.9h-1.224a6.13,6.13,0,0,0-6.123,6.123v6.123h1.633Zm10.613-9.388h3.265a3.268,3.268,0,0,1,3.265,3.265h-9.8A3.268,3.268,0,0,1,411.578,174.082Z" transform="translate(0 0)" fill="#111e61"/>
      <path id="Trazado_54302" data-name="Trazado 54302" d="M409.578,174.5h3.265v1.633h-3.265Z" transform="translate(2 0.4)" fill="#111e61"/>
      <path id="Trazado_54303" data-name="Trazado 54303" d="M414.593,190.742a.817.817,0,0,0-.816-.818h-1.633v-1.633a.817.817,0,0,0-.816-.816h-3.265a.816.816,0,0,0-.816.816v1.633h-1.634a.817.817,0,0,0-.816.818v3.265a.817.817,0,0,0,.816.816h1.634v1.633a.816.816,0,0,0,.816.816h3.265a.817.817,0,0,0,.816-.816v-1.633h1.633a.817.817,0,0,0,.816-.816Zm-1.633,2.449h-1.633a.817.817,0,0,0-.816.816v1.633h-1.633v-1.633a.817.817,0,0,0-.816-.816H406.43v-1.633h1.633a.817.817,0,0,0,.816-.816v-1.634h1.633v1.634a.817.817,0,0,0,.816.816h1.633Z" transform="translate(1.067 2.933)" fill="#111e61"/>
      <path id="Trazado_54304" data-name="Trazado 54304" d="M412.993,194.99h4.9v1.633h-4.9Z" transform="translate(2.667 4.4)" fill="#111e61"/>
      <path id="Trazado_54305" data-name="Trazado 54305" d="M441.561,184.516a6.2,6.2,0,0,0-9.063,0l-2.143,2.254-2.143-2.254a6.212,6.212,0,0,0-4.388-1.97v-.41a2.862,2.862,0,0,0-2.858-2.858H405.455a2.862,2.862,0,0,0-2.858,2.858v22.694a3.874,3.874,0,0,0,2.652,3.679L409.725,210a11.087,11.087,0,0,0,6.97,0l4.476-1.492a3.874,3.874,0,0,0,2.652-3.679v-5.98l5.715,6.013v13.4a.205.205,0,0,1-.2.2h-8.573a.2.2,0,0,1-.2-.2v-1.428h.816a.817.817,0,0,0,.816-.816v-4.406l.014,0a7.133,7.133,0,0,0,4.884-6.777v-1.059h-1.633v1.059a5.5,5.5,0,0,1-3.767,5.228l-.573.19a.816.816,0,0,0-.558.774V215.2h-1.633v-3.09a.817.817,0,0,0-.818-.816.827.827,0,0,0-.258.042l-.638.213a12.655,12.655,0,0,1-2.468.557.815.815,0,0,0-.717.81v5.549h-1.633v-5.549a.815.815,0,0,0-.717-.81,12.655,12.655,0,0,1-2.468-.557l-.638-.213a.816.816,0,0,0-1.033.516.8.8,0,0,0-.042.258v3.09h-1.634v-4.178a.816.816,0,0,0-.558-.774l-.571-.19a5.5,5.5,0,0,1-3.768-5.228V189.892h-1.633v14.939a7.134,7.134,0,0,0,4.885,6.777l.013,0v4.406a.817.817,0,0,0,.816.816h3.266a.817.817,0,0,0,.816-.816h0v-2.781a14.392,14.392,0,0,0,1.633.385v5.662a.817.817,0,0,0,.816.816h3.265a.817.817,0,0,0,.816-.816v-5.662a14.334,14.334,0,0,0,1.633-.385v2.781a.817.817,0,0,0,.816.816h.818v1.428a1.838,1.838,0,0,0,1.836,1.837h8.573a1.839,1.839,0,0,0,1.837-1.837v-13.4l7.122-7.494-1.183-1.126-6.757,7.11-10.023-10.546a5.263,5.263,0,0,1,0-7.166,4.563,4.563,0,0,1,6.448-.249c.086.08.168.163.249.249l2.735,2.877a.816.816,0,0,0,1.155.03l.03-.03,2.735-2.877a4.564,4.564,0,0,1,6.448-.249c.086.08.169.163.249.249a5.263,5.263,0,0,1,0,7.166l-2.126,2.237,1.183,1.125,2.128-2.237a6.915,6.915,0,0,0,0-9.416Zm-19.369,20.315a2.242,2.242,0,0,1-1.536,2.13l-4.476,1.492a9.446,9.446,0,0,1-5.938,0l-4.476-1.492a2.242,2.242,0,0,1-1.536-2.13v-1.875h17.961Zm-3.043-10.9,3.043,3.2v4.188H404.23V186.627H417.8a6.927,6.927,0,0,0,1.353,7.305Zm3.043-11.206a6.277,6.277,0,0,0-3.043,1.79q-.22.231-.414.478h-14.5v-2.858a1.226,1.226,0,0,1,1.225-1.224h15.511a1.226,1.226,0,0,1,1.225,1.224Z" transform="translate(0 1.333)" fill="#111e61"/>
      <path id="Trazado_54306" data-name="Trazado 54306" d="M428.863,191.122l-1.035,2.588-3.229-5.167a.817.817,0,0,0-1.126-.259.835.835,0,0,0-.3.327l-1.407,2.815h-1.945v1.633h2.449a.816.816,0,0,0,.73-.452l.982-1.964,3.31,5.3a.817.817,0,0,0,.693.384c.024,0,.048,0,.073,0a.814.814,0,0,0,.685-.509l1.427-3.569H433.7v-1.633h-4.082a.816.816,0,0,0-.758.513Z" transform="translate(4 3.067)" fill="#111e61"/>
    </g>
  </g>
</svg>
