<svg xmlns="http://www.w3.org/2000/svg" width="76.084" height="77.373" viewBox="0 0 76.084 77.373">
  <g id="Grupo_25503" data-name="Grupo 25503" transform="translate(-402.682 -108.35)">
    <circle id="Elipse_1362" data-name="Elipse 1362" cx="38.042" cy="38.042" r="38.042" transform="translate(402.682 109.639)" fill="#f2f2f2"/>
    <g id="Grupo_25502" data-name="Grupo 25502">
      <path id="Trazado_53315" data-name="Trazado 53315" d="M429.637,130.84h22.292v27.689H429.637Z" fill="#bfdfe7"/>
      <path id="Trazado_53316" data-name="Trazado 53316" d="M440.734,130.84h11.195v27.689H440.734Z" fill="#93cbd8"/>
      <path id="Trazado_53317" data-name="Trazado 53317" d="M431.768,130.84v4.953a1.488,1.488,0,0,1-1.387,1.484v20.756a1.461,1.461,0,0,1-.086.5h-8.746a1.484,1.484,0,0,1-.085-.5V137.28h-.1a1.486,1.486,0,0,1-1.486-1.487V130.84Z" fill="#6b6bd6"/>
      <path id="Trazado_53318" data-name="Trazado 53318" d="M461.49,130.84v4.953a1.487,1.487,0,0,1-1.387,1.484v20.756a1.485,1.485,0,0,1-.085.5h-8.747a1.485,1.485,0,0,1-.085-.5V137.28h-.1a1.487,1.487,0,0,1-1.486-1.487V130.84Z" fill="#6161bc"/>
      <path id="Trazado_53319" data-name="Trazado 53319" d="M464.561,161.063H461.49v-1.544A1.486,1.486,0,0,0,460,158.033H421.266a1.486,1.486,0,0,0-1.486,1.486v1.516h-2.874a1.486,1.486,0,0,0-1.486,1.486v4.429a1.486,1.486,0,0,0,1.486,1.486h47.655a1.486,1.486,0,0,0,1.486-1.486v-4.4A1.486,1.486,0,0,0,464.561,161.063Z" fill="#cddce9"/>
      <path id="Trazado_53320" data-name="Trazado 53320" d="M466.047,162.549v4.4a1.486,1.486,0,0,1-1.486,1.486H440.734v-10.4H460a1.487,1.487,0,0,1,1.486,1.486v1.544h3.071A1.486,1.486,0,0,1,466.047,162.549Z" fill="#aacce9"/>
      <path id="Trazado_53321" data-name="Trazado 53321" d="M464.611,117.465h-5.637l-17.562-8.953a1.486,1.486,0,0,0-1.354,0l-17.448,8.951h-5.753a1.486,1.486,0,0,0-1.486,1.486v10.4a1.486,1.486,0,0,0,1.486,1.486h47.754a1.486,1.486,0,0,0,1.486-1.486v-10.4A1.486,1.486,0,0,0,464.611,117.465Z" fill="#cddce9"/>
      <path id="Trazado_53322" data-name="Trazado 53322" d="M466.1,118.951v10.4a1.487,1.487,0,0,1-1.486,1.486H440.734V108.35a1.483,1.483,0,0,1,.677.162l17.562,8.953h5.638a1.486,1.486,0,0,1,1.486,1.486Z" fill="#aacce9"/>
      <path id="Trazado_53323" data-name="Trazado 53323" d="M443.657,118.943H442.17v-1.486a1.486,1.486,0,0,0-2.972,0v1.486h-1.486a1.486,1.486,0,0,0,0,2.972H439.2V123.4a1.486,1.486,0,0,0,2.972,0v-1.487h1.487a1.486,1.486,0,0,0,0-2.972Z" fill="#e33e4e"/>
      <path id="Trazado_53324" data-name="Trazado 53324" d="M445.143,120.429a1.486,1.486,0,0,1-1.486,1.486H442.17V123.4a1.485,1.485,0,0,1-1.436,1.485v-8.914a1.485,1.485,0,0,1,1.436,1.485v1.486h1.487A1.487,1.487,0,0,1,445.143,120.429Z" fill="#bf2e43"/>
      <path id="Trazado_53325" data-name="Trazado 53325" d="M440.734,138.741c-.532-.017-4.508,5.239-4.508,7.428a4.458,4.458,0,1,0,8.917,0C445.143,143.981,441.233,138.757,440.734,138.741Z" fill="#e33e4e"/>
      <path id="Trazado_53326" data-name="Trazado 53326" d="M445.143,146.169a4.466,4.466,0,0,1-4.409,4.459V138.742C441.233,138.756,445.143,143.981,445.143,146.169Z" fill="#bf2e43"/>
    </g>
  </g>
</svg>
